<svg width="21" height="20" viewBox="0 0 21 20" fill="none" xmlns="http://www.w3.org/2000/svg">
<path d="M6.42602 0.226261C6.32932 0.349318 6.19926 0.504128 6.13923 0.571609C6.07921 0.639091 5.79909 0.960621 5.5223 1.29009C5.24218 1.61559 4.88202 2.03636 4.72195 2.21498C4.54855 2.41346 4.35513 2.68736 4.24508 2.8898C3.9016 3.51301 3.85491 3.58843 3.63148 3.87027C3.5081 4.02111 3.34469 4.26325 3.26466 4.40615C3.02456 4.84677 2.71442 5.66449 2.48099 6.4703C2.22754 7.3555 2.07081 7.74451 1.79736 8.19703C1.50056 8.68131 1.38718 8.78849 0.860288 9.06635L0.573498 9.22117L0.53348 9.64193C0.39342 11.1861 0.696884 12.7183 1.36717 13.8536L1.53391 14.1314L1.64062 14.0759C1.69732 14.0441 1.92742 13.9211 2.14751 13.802C2.94452 13.3693 3.5181 13.2105 4.29844 13.2066C4.67527 13.2066 4.85535 13.2224 5.11212 13.2899C5.72572 13.4527 5.89246 13.4249 7.14967 12.9485C8.24681 12.5317 8.41355 12.4762 8.84373 12.373L9.2339 12.2777V12.4285C9.2339 12.5397 9.26058 12.6151 9.33395 12.7183C9.48067 12.9168 11.058 14.056 11.4315 14.2347C11.5582 14.2942 11.6549 14.2982 12.2319 14.2783C13.1523 14.2426 13.6625 14.1394 14.0426 13.9092C14.1293 13.8576 14.2094 13.8139 14.2161 13.8139C14.2727 13.8139 14.1494 14.0481 14.056 14.1195C13.7525 14.3537 12.8821 14.9611 12.6087 15.1318C12.3086 15.3183 12.2952 15.3223 12.0018 15.3223C11.8384 15.3223 11.4782 15.3421 11.2014 15.366L10.6979 15.4096L10.5178 15.2548C9.92087 14.7547 9.49401 14.5324 9.22723 14.584C8.96712 14.6356 8.677 14.8698 8.6003 15.0881C8.55694 15.2072 8.56028 15.2191 8.66366 15.3183C8.72368 15.3779 8.95712 15.5446 9.18055 15.6954C9.40398 15.8423 9.66742 16.0408 9.76747 16.136C10.1776 16.537 10.3511 16.5886 11.4215 16.6203C12.0951 16.6402 12.1852 16.6362 12.4986 16.5568C12.9688 16.4338 13.6892 16.1877 14.106 15.9971C14.2961 15.9138 14.4528 15.8463 14.4562 15.8502C14.4595 15.8542 14.186 16.0646 13.8459 16.3147C13.5057 16.5648 13.1423 16.8545 13.0389 16.9538C12.8788 17.1086 12.7954 17.1522 12.4553 17.2634C12.2352 17.3348 11.9451 17.442 11.805 17.5055C11.665 17.5651 11.3248 17.6643 11.0514 17.7199C10.3511 17.8668 10.1543 17.9263 10.0009 18.0414C9.75079 18.228 9.66409 18.5416 9.80415 18.748C9.90419 18.9028 10.0676 18.9385 10.4378 18.8949C10.6112 18.875 10.9813 18.8313 11.2614 18.7956C11.8484 18.7281 11.9584 18.6964 12.6854 18.4066C13.6125 18.0335 13.9359 17.8469 14.7996 17.1919C15.1198 16.9498 15.4032 16.7513 15.4266 16.7513C15.5366 16.7513 15.0531 17.3864 14.136 18.4582C13.6291 19.0497 13.5391 19.1767 13.5191 19.2997C13.4891 19.4863 13.5124 19.5935 13.6091 19.7681C13.7158 19.9547 13.8392 20.0341 13.9526 19.9865C13.9993 19.9627 14.1694 19.7999 14.3294 19.6173C15.0631 18.7916 15.3799 18.4503 15.7434 18.089C16.1602 17.6762 16.3737 17.3904 16.6905 16.8109C16.8105 16.5925 16.9973 16.3226 17.1807 16.1162C17.6409 15.5922 18.0177 14.8023 18.3678 13.6233C18.6613 12.6389 18.838 12.2261 19.1849 11.718C19.3983 11.4004 19.6351 11.2139 20.0819 10.9995L20.4321 10.8328L20.4721 10.4279C20.5288 9.8801 20.4954 8.86788 20.4054 8.39551C20.2286 7.46664 19.9052 6.66083 19.4283 5.94235C19.3816 5.87884 19.3616 5.88281 19.0882 6.03365C18.2111 6.51396 17.6242 6.71641 16.9039 6.79183C16.3937 6.83946 16.0268 6.81961 15.4699 6.70053C15.1831 6.64099 15.0264 6.62908 14.8263 6.64892C14.5329 6.68068 14.5795 6.66877 13.369 7.08557C12.0951 7.52619 11.9617 7.56588 11.5182 7.66115C11.2981 7.70878 11.0914 7.75245 11.0614 7.76436C11.0113 7.7842 11.0013 7.76039 11.0013 7.61351C11.0013 7.51825 10.978 7.39916 10.948 7.35153C10.8946 7.26023 9.92754 6.47427 9.40398 6.09716C8.92043 5.74785 8.89375 5.73991 8.17344 5.76769C7.30974 5.79945 6.9229 5.88281 6.52607 6.11304L6.33932 6.22419L6.36933 6.12098C6.40601 5.99793 6.65946 5.77166 7.35309 5.24769C8.10675 4.67608 8.00004 4.71577 8.88042 4.6602L9.64408 4.6086L9.96088 4.88249C10.3611 5.23578 10.6612 5.40647 10.908 5.43029C11.068 5.44616 11.1214 5.43029 11.2714 5.33502C11.4382 5.22387 11.6349 4.96982 11.6349 4.85868C11.6349 4.78326 11.4282 4.59669 11.0814 4.36249C10.908 4.24737 10.6512 4.03699 10.5111 3.89806C10.3677 3.75912 10.1977 3.61622 10.1343 3.58447C9.94421 3.48523 9.454 3.41775 8.81706 3.40584C8.25014 3.39393 8.19679 3.40187 7.84997 3.50508C7.46981 3.62019 6.58609 3.96554 6.26595 4.12432C6.02585 4.23943 6.05586 4.21165 6.66613 3.73134C6.94958 3.50508 7.28973 3.2153 7.41979 3.08828C7.63321 2.88186 7.69657 2.84217 8.00337 2.73896C8.19345 2.67545 8.47024 2.56827 8.61697 2.50476C8.91043 2.37774 9.03048 2.34201 9.6174 2.22292C10.2143 2.09987 10.4144 1.96888 10.5211 1.64734C10.5678 1.49253 10.5678 1.46872 10.5211 1.35757C10.4044 1.09161 10.2944 1.07177 9.55404 1.17101C9.31394 1.20276 8.9938 1.24643 8.84373 1.27024C8.55361 1.30994 8.12342 1.46872 7.40978 1.81009C6.88622 2.06017 6.44603 2.34201 5.85244 2.81438C5.3789 3.19545 5.19883 3.31454 5.19883 3.26294C5.19883 3.16767 5.54898 2.68736 6.5294 1.44887C7.00961 0.837566 7.0563 0.738329 6.99293 0.444584C6.95292 0.246109 6.77284 0 6.6728 0C6.63278 0 6.53274 0.0912991 6.42602 0.226261ZM8.6103 7.29595C8.86041 7.49443 9.17721 7.68894 9.43732 7.80008L9.6941 7.90726L9.80081 8.26054L9.90753 8.61383L9.80415 8.91154C9.74412 9.07826 9.58739 9.46727 9.45066 9.78484C9.20389 10.3485 9.16054 10.5311 9.24391 10.6343C9.27725 10.674 9.21723 10.678 8.93377 10.6502C8.41688 10.6026 8.03005 10.6303 7.60653 10.7415C7.39644 10.7971 7.22303 10.8368 7.21636 10.8288C7.20969 10.8209 7.13633 10.7058 7.05296 10.5708C6.96959 10.4358 6.77951 10.2016 6.62611 10.0548C6.22594 9.65781 6.10589 9.51491 6.07921 9.38789C6.05253 9.25292 6.15924 8.78849 6.30264 8.42726C6.45937 8.03031 6.76284 7.80802 7.38644 7.61748C7.6032 7.55 7.91333 7.43092 8.08007 7.34756C8.24681 7.26023 8.40354 7.19275 8.42689 7.18878C8.45023 7.18481 8.5336 7.23641 8.6103 7.29595ZM13.4124 9.35613C13.5791 9.62209 13.8025 9.87613 14.1527 10.1897C14.5229 10.5232 14.5662 10.6065 14.5095 10.8566C14.4295 11.2059 14.2627 11.6783 14.1694 11.8013C13.9993 12.0355 13.6258 12.2459 13.1256 12.4007C12.8721 12.4762 12.5153 12.6111 12.3286 12.7024L11.9918 12.8612L11.7883 12.7064C11.5449 12.5159 11.0914 12.2618 10.8279 12.1626C10.7212 12.1229 10.6345 12.0752 10.6345 12.0514C10.6345 12.0276 10.5812 11.8569 10.5211 11.6743L10.4077 11.3409L10.4911 11.063C10.5378 10.9082 10.6779 10.5351 10.8046 10.2294C10.9313 9.92377 11.0347 9.6459 11.0347 9.61018C11.0347 9.57445 11.058 9.503 11.088 9.4514C11.1414 9.36407 11.1547 9.3601 11.3982 9.38789C11.9951 9.45537 12.6987 9.38789 13.1523 9.21323C13.209 9.19338 13.2623 9.17353 13.2756 9.17353C13.2857 9.16956 13.349 9.25292 13.4124 9.35613Z" fill="#003399"/>
</svg>
