<svg width="20" height="20" viewBox="0 0 20 20" fill="none" xmlns="http://www.w3.org/2000/svg">
<path d="M5.92602 0.226261C5.82932 0.349318 5.69926 0.504128 5.63923 0.571609C5.57921 0.639091 5.29909 0.960621 5.0223 1.29009C4.74218 1.61559 4.38202 2.03636 4.22195 2.21498C4.04855 2.41346 3.85513 2.68736 3.74508 2.8898C3.4016 3.51301 3.35491 3.58843 3.13148 3.87027C3.0081 4.02111 2.84469 4.26325 2.76466 4.40615C2.52456 4.84677 2.21442 5.66449 1.98099 6.4703C1.72754 7.3555 1.57081 7.74451 1.29736 8.19703C1.00056 8.68131 0.887182 8.78849 0.360288 9.06635L0.0734978 9.22117L0.0334805 9.64193C-0.10658 11.1861 0.196884 12.7183 0.867174 13.8536L1.03391 14.1314L1.14062 14.0759C1.19732 14.0441 1.42742 13.9211 1.64751 13.802C2.44452 13.3693 3.0181 13.2105 3.79844 13.2066C4.17527 13.2066 4.35535 13.2224 4.61212 13.2899C5.22572 13.4527 5.39246 13.4249 6.64967 12.9485C7.74681 12.5317 7.91355 12.4762 8.34373 12.373L8.7339 12.2777V12.4285C8.7339 12.5397 8.76058 12.6151 8.83395 12.7183C8.98067 12.9168 10.558 14.056 10.9315 14.2347C11.0582 14.2942 11.1549 14.2982 11.7319 14.2783C12.6523 14.2426 13.1625 14.1394 13.5426 13.9092C13.6293 13.8576 13.7094 13.8139 13.7161 13.8139C13.7727 13.8139 13.6494 14.0481 13.556 14.1195C13.2525 14.3537 12.3821 14.9611 12.1087 15.1318C11.8086 15.3183 11.7952 15.3223 11.5018 15.3223C11.3384 15.3223 10.9782 15.3421 10.7014 15.366L10.1979 15.4096L10.0178 15.2548C9.42087 14.7547 8.99401 14.5324 8.72723 14.584C8.46712 14.6356 8.177 14.8698 8.1003 15.0881C8.05694 15.2072 8.06028 15.2191 8.16366 15.3183C8.22368 15.3779 8.45712 15.5446 8.68055 15.6954C8.90398 15.8423 9.16742 16.0408 9.26747 16.136C9.67764 16.537 9.85105 16.5886 10.9215 16.6203C11.5951 16.6402 11.6852 16.6362 11.9986 16.5568C12.4688 16.4338 13.1892 16.1877 13.606 15.9971C13.7961 15.9138 13.9528 15.8463 13.9562 15.8502C13.9595 15.8542 13.686 16.0646 13.3459 16.3147C13.0057 16.5648 12.6423 16.8545 12.5389 16.9538C12.3788 17.1086 12.2954 17.1522 11.9553 17.2634C11.7352 17.3348 11.4451 17.442 11.305 17.5055C11.165 17.5651 10.8248 17.6643 10.5514 17.7199C9.85105 17.8668 9.6543 17.9263 9.5009 18.0414C9.25079 18.228 9.16409 18.5416 9.30415 18.748C9.40419 18.9028 9.5676 18.9385 9.93775 18.8949C10.1112 18.875 10.4813 18.8313 10.7614 18.7956C11.3484 18.7281 11.4584 18.6964 12.1854 18.4066C13.1125 18.0335 13.4359 17.8469 14.2996 17.1919C14.6198 16.9498 14.9032 16.7513 14.9266 16.7513C15.0366 16.7513 14.5531 17.3864 13.636 18.4582C13.1291 19.0497 13.0391 19.1767 13.0191 19.2997C12.9891 19.4863 13.0124 19.5935 13.1091 19.7681C13.2158 19.9547 13.3392 20.0341 13.4526 19.9865C13.4993 19.9627 13.6694 19.7999 13.8294 19.6173C14.5631 18.7916 14.8799 18.4503 15.2434 18.089C15.6602 17.6762 15.8737 17.3904 16.1905 16.8109C16.3105 16.5925 16.4973 16.3226 16.6807 16.1162C17.1409 15.5922 17.5177 14.8023 17.8678 13.6233C18.1613 12.6389 18.338 12.2261 18.6849 11.718C18.8983 11.4004 19.1351 11.2139 19.5819 10.9995L19.9321 10.8328L19.9721 10.4279C20.0288 9.8801 19.9954 8.86788 19.9054 8.39551C19.7286 7.46664 19.4052 6.66083 18.9283 5.94235C18.8816 5.87884 18.8616 5.88281 18.5882 6.03365C17.7111 6.51396 17.1242 6.71641 16.4039 6.79183C15.8937 6.83946 15.5268 6.81961 14.9699 6.70053C14.6831 6.64099 14.5264 6.62908 14.3263 6.64892C14.0329 6.68068 14.0795 6.66877 12.869 7.08557C11.5951 7.52619 11.4617 7.56588 11.0182 7.66115C10.7981 7.70878 10.5914 7.75245 10.5614 7.76436C10.5113 7.7842 10.5013 7.76039 10.5013 7.61351C10.5013 7.51825 10.478 7.39916 10.448 7.35153C10.3946 7.26023 9.42754 6.47427 8.90398 6.09716C8.42043 5.74785 8.39375 5.73991 7.67344 5.76769C6.80974 5.79945 6.4229 5.88281 6.02607 6.11304L5.83932 6.22419L5.86933 6.12098C5.90601 5.99793 6.15946 5.77166 6.85309 5.24769C7.60675 4.67608 7.50004 4.71577 8.38042 4.6602L9.14408 4.6086L9.46088 4.88249C9.86106 5.23578 10.1612 5.40647 10.408 5.43029C10.568 5.44616 10.6214 5.43029 10.7714 5.33502C10.9382 5.22387 11.1349 4.96982 11.1349 4.85868C11.1349 4.78326 10.9282 4.59669 10.5814 4.36249C10.408 4.24737 10.1512 4.03699 10.0111 3.89806C9.86772 3.75912 9.69765 3.61622 9.63429 3.58447C9.44421 3.48523 8.954 3.41775 8.31706 3.40584C7.75014 3.39393 7.69679 3.40187 7.34997 3.50508C6.96981 3.62019 6.08609 3.96554 5.76595 4.12432C5.52585 4.23943 5.55586 4.21165 6.16613 3.73134C6.44958 3.50508 6.78973 3.2153 6.91979 3.08828C7.13321 2.88186 7.19657 2.84217 7.50337 2.73896C7.69345 2.67545 7.97024 2.56827 8.11697 2.50476C8.41043 2.37774 8.53048 2.34201 9.1174 2.22292C9.71432 2.09987 9.91441 1.96888 10.0211 1.64734C10.0678 1.49253 10.0678 1.46872 10.0211 1.35757C9.90441 1.09161 9.79436 1.07177 9.05404 1.17101C8.81394 1.20276 8.4938 1.24643 8.34373 1.27024C8.05361 1.30994 7.62342 1.46872 6.90978 1.81009C6.38622 2.06017 5.94603 2.34201 5.35244 2.81438C4.8789 3.19545 4.69883 3.31454 4.69883 3.26294C4.69883 3.16767 5.04898 2.68736 6.0294 1.44887C6.50961 0.837566 6.5563 0.738329 6.49293 0.444584C6.45292 0.246109 6.27284 0 6.1728 0C6.13278 0 6.03274 0.0912991 5.92602 0.226261ZM8.1103 7.29595C8.36041 7.49443 8.67721 7.68894 8.93732 7.80008L9.1941 7.90726L9.30081 8.26054L9.40753 8.61383L9.30415 8.91154C9.24412 9.07826 9.08739 9.46727 8.95066 9.78484C8.70389 10.3485 8.66054 10.5311 8.74391 10.6343C8.77725 10.674 8.71723 10.678 8.43377 10.6502C7.91688 10.6026 7.53005 10.6303 7.10653 10.7415C6.89644 10.7971 6.72303 10.8368 6.71636 10.8288C6.70969 10.8209 6.63633 10.7058 6.55296 10.5708C6.46959 10.4358 6.27951 10.2016 6.12611 10.0548C5.72594 9.65781 5.60589 9.51491 5.57921 9.38789C5.55253 9.25292 5.65924 8.78849 5.80264 8.42726C5.95937 8.03031 6.26284 7.80802 6.88644 7.61748C7.1032 7.55 7.41333 7.43092 7.58007 7.34756C7.74681 7.26023 7.90354 7.19275 7.92689 7.18878C7.95023 7.18481 8.0336 7.23641 8.1103 7.29595ZM12.9124 9.35613C13.0791 9.62209 13.3025 9.87613 13.6527 10.1897C14.0229 10.5232 14.0662 10.6065 14.0095 10.8566C13.9295 11.2059 13.7627 11.6783 13.6694 11.8013C13.4993 12.0355 13.1258 12.2459 12.6256 12.4007C12.3721 12.4762 12.0153 12.6111 11.8286 12.7024L11.4918 12.8612L11.2883 12.7064C11.0449 12.5159 10.5914 12.2618 10.3279 12.1626C10.2212 12.1229 10.1345 12.0752 10.1345 12.0514C10.1345 12.0276 10.0812 11.8569 10.0211 11.6743L9.90774 11.3409L9.99111 11.063C10.0378 10.9082 10.1779 10.5351 10.3046 10.2294C10.4313 9.92377 10.5347 9.6459 10.5347 9.61018C10.5347 9.57445 10.558 9.503 10.588 9.4514C10.6414 9.36407 10.6547 9.3601 10.8982 9.38789C11.4951 9.45537 12.1987 9.38789 12.6523 9.21323C12.709 9.19338 12.7623 9.17353 12.7756 9.17353C12.7857 9.16956 12.849 9.25292 12.9124 9.35613Z" fill="white"/>
</svg>
