<svg width="11" height="11" viewBox="0 0 11 11" fill="none" xmlns="http://www.w3.org/2000/svg">
<path fill-rule="evenodd" clip-rule="evenodd" d="M5.12931 0.185839C5.30287 0.0122725 5.58428 0.0122725 5.75785 0.185839L10.2023 4.63028C10.2856 4.71363 10.3325 4.82668 10.3325 4.94455V10.5001C10.3325 10.7456 10.1335 10.9446 9.88802 10.9446H0.999132C0.753672 10.9446 0.554688 10.7456 0.554688 10.5001V4.94455C0.554688 4.82668 0.601513 4.71363 0.684862 4.63028L5.12931 0.185839ZM1.44358 5.12865V10.0557H9.44358V5.12865L5.44358 1.12865L1.44358 5.12865Z" fill="#003399"/>
<path fill-rule="evenodd" clip-rule="evenodd" d="M4.77756 6.50022V10.5002C4.77756 10.7457 4.57858 10.9447 4.33312 10.9447C4.08766 10.9447 3.88867 10.7457 3.88867 10.5002V6.50022C3.88867 6.32561 3.91658 6.13948 3.9967 5.97923C4.07649 5.81966 4.25518 5.61133 4.55534 5.61133H6.33312C6.63327 5.61133 6.81196 5.81966 6.89175 5.97923C6.97188 6.13948 6.99978 6.32561 6.99978 6.50022V10.5002C6.99978 10.7457 6.8008 10.9447 6.55534 10.9447C6.30988 10.9447 6.11089 10.7457 6.11089 10.5002V6.50022H4.77756Z" fill="#003399"/>
</svg>
