<svg width="36" height="36" viewBox="0 0 36 36" fill="none" xmlns="http://www.w3.org/2000/svg">
<g id="vuesax/linear/link">
<g id="link">
<path id="Vector" d="M12.9618 28.7201C11.4546 28.979 9.84982 28.7385 8.4242 27.9154C5.1871 26.0465 4.05738 21.8642 5.93251 18.6163L9.02679 13.2569C10.8957 10.0198 15.0888 8.89625 18.3259 10.7652C21.563 12.6341 22.6927 16.8165 20.8176 20.0643L20.7704 20.1459" stroke="#003399" stroke-width="3" stroke-linecap="round" stroke-linejoin="round"/>
<path id="Vector_2" d="M23.031 7.2769C24.5382 7.01802 26.143 7.25852 27.5686 8.0816C30.8057 9.95054 31.9354 14.1329 30.0603 17.3807L26.966 22.7401C25.097 25.9773 20.904 27.1008 17.6669 25.2318C14.4298 23.3629 13.3001 19.1806 15.1752 15.9327L15.2223 15.8511" stroke="#003399" stroke-width="3" stroke-linecap="round" stroke-linejoin="round"/>
</g>
</g>
</svg>
