<svg width="48" height="48" viewBox="0 0 48 48" fill="none" xmlns="http://www.w3.org/2000/svg">
<path fill-rule="evenodd" clip-rule="evenodd" d="M6.12843 6.18934C8.79736 3.5204 12.7911 2.5 17.9391 2.5H21.9391C22.7675 2.5 23.4391 3.17157 23.4391 4C23.4391 4.82843 22.7675 5.5 21.9391 5.5H17.9391C13.087 5.5 10.0808 6.4796 8.24975 8.31066C6.41868 10.1417 5.43909 13.1479 5.43909 18V30C5.43909 34.8521 6.41868 37.8583 8.24975 39.6893C10.0808 41.5204 13.087 42.5 17.9391 42.5H29.9391C34.7911 42.5 37.7974 41.5204 39.6284 39.6893C41.4595 37.8583 42.4391 34.8521 42.4391 30V26C42.4391 25.1716 43.1107 24.5 43.9391 24.5C44.7675 24.5 45.4391 25.1716 45.4391 26V30C45.4391 35.1479 44.4187 39.1417 41.7497 41.8107C39.0808 44.4796 35.087 45.5 29.9391 45.5H17.9391C12.7911 45.5 8.79736 44.4796 6.12843 41.8107C3.45949 39.1417 2.43909 35.1479 2.43909 30V18C2.43909 12.8521 3.45949 8.85828 6.12843 6.18934Z" fill="#003399"/>
<path fill-rule="evenodd" clip-rule="evenodd" d="M41.3647 5.55648C38.4653 6.72409 34.9599 8.81424 31.6507 11.271C28.3372 13.7311 25.3143 16.4889 23.3504 18.9362C23.35 18.9367 23.3495 18.9373 23.349 18.9379L21.4279 21.3469C22.6045 21.7282 23.7149 22.3952 24.6747 23.3535C25.6157 24.2785 26.268 25.3424 26.6451 26.4834L29.0204 24.5892C29.0209 24.5887 29.0215 24.5883 29.0221 24.5878C31.4685 22.6246 34.216 19.6074 36.6658 16.2969C39.116 12.9858 41.1996 9.47434 42.3667 6.56129L42.3684 6.55697C42.4425 6.37368 42.4436 6.22278 42.415 6.09894C42.3845 5.96662 42.3118 5.83316 42.1984 5.71981C42.0075 5.52888 41.7079 5.42881 41.3647 5.55648ZM23.9915 28.2722C23.8547 27.2643 23.4077 26.3134 22.5684 25.4897L22.5584 25.4799L22.5584 25.4798C21.7045 24.6259 20.706 24.1575 19.6905 24.0128C19.3846 23.994 19.1717 23.9838 18.9726 23.9962C18.4686 24.0277 17.9825 23.8035 17.6794 23.3995C17.3762 22.9956 17.2967 22.4663 17.4677 21.9911C17.6982 21.351 18.0397 20.7297 18.5105 20.1937L21.0063 17.0639L21.0091 17.0605C23.1853 14.3481 26.4218 11.4167 29.8624 8.86228C33.303 6.30797 37.0417 4.06085 40.2596 2.76738L40.2825 2.75818L40.2826 2.75837C41.8156 2.17127 43.3524 2.63113 44.3197 3.59849C45.2997 4.57846 45.778 6.12468 45.1506 7.67918C43.8576 10.9056 41.6216 14.6432 39.0773 18.0814C36.5327 21.5202 33.6109 24.7523 30.8978 26.9291L30.8943 26.9319L27.7343 29.4519C27.7227 29.4612 27.711 29.4702 27.6991 29.4792C27.2182 29.8398 26.7003 30.1555 26.0857 30.396C25.624 30.5767 25.1029 30.5176 24.6935 30.2381C24.284 29.9586 24.0391 29.4949 24.0391 28.9992C24.0391 28.7698 24.0241 28.5344 23.9915 28.2722Z" fill="#003399"/>
<path fill-rule="evenodd" clip-rule="evenodd" d="M19.7105 23.9945C19.4046 23.9757 19.1918 23.9655 18.9926 23.9779C18.9711 23.9793 18.9495 23.9801 18.9279 23.9806C16.4811 24.0276 14.2611 25.7711 13.9705 28.4414C13.9704 28.4418 13.9705 28.4409 13.9705 28.4414L13.5506 32.3798L13.5501 32.385C13.4149 33.6127 14.4504 34.6227 15.6319 34.4902L15.6401 34.4893L19.5646 34.0709C20.8084 33.9105 21.8147 33.3822 22.5543 32.6443C23.5351 31.6457 24.0591 30.3456 24.0591 28.9808C24.0591 28.7693 24.0438 28.5143 24.0115 28.2538C23.8759 27.2543 23.4327 26.3158 22.5784 25.4615C21.7245 24.6076 20.726 24.1392 19.7105 23.9945ZM19.9217 21.0018C19.9321 21.0025 19.9425 21.0031 19.9526 21.0038C19.9872 21.0059 20.0216 21.0093 20.0559 21.0138C21.7438 21.2372 23.3672 22.0076 24.6997 23.3402C26.0035 24.644 26.7603 26.1832 26.9857 27.8611L26.9876 27.8748C27.0347 28.2519 27.0591 28.6342 27.0591 28.9808C27.0591 31.1341 26.2246 33.1922 24.6881 34.7531L24.6798 34.7615C23.4626 35.9787 21.8349 36.8075 19.9275 37.049L19.8981 37.0524L15.9618 37.472C12.8662 37.8164 10.225 35.189 10.5678 32.0595C10.5679 32.0586 10.568 32.0576 10.5681 32.0567L10.9878 28.1189C11.4566 23.8019 15.0575 21.0691 18.8389 20.9818C19.2418 20.9592 19.6288 20.9835 19.9217 21.0018Z" fill="#003399"/>
<path fill-rule="evenodd" clip-rule="evenodd" d="M22.5591 16.3809C22.5591 15.5524 23.2307 14.8809 24.0591 14.8809C29.0901 14.8809 33.1391 18.955 33.1391 23.9609C33.1391 24.7893 32.4675 25.4609 31.6391 25.4609C30.8107 25.4609 30.1391 24.7893 30.1391 23.9609C30.1391 20.6067 27.4281 17.8809 24.0591 17.8809C23.2307 17.8809 22.5591 17.2093 22.5591 16.3809Z" fill="#003399"/>
</svg>
