<svg width="50" height="50" viewBox="0 0 50 50" fill="none" xmlns="http://www.w3.org/2000/svg">
<path d="M45.9509 13.4277H4.0499C1.81299 13.4277 0 15.2415 0 17.4777V23.0243L20.655 27.3805V24.6188H29.2265V27.3805L50 22.9966V17.4777C50 15.2415 48.187 13.4277 45.9509 13.4277Z" fill="#005023"/>
<path d="M29.2262 36.0477H20.6547V30.4796L1.42871 26.6612V42.9501C1.42871 45.1862 3.24092 46.9999 5.47705 46.9999H44.5224C46.7585 46.9999 48.5715 45.1862 48.5715 42.9501V26.6328L29.2262 30.4795V36.0477Z" fill="#005023"/>
<path d="M27.0832 26.7627H22.7979V33.9045H27.0832V26.7627Z" fill="#005023"/>
<path d="M18.9247 7.05147C18.9255 6.88516 18.987 6.75293 19.0956 6.64053C19.2057 6.53281 19.3388 6.47275 19.5034 6.47119H30.4973C30.6619 6.47275 30.7959 6.53281 30.906 6.64053C31.0137 6.75293 31.0745 6.88516 31.0752 7.05147V9.94473H34.5465V7.05147C34.5473 5.93721 34.0909 4.91524 33.3607 4.18731C32.6335 3.45635 31.6093 2.99922 30.4973 3H19.5034C18.3907 2.99922 17.3672 3.45635 16.6401 4.18731C15.9107 4.91524 15.4528 5.93711 15.4551 7.05147V9.94473H18.9247V7.05147Z" fill="#005023"/>
</svg>
