<svg width="30" height="29" viewBox="0 0 30 29" fill="none" xmlns="http://www.w3.org/2000/svg">
<g clip-path="url(#clip0_11_8432)">
<path d="M29.1641 14.5C29.1641 6.49187 22.6722 0 14.6641 0C6.65593 0 0.164062 6.49187 0.164062 14.5C0.164062 21.7373 5.46647 27.7361 12.3984 28.8238V18.6914H8.7168V14.5H12.3984V11.3055C12.3984 7.67141 14.5632 5.66406 17.8753 5.66406C19.4618 5.66406 21.1211 5.94727 21.1211 5.94727V9.51562H19.2927C17.4916 9.51562 16.9297 10.6334 16.9297 11.7801V14.5H20.9512L20.3083 18.6914H16.9297V28.8238C23.8617 27.7361 29.1641 21.7375 29.1641 14.5Z" fill="white"/>
<path d="M20.3083 18.6914L20.9512 14.5H16.9297V11.7801C16.9297 10.6334 17.4916 9.51562 19.2927 9.51562H21.1211V5.94727C21.1211 5.94727 19.4618 5.66406 17.8753 5.66406C14.5632 5.66406 12.3984 7.67141 12.3984 11.3055V14.5H8.7168V18.6914H12.3984V28.8238C13.1367 28.9397 13.8932 29 14.6641 29C15.4349 29 16.1914 28.9397 16.9297 28.8238V18.6914H20.3083Z" fill="#003399"/>
</g>
<defs>
<clipPath id="clip0_11_8432">
<rect width="29" height="29" fill="white" transform="translate(0.164062)"/>
</clipPath>
</defs>
</svg>
