<svg width="48" height="48" viewBox="0 0 48 48" fill="none" xmlns="http://www.w3.org/2000/svg">
<path fill-rule="evenodd" clip-rule="evenodd" d="M10.6591 5.51953C9.31458 5.51953 8.11908 6.62012 8.11908 8.25952V12.8995C8.11908 13.2253 8.2386 13.7641 8.51514 14.3806C8.78608 14.9845 9.14656 15.5257 9.49969 15.8789L9.52625 15.9061L17.2063 23.9861C17.2315 24.0127 17.2558 24.0401 17.279 24.0684C17.8045 24.7093 18.2817 25.5545 18.6296 26.4257C18.975 27.2908 19.2391 28.2963 19.2391 29.2595V39.9595C19.2391 41.9382 21.5091 43.1643 23.1993 42.1304L26.0056 40.3192L26.0399 40.2977C26.2405 40.1758 26.5319 39.8712 26.7807 39.3926C27.0254 38.9218 27.1391 38.4539 27.1391 38.1395C27.1391 37.3111 27.8107 36.6395 28.6391 36.6395C29.4675 36.6395 30.1391 37.3111 30.1391 38.1395C30.1391 39.0452 29.8527 39.9873 29.4425 40.7764C29.0394 41.5517 28.4273 42.3505 27.6175 42.8495L24.8125 44.6598L24.7879 44.6754C21.2393 46.8695 16.2391 44.4566 16.2391 39.9595V29.2595C16.2391 28.8028 16.1031 28.1883 15.8435 27.5383C15.5955 26.9173 15.2771 26.3697 14.9905 26.0094L7.36395 17.9857C6.70357 17.3208 6.15923 16.4584 5.77796 15.6085C5.39953 14.7649 5.11908 13.7938 5.11908 12.8995V8.25952C5.11908 5.05892 7.56366 2.51953 10.6591 2.51953H37.3391C40.3874 2.51953 42.8791 5.01105 42.8791 8.05951V12.4995C42.8791 13.5945 42.5433 14.7227 42.1086 15.6749C41.6721 16.6312 41.0735 17.5464 40.4197 18.2002C39.8339 18.786 38.8842 18.786 38.2984 18.2002C37.7126 17.6144 37.7126 16.6647 38.2984 16.0789C38.6446 15.7327 39.056 15.1378 39.3795 14.4291C39.7049 13.7164 39.8791 13.0245 39.8791 12.4995V8.05951C39.8791 6.66797 38.7307 5.51953 37.3391 5.51953H10.6591Z" fill="#003399"/>
<path fill-rule="evenodd" clip-rule="evenodd" d="M32.1391 21.7402C29.4329 21.7402 27.2391 23.9341 27.2391 26.6403C27.2391 29.3464 29.4329 31.5402 32.1391 31.5402C34.8453 31.5402 37.0391 29.3464 37.0391 26.6403C37.0391 23.9341 34.8453 21.7402 32.1391 21.7402ZM24.2391 26.6403C24.2391 22.2772 27.7761 18.7402 32.1391 18.7402C36.5022 18.7402 40.0391 22.2772 40.0391 26.6403C40.0391 31.0033 36.5021 34.5402 32.1391 34.5402C27.7761 34.5402 24.2391 31.0033 24.2391 26.6403Z" fill="#003399"/>
<path fill-rule="evenodd" clip-rule="evenodd" d="M36.6784 31.1796C37.2642 30.5938 38.2139 30.5938 38.7997 31.1796L40.7997 33.1796C41.3855 33.7654 41.3855 34.7151 40.7997 35.3009C40.2139 35.8867 39.2642 35.8867 38.6784 35.3009L36.6784 33.3009C36.0926 32.7151 36.0926 31.7654 36.6784 31.1796Z" fill="#003399"/>
</svg>
