<svg width="400" height="339" viewBox="0 0 400 339" fill="none" xmlns="http://www.w3.org/2000/svg">
<path d="M361.478 161.468C360.088 166.458 359.126 171.555 358.698 176.731C358.03 184.95 357.201 195.304 357.201 195.304C354.715 224.096 342.152 236.238 328.706 243.283C328.706 243.283 328.68 243.283 328.653 243.309C328.653 243.309 328.653 243.309 328.626 243.309C328.626 243.309 328.626 243.309 328.599 243.309C328.466 243.389 328.305 243.469 328.172 243.523C327.209 244.003 326.274 244.483 325.312 244.91C320.741 247.018 316.784 249.34 313.203 251.955C305.344 257.772 299.49 265.111 293.742 275.331C289.118 283.55 285.349 302.095 282.917 317.012C282.917 317.065 282.89 317.119 282.89 317.172C282.729 318.133 282.596 319.067 282.435 319.974C282.409 320.054 282.409 320.134 282.409 320.134C280.778 330.594 279.869 338.573 279.869 338.573H85.4827C90.8823 326.885 96.1483 315.384 100.692 303.403C106.44 288.219 111.064 272.235 113.416 254.063C113.871 250.514 114.432 245.15 114.245 240.107C114.111 236.878 113.71 233.756 112.748 231.381C112.695 231.248 112.641 231.141 112.614 231.034C112.614 231.034 112.614 231.008 112.588 231.008C112.614 231.061 112.614 231.114 112.641 231.195C114.218 237.065 104.194 241.708 96.2284 256.865C88.2092 272.182 79.388 270.234 79.388 270.234C76.5546 272.102 73.9884 273.436 71.6896 274.317C56.1589 280.321 52.7641 266.178 52.7641 266.178C37.287 247.686 53.5126 227.699 53.5126 227.699C54.0472 226.285 54.6086 224.897 55.2501 223.563C60.2488 213.049 68.3749 205.23 73.5874 200.961C76.2872 198.746 78.399 195.944 79.789 192.742C82.4888 186.525 87.2202 188.099 87.2202 188.099C83.1303 182.522 88.423 179.854 88.423 179.854C96.469 147.112 125.846 147.699 125.846 147.699C125.846 147.699 130.818 144.123 138.303 147.539C146.75 151.381 159.58 153.649 168.428 153.809C170.861 153.836 173.186 152.982 175.058 151.461C176.982 149.913 180.136 148.633 183.825 151.942C187.381 155.144 194.865 167.232 230.471 165.07C241.216 164.43 250.866 155.731 257.495 155.01C260.944 154.637 262.254 157.412 262.761 159.333C263.082 160.587 263.884 161.708 264.98 162.429C269.07 165.124 279.228 171.368 290.054 174.543C295.052 176.011 300.372 175.797 305.317 174.143C312.026 171.902 313.871 175.744 313.871 175.744C313.951 172.755 316.865 173.102 316.865 173.102C316.865 173.102 316.223 168.886 317.613 158.986C318.201 154.823 319.11 149.673 320.607 143.402C325.632 122.188 354.02 114.663 357.683 132.915C358.725 138.039 358.378 141.188 358.458 144.923C358.511 146.418 358.618 148.019 358.912 149.887C358.939 149.86 364.178 151.755 361.478 161.468Z" fill="url(#paint0_linear_154_5765)"/>
<path d="M157.738 120.427C157.738 120.427 146.163 130.434 151.135 139.88C151.135 139.88 151.135 137.105 152.258 135.931C152.258 135.931 151.857 142.282 156.989 144.71C156.989 144.71 154.29 137.719 160.331 133.636C160.331 133.636 162.924 137.852 167.602 136.278C167.602 136.278 166.88 137.825 163.939 138.252C163.939 138.252 169.606 140.734 175.247 136.705C175.247 136.705 181.822 140.841 190.403 135.957L250.28 130.914C253.808 115.73 266.238 41.7877 215.102 23.1353C215.102 23.1353 145.896 51.5809 151.242 82.2414C156.588 112.902 157.738 120.427 157.738 120.427Z" fill="#1B1A2E"/>
<path d="M255.729 160.027C253.51 160.321 248.886 160.721 247.522 152.315V152.262L243.138 100.601L187.538 105.297L191.281 149.567C191.949 156.291 181.631 155.17 178.69 155.891C178.61 155.918 178.744 155.864 178.69 155.891C178.69 155.891 183.502 188.233 219.482 188.206C249.286 188.152 255.755 160.027 255.729 160.027Z" fill="#FFC89F"/>
<path d="M209.967 142.469C230.416 140.734 245.599 122.802 243.862 102.388L240.039 57.2382C238.328 36.8246 220.339 21.6678 199.889 23.4023C179.44 25.1368 164.257 43.0688 165.995 63.4824L169.817 108.633C171.555 129.046 189.545 144.203 209.967 142.469Z" fill="#FFC89F"/>
<path d="M190.398 138.786L191.04 146.258C195.771 146.178 203.39 145.751 209.939 141.775C204.486 143.563 195.344 141.508 190.398 138.786Z" fill="#FF9A6C"/>
<path d="M183.657 82.2969C185.475 81.9808 186.693 80.2532 186.376 78.4383C186.059 76.6234 184.329 75.4084 182.511 75.7245C180.693 76.0406 179.475 77.7682 179.792 79.5831C180.109 81.398 181.839 82.613 183.657 82.2969Z" fill="#1B1A2E"/>
<path d="M174.789 77.3052C175.538 76.2912 176.553 75.4907 177.703 74.8769C178.852 74.2899 180.108 73.8896 181.418 73.8362C181.739 73.7829 182.06 73.8362 182.381 73.8362H182.862C183.022 73.8362 183.183 73.8629 183.343 73.8896C183.664 73.943 183.984 73.9963 184.305 74.0497C184.626 74.1297 184.92 74.2365 185.214 74.3432L185.668 74.4766L186.096 74.6634L186.952 75.0637C187.513 75.3839 188.021 75.7308 188.529 76.1044C187.941 75.8909 187.379 75.6508 186.791 75.4373L185.909 75.1704L185.481 75.037L185.027 74.957C184.733 74.9036 184.439 74.8235 184.145 74.7702L183.236 74.6634C183.076 74.6634 182.942 74.6101 182.782 74.6101H182.327C182.033 74.6101 181.739 74.5834 181.445 74.6368C181.151 74.6634 180.857 74.6901 180.563 74.7168C180.269 74.7702 179.975 74.8502 179.681 74.9036C179.387 74.957 179.093 75.0637 178.825 75.1438C178.531 75.2238 178.264 75.3572 177.97 75.4373C176.847 75.9176 175.805 76.5314 174.789 77.3052Z" fill="#1B1A2E"/>
<path d="M218.068 79.3865C219.913 79.3865 221.409 77.8931 221.409 76.0509C221.409 74.2087 219.913 72.7153 218.068 72.7153C216.223 72.7153 214.727 74.2087 214.727 76.0509C214.727 77.8931 216.223 79.3865 218.068 79.3865Z" fill="#1B1A2E"/>
<path d="M209.781 74.3433C210.53 73.3293 211.545 72.5287 212.695 71.915C213.844 71.3279 215.101 70.9277 216.41 70.8743C216.731 70.8209 217.052 70.8743 217.373 70.8743H217.854C218.014 70.8743 218.175 70.901 218.335 70.9277C218.656 70.981 218.977 71.0344 219.297 71.0878C219.618 71.1678 219.912 71.2746 220.206 71.3813L220.661 71.5147L221.088 71.7015L221.944 72.1018C222.505 72.422 223.013 72.7689 223.521 73.1425C222.933 72.929 222.371 72.6889 221.783 72.4754L220.901 72.2085L220.474 72.0751L220.019 71.995C219.725 71.9417 219.431 71.8616 219.137 71.8083L218.228 71.7015C218.068 71.7015 217.934 71.6482 217.774 71.6482H217.319C217.025 71.6482 216.731 71.6215 216.437 71.6748C216.143 71.7015 215.849 71.7282 215.555 71.7549C215.261 71.8083 214.967 71.8883 214.673 71.9417C214.379 71.9951 214.085 72.1018 213.818 72.1818C213.524 72.2619 213.256 72.3953 212.962 72.4754C211.84 72.9557 210.77 73.5694 209.781 74.3433Z" fill="#1B1A2E"/>
<path d="M196.495 90.834C196.575 92.2749 196.602 93.7426 196.575 95.1836C196.548 96.6245 196.495 98.0655 196.415 99.5064C196.361 100.254 196.308 100.921 196.415 101.588C196.495 102.255 196.709 102.922 197.003 103.536C197.324 104.123 197.751 104.683 198.313 105.03C198.928 105.404 199.569 105.751 200.184 106.151C199.489 105.911 198.821 105.671 198.126 105.404C197.404 105.11 196.816 104.523 196.415 103.883C195.987 103.242 195.747 102.495 195.613 101.748C195.452 101.001 195.533 100.2 195.559 99.5064C195.64 98.0655 195.747 96.6245 195.88 95.1836C196.067 93.6892 196.228 92.2483 196.495 90.834Z" fill="#1B1A2E"/>
<path d="M214.646 112.909C214.348 114.05 213.844 115.125 213.177 116.14C211.886 118.175 209.694 119.899 207.097 120.697C205.819 121.099 204.407 121.191 203.101 121.087C202.425 121.053 201.805 120.899 201.143 120.741C200.527 120.546 199.912 120.351 199.394 120.041C197.142 118.908 195.417 117.247 194.438 114.999C196.266 114.994 197.828 115.086 199.227 115.117C199.735 115.133 200.201 115.143 200.672 115.112C201.096 115.118 201.53 115.041 201.954 115.047C202.341 115.006 202.728 114.966 203.115 114.926C203.852 114.799 204.547 114.667 205.204 114.489C206.566 114.097 207.909 113.494 209.499 112.582C210.585 111.992 211.727 111.282 212.968 110.457C213.56 110.104 214.157 109.71 214.796 109.321C215.038 110.564 214.903 111.764 214.646 112.909Z" fill="#E43F5A"/>
<path d="M213.016 110.432C212.811 111.128 212.526 111.773 212.153 112.451C211.104 114.237 209.279 115.766 206.994 116.483C204.756 117.162 202.203 116.875 200.367 115.865C200.01 115.656 199.652 115.446 199.299 115.195C199.806 115.21 200.271 115.22 200.74 115.188C201.164 115.193 201.596 115.115 202.02 115.12C202.406 115.079 202.792 115.037 203.178 114.996C203.913 114.867 204.606 114.734 205.262 114.553C206.621 114.156 207.961 113.545 209.548 112.623C210.6 111.938 211.741 111.22 213.016 110.432Z" fill="white"/>
<path d="M174.016 68.0187C174.123 67.2449 174.47 66.5778 174.871 65.9907C175.085 65.6972 175.299 65.4036 175.566 65.1368C175.7 65.0034 175.833 64.8966 175.967 64.7632C176.101 64.6565 176.234 64.4964 176.395 64.4163C177.571 63.5357 179.041 62.9754 180.538 62.8953C180.912 62.8419 181.286 62.8953 181.661 62.8953L182.222 62.9487C182.409 62.9754 182.596 63.0287 182.757 63.0554C183.104 63.1355 183.478 63.2422 183.826 63.3489C184.173 63.4824 184.494 63.6425 184.815 63.8026C184.975 63.8826 185.136 63.9627 185.296 64.0694C185.456 64.1762 185.59 64.2829 185.724 64.3896C186.018 64.6031 186.285 64.8433 186.552 65.0834C186.82 65.3236 187.034 65.6171 187.247 65.9107C187.461 66.2042 187.648 66.5244 187.809 66.8713C187.034 66.978 186.365 66.9513 185.724 66.9513C185.403 66.9513 185.109 66.978 184.788 66.9513C184.628 66.9513 184.494 66.9513 184.36 66.9247C184.227 66.9247 184.066 66.9513 183.933 66.9513C183.665 66.9513 183.371 66.9513 183.104 66.9513C182.837 66.978 182.569 66.978 182.329 66.978C182.195 66.978 182.062 66.978 181.955 66.978C181.821 67.0047 181.714 67.0047 181.58 67.0047H181.206C181.073 67.0047 180.966 67.0047 180.832 67.0314C179.843 67.0848 178.881 67.2182 177.785 67.3783C176.635 67.5384 175.486 67.7519 174.016 68.0187Z" fill="#1B1A2E"/>
<path d="M208.98 65.0837C209.087 64.3098 209.435 63.6427 209.836 63.0556C210.05 62.7621 210.264 62.4686 210.531 62.2017C210.665 62.0683 210.798 61.9616 210.932 61.8282C211.065 61.7214 211.199 61.5613 211.36 61.4813C212.536 60.6007 214.006 60.0403 215.503 59.9602C215.877 59.9069 216.251 59.9602 216.625 59.9602L217.187 60.0136C217.374 60.0403 217.561 60.0937 217.721 60.1204C218.069 60.2004 218.443 60.3071 218.791 60.4139C219.138 60.5473 219.459 60.7074 219.78 60.8675C219.94 60.9476 220.1 61.0276 220.261 61.1344C220.421 61.2411 220.555 61.3478 220.689 61.4546C220.983 61.6681 221.25 61.9082 221.517 62.1484C221.785 62.3885 221.998 62.6821 222.212 62.9756C222.426 63.2691 222.613 63.5893 222.774 63.9362C221.998 64.043 221.33 64.0163 220.689 64.0163C220.368 64.0163 220.074 64.043 219.753 64.0163C219.593 64.0163 219.459 64.0163 219.325 63.9896C219.192 63.9896 219.031 64.0163 218.898 64.0163C218.63 64.0163 218.336 64.0163 218.069 64.0163C217.802 64.043 217.534 64.043 217.294 64.043C217.16 64.043 217.026 64.043 216.92 64.043C216.786 64.0697 216.679 64.0697 216.545 64.0697H216.171C216.037 64.0697 215.93 64.0697 215.797 64.0963C214.808 64.1497 213.845 64.2831 212.75 64.4432C211.627 64.5767 210.477 64.8168 208.98 65.0837Z" fill="#1B1A2E"/>
<path d="M213.79 27.7518C213.79 27.7518 204.033 25.1101 191.042 37.6518C178.05 50.1935 170.111 71.0074 155.463 80.6405C155.463 80.6405 153.806 116.691 171.02 125.337C171.02 125.337 158.457 128.779 153.645 112.048C153.645 112.048 133.517 97.3184 161.05 37.0647C165.54 23.4023 202.215 -9.63315 245.653 18.0654C245.653 18.0654 266.556 27.1648 275.565 64.4164C275.565 64.4164 297.243 114.77 256.425 129.126C256.425 129.126 245.332 142.042 234.453 134.33C234.453 134.33 241.376 131.475 243.621 128.032C243.621 128.032 230.443 135.637 222.29 130.407C222.29 130.407 238.516 126.431 242.472 118.159C242.472 118.159 235.682 126.271 227.93 118.986C227.93 118.986 257.655 114.557 249.475 74.5031C249.475 74.5031 228.919 86.4578 224.054 61.5611C219.296 37.465 213.79 27.7518 213.79 27.7518Z" fill="url(#paint1_linear_154_5765)"/>
<path d="M153.62 112.101C150.466 110.634 147.926 108.099 146.055 105.163C144.184 102.202 143.115 98.7859 142.714 95.3436C142.393 91.8746 142.687 88.4056 143.275 85.0434C143.863 81.6544 144.665 78.3456 145.681 75.0634L146.483 72.6084C146.75 71.8079 147.044 71.0073 147.338 70.2068C147.926 68.6057 148.514 67.0046 149.103 65.4036C150.305 62.2014 151.508 58.9993 152.765 55.8505C154.048 52.6751 155.331 49.5263 156.694 46.4042C158.057 43.2821 159.421 40.1333 160.971 37.0913L161.078 37.1447C158.806 43.5756 156.454 50.0066 153.994 56.3575C151.508 62.7084 148.889 69.0327 146.296 75.3302C145.093 78.5057 144.104 81.7879 143.623 85.1501C143.489 85.9773 143.436 86.8312 143.355 87.6851L143.302 88.966C143.302 89.3929 143.275 89.8199 143.275 90.2469C143.275 91.928 143.436 93.6091 143.676 95.2902C143.944 96.9447 144.318 98.5724 144.799 100.173C145.307 101.775 145.975 103.296 146.804 104.763C147.632 106.204 148.621 107.565 149.744 108.819C150.305 109.433 150.92 110.047 151.562 110.58C152.203 111.141 152.872 111.648 153.593 112.101H153.62Z" fill="#1B1A2E"/>
<path d="M213.846 27.7251C215.316 30.4202 216.439 33.2755 217.454 36.1841C217.936 37.6251 218.417 39.0927 218.818 40.5603C219.272 42.028 219.62 43.5223 219.967 45.0167C220.288 46.511 220.582 48.0053 220.849 49.5263L221.25 51.7945C221.357 52.5417 221.464 53.3155 221.598 54.0627L223.095 63.1088C223.228 63.8559 223.335 64.6031 223.496 65.3503C223.656 66.0974 223.816 66.8179 224.03 67.5384C224.431 68.9794 224.939 70.3936 225.607 71.7012C226.276 73.0087 227.104 74.2362 228.174 75.1702C229.243 76.1308 230.526 76.7979 231.889 77.1982C233.279 77.5718 234.749 77.7052 236.22 77.6518C237.69 77.5984 239.187 77.3583 240.657 77.0648C243.597 76.451 246.511 75.4637 249.398 74.4497L249.451 74.5564C246.725 75.9707 243.891 77.1715 240.924 78.0254C239.427 78.4524 237.904 78.7459 236.326 78.8793C234.749 78.986 233.145 78.906 231.568 78.479C230.793 78.2656 230.018 77.9454 229.323 77.5451C228.601 77.1448 227.96 76.6645 227.372 76.0774C226.195 74.9567 225.313 73.5958 224.645 72.1548C223.977 70.7138 223.549 69.2195 223.228 67.6985C222.908 66.1775 222.747 64.6298 222.587 63.1354C222.266 60.0934 221.812 57.0781 221.17 54.1161C221.01 53.3689 220.849 52.6217 220.662 51.8746L220.101 49.6598C219.753 48.1654 219.299 46.7245 218.951 45.2301C217.428 39.3329 215.851 33.489 213.766 27.7518L213.846 27.7251Z" fill="#1B1A2E"/>
<path d="M166.585 70.207C165.917 71.3011 165.142 72.3418 164.34 73.3291C163.538 74.3164 162.656 75.2504 161.72 76.1577C160.785 77.0383 159.823 77.8922 158.78 78.6393C157.738 79.4132 156.642 80.107 155.492 80.6407C156.454 79.7868 157.417 78.9595 158.379 78.1323C159.315 77.2784 160.25 76.4245 161.159 75.5439C162.068 74.6633 162.977 73.7828 163.859 72.8755C164.741 71.9949 165.623 71.0876 166.585 70.207Z" fill="#1F4068"/>
<path d="M172.681 123.709C170.703 124.51 168.511 124.83 166.346 124.75C165.25 124.697 164.18 124.51 163.138 124.216C162.095 123.896 161.08 123.443 160.144 122.856C158.273 121.681 156.776 120 155.733 118.106C154.664 116.211 153.996 114.156 153.648 112.048C154.343 114.05 155.172 116.024 156.295 117.759C156.562 118.212 156.883 118.613 157.177 119.04C157.337 119.253 157.498 119.44 157.685 119.627C157.845 119.814 158.032 120.027 158.219 120.187C158.914 120.934 159.743 121.575 160.598 122.135C162.336 123.229 164.341 123.87 166.426 124.083C168.484 124.297 170.623 124.163 172.681 123.709Z" fill="#1F4068"/>
<path d="M260.277 105.617C260.865 105.724 261.427 105.778 261.908 105.671C262.416 105.564 262.817 105.324 263.191 104.977C263.378 104.817 263.539 104.603 263.699 104.417C263.859 104.203 263.993 103.963 264.127 103.75C264.233 103.509 264.394 103.269 264.528 103.002C264.661 102.736 264.795 102.495 264.955 102.229C264.982 102.522 264.955 102.816 264.928 103.109C264.902 103.403 264.795 103.696 264.741 103.99C264.715 104.15 264.634 104.283 264.581 104.417C264.501 104.55 264.474 104.71 264.367 104.844C264.207 105.11 264.02 105.377 263.779 105.591C263.325 106.044 262.63 106.338 261.988 106.311C261.293 106.311 260.678 106.044 260.277 105.617Z" fill="#1F4068"/>
<path d="M247.176 98.4122L245.252 98.5723C241.456 98.8926 238.115 96.064 237.794 92.2748L236.751 79.9999C236.431 76.2107 239.264 72.8752 243.06 72.5549L244.984 72.3948C248.78 72.0746 252.122 74.9032 252.442 78.6924L253.485 90.9673C253.806 94.7565 250.972 98.092 247.176 98.4122Z" fill="#FFC89F"/>
<path d="M244.531 79.7596C245.333 79.6529 246.242 79.8663 246.937 80.4C247.284 80.6669 247.605 80.9604 247.872 81.3073C248.14 81.6542 248.354 82.0278 248.541 82.428C248.915 83.2019 249.102 84.0558 249.182 84.9364C249.236 85.7903 249.156 86.6709 248.915 87.5248C248.648 88.3787 248.247 89.1792 247.605 89.8463C247.284 90.1666 246.964 90.4601 246.482 90.7002C246.242 90.807 245.948 90.9137 245.6 90.8604C245.253 90.807 244.959 90.5935 244.798 90.38C244.451 89.9264 244.344 89.4994 244.291 89.0725C244.21 88.6455 244.184 88.2186 244.184 87.8183C244.184 86.9911 244.264 86.1906 244.451 85.39C244.531 86.1906 244.638 86.9911 244.772 87.7649C244.852 88.1385 244.932 88.5388 245.039 88.8857C245.146 89.2326 245.306 89.5795 245.493 89.7663C245.574 89.8463 245.654 89.873 245.707 89.873C245.761 89.873 245.868 89.8463 246.001 89.7663C246.242 89.6329 246.536 89.366 246.75 89.0992C247.204 88.5655 247.525 87.9251 247.739 87.2046C247.953 86.5108 248.033 85.7636 248.006 85.0164C248.006 84.2693 247.872 83.5221 247.632 82.8283C247.391 82.1345 247.044 81.4407 246.536 80.907C246.028 80.2933 245.333 79.9197 244.531 79.7596Z" fill="#FF9A6C"/>
<path d="M243.115 83.1487C242.714 82.7751 242.473 82.3215 242.313 81.8145C242.153 81.3341 242.072 80.8004 242.153 80.2401C242.206 79.9732 242.286 79.6797 242.42 79.3862C242.58 79.1193 242.794 78.8525 243.088 78.6924C243.676 78.3722 244.318 78.4789 244.745 78.7991C244.238 79.0126 243.863 79.2261 243.676 79.4929C243.489 79.7331 243.436 80.0533 243.355 80.4269C243.302 80.8004 243.275 81.2541 243.249 81.7077C243.249 82.1347 243.222 82.615 243.115 83.1487Z" fill="#FF9A6C"/>
<path d="M221.796 85.6994C224.709 85.4537 226.998 84.4094 226.91 83.3668C226.822 82.3242 224.389 81.6782 221.477 81.9238C218.564 82.1695 216.275 83.2138 216.363 84.2564C216.451 85.299 218.884 85.9451 221.796 85.6994Z" fill="#FF9A6C"/>
<path d="M178.683 89.3556C181.596 89.1099 183.885 88.0656 183.797 87.023C183.709 85.9804 181.276 85.3344 178.364 85.5801C175.451 85.8257 173.161 86.8701 173.25 87.9127C173.338 88.9553 175.771 89.6013 178.683 89.3556Z" fill="#FF9A6C"/>
<g opacity="0.4">
<path d="M227.934 338.6C227.934 338.6 258.781 306.151 270.355 279.387C270.355 279.387 251.991 323.256 242.154 338.6H227.934Z" fill="#292160"/>
</g>
<g opacity="0.4">
<path d="M299.197 190.928C299.197 190.928 289.494 211.662 282.811 233.783C276.129 255.905 274.712 270.581 270.328 279.414C270.328 279.414 282.785 252.355 287.97 228.633C293.156 204.91 299.197 190.928 299.197 190.928Z" fill="#292160"/>
</g>
<g opacity="0.4">
<path d="M328.173 243.523C327.21 244.003 326.275 244.483 325.312 244.91C320.741 247.018 316.785 249.34 313.203 251.955C307.536 256.118 302.939 261.108 298.662 267.352C294.946 272.769 291.124 278.106 287.114 283.309C283.051 288.566 278.747 294.971 273.08 304.417C268.429 312.209 255.919 334.864 255.117 336.438C256.16 334.17 276.475 289.981 282.409 268.9C288.424 247.499 300.827 194.503 301.121 193.276C301.014 193.943 298.154 210.221 296.416 226.205C295.989 230.181 294.251 242.535 301.896 246.938C309.835 251.501 321.917 246.245 328.173 243.523Z" fill="#292160"/>
</g>
<g opacity="0.4">
<path d="M313.229 176.598C313.229 176.598 299.57 194.157 300.666 218.893C300.666 218.893 296.148 196.958 313.229 176.598Z" fill="#292160"/>
</g>
<g opacity="0.4">
<path d="M313.231 178.092C313.231 178.092 308.526 190.581 315.637 203.096C315.637 203.096 302.512 195.357 313.231 178.092Z" fill="#292160"/>
</g>
<g opacity="0.4">
<path d="M356.882 183.136C356.882 183.136 354.61 203.763 329.43 209.287C329.403 209.26 353.541 209.233 356.882 183.136Z" fill="#292160"/>
</g>
<g opacity="0.4">
<path d="M355.625 203.576C355.625 203.576 353.567 221.241 331.941 235.144C331.915 235.171 351.722 228.82 355.625 203.576Z" fill="#292160"/>
</g>
<g opacity="0.4">
<path d="M137.315 171.474C137.288 171.288 137.261 171.101 137.234 170.914C137.234 171.101 137.288 171.261 137.315 171.474Z" fill="#292160"/>
</g>
<g opacity="0.4">
<path d="M124.085 232.369C123.978 225.965 125.742 219.64 129.164 214.197C140.07 196.878 138.519 179.08 137.343 171.528C139.214 184.924 132.665 202.802 129.645 191.115C125.314 174.383 115.558 170.087 115.076 169.9C115.424 170.114 123.924 175.531 126.731 187.192C127.426 190.101 127.185 194.557 121.919 189.247C109.944 177.185 94.3867 179.614 94.3867 179.614C94.3867 179.614 135.419 179.614 118.872 221.375C119.647 229.113 112.617 231.008 112.617 231.008C112.671 231.115 112.724 231.248 112.751 231.355C113.686 233.756 114.114 236.852 114.248 240.081C114.274 240.054 114.355 240.054 114.355 240.001C114.141 233.543 120.155 229.62 121.679 243.523C124.566 270.154 133.494 284.804 133.494 284.804C126.036 268.953 124.299 246.965 124.085 232.369Z" fill="#292160"/>
</g>
<path d="M93.1836 201.922C96.0705 202.322 98.8773 203.416 101.363 204.991C103.849 206.565 105.988 208.673 107.645 211.128C108.447 212.356 109.142 213.663 109.703 215.024C109.837 215.371 109.971 215.718 110.104 216.065C110.238 216.412 110.372 216.758 110.452 217.105L110.772 218.173C110.879 218.52 110.933 218.893 111.04 219.24C111.708 222.095 111.922 225.031 111.815 227.966C111.708 225.057 111.361 222.149 110.639 219.347C110.291 217.933 109.81 216.572 109.249 215.237C108.687 213.903 107.992 212.649 107.191 211.448C105.587 209.047 103.528 206.965 101.149 205.337C99.9465 204.537 98.6901 203.816 97.3536 203.256C95.9903 202.696 94.6003 202.215 93.1836 201.922Z" fill="#292160"/>
<g opacity="0.4">
<path d="M121.332 262.789C121.332 262.789 125.021 306.018 143.839 338.6H131.303C131.303 338.6 123.631 308.927 121.332 262.789Z" fill="#292160"/>
</g>
<g opacity="0.4">
<path d="M114.595 292.916C114.595 292.916 108.126 315.118 113.74 338.6H107.324C107.324 338.6 107.966 314.13 114.595 292.916Z" fill="#292160"/>
</g>
<g opacity="0.4">
<path d="M358.485 144.897C358.485 144.897 340.522 178.466 324.724 152.502C323.254 150.1 319.806 146.792 320.635 143.349C325.66 122.135 354.048 114.61 357.71 132.862C358.726 138.012 358.379 141.161 358.485 144.897Z" fill="#292160"/>
</g>
<g opacity="0.4">
<path d="M52.7915 266.151C37.3143 247.659 53.5399 227.672 53.5399 227.672C54.0745 226.258 54.6359 224.87 55.2774 223.536C67.6538 219.267 81.2598 219.453 92.5402 231.648C92.5402 231.648 98.9823 250.941 73.4544 269.994C58.9128 280.828 52.7915 266.151 52.7915 266.151Z" fill="#292160"/>
</g>
<path d="M118.845 221.401C119.085 222.415 119.059 223.509 118.898 224.55C118.738 225.591 118.337 226.632 117.776 227.539C117.482 227.992 117.134 228.419 116.76 228.793C116.386 229.167 115.958 229.513 115.504 229.807C114.595 230.394 113.606 230.794 112.59 231.008C113.552 230.581 114.461 230.074 115.263 229.46C116.065 228.846 116.76 228.099 117.294 227.245C117.829 226.391 118.23 225.431 118.471 224.443C118.738 223.483 118.872 222.442 118.845 221.401Z" fill="#292160"/>
<path d="M94.3594 179.613C96.8721 179.56 99.3848 179.853 101.844 180.334C104.303 180.841 106.736 181.561 109.035 182.602C111.333 183.643 113.472 185.003 115.37 186.631C117.294 188.259 118.952 190.18 120.208 192.342C121.491 194.503 122.293 196.958 122.694 199.44C122.881 200.694 123.015 201.948 123.042 203.202C123.068 204.456 123.015 205.711 122.881 206.965C122.748 208.219 122.56 209.446 122.32 210.701C122.186 211.314 122.053 211.928 121.892 212.542C121.732 213.156 121.571 213.769 121.411 214.356C120.716 216.758 119.861 219.106 118.845 221.401L118.791 221.374C119.62 219.026 120.395 216.651 121.01 214.223C121.625 211.821 122.079 209.366 122.32 206.911C122.453 205.684 122.48 204.43 122.48 203.202C122.48 201.975 122.373 200.721 122.186 199.52C121.812 197.092 121.09 194.69 119.941 192.502C118.791 190.314 117.161 188.366 115.236 186.765C113.312 185.19 111.093 183.963 108.821 183.002C106.522 182.041 104.143 181.294 101.737 180.734C100.534 180.467 99.3046 180.227 98.075 180.04C96.8453 179.853 95.589 179.72 94.3594 179.64V179.613Z" fill="#292160"/>
<path d="M115.047 169.927C116.677 170.941 118.121 172.222 119.484 173.583C120.821 174.97 122.024 176.491 123.066 178.092C125.178 181.321 126.568 185.004 127.316 188.793C127.637 190.687 127.824 192.609 127.824 194.557C127.824 195.037 127.797 195.517 127.797 195.998L127.771 196.718C127.771 196.958 127.744 197.198 127.717 197.438L127.584 198.879C127.53 199.36 127.45 199.84 127.37 200.294C127.102 202.188 126.648 204.056 126.113 205.924C125.846 206.831 125.525 207.739 125.231 208.646C124.884 209.553 124.536 210.434 124.189 211.314L125.098 208.593C125.365 207.659 125.632 206.751 125.873 205.844C126.327 204.003 126.728 202.135 126.969 200.24C127.236 198.346 127.316 196.451 127.343 194.557C127.316 192.662 127.129 190.767 126.782 188.899C126.434 187.032 125.926 185.19 125.258 183.429C124.59 181.668 123.708 179.96 122.745 178.332C121.756 176.705 120.607 175.184 119.324 173.769C118.014 172.328 116.624 171.021 115.047 169.927Z" fill="#292160"/>
<path d="M136.675 168.299C137.69 172.275 138.145 176.385 138.252 180.494C138.332 182.549 138.252 184.604 138.118 186.658C137.985 188.713 137.744 190.768 137.423 192.796C137.076 194.824 136.621 196.852 136.087 198.826L135.659 200.321C135.579 200.561 135.525 200.828 135.445 201.068L135.205 201.788C135.044 202.269 134.884 202.776 134.697 203.256L134.135 204.697C132.612 208.513 130.634 212.169 128.281 215.531C129.35 213.77 130.42 212.035 131.302 210.167C131.783 209.26 132.184 208.326 132.612 207.392C132.825 206.938 133.013 206.458 133.2 205.978C133.387 205.498 133.601 205.044 133.761 204.564C134.483 202.642 135.098 200.694 135.632 198.72C136.14 196.745 136.568 194.744 136.915 192.716C137.584 188.686 137.878 184.604 137.851 180.494C137.851 178.439 137.744 176.411 137.53 174.357C137.343 172.355 137.076 170.327 136.675 168.299Z" fill="#292160"/>
<path d="M293.155 175.611C292.193 175.691 291.231 175.798 290.295 175.931C289.36 176.065 288.397 176.251 287.462 176.438C285.591 176.838 283.746 177.345 281.955 177.986C281.046 178.306 280.191 178.68 279.336 179.08C278.48 179.48 277.651 179.934 276.823 180.414C275.192 181.401 273.695 182.576 272.332 183.936C272.653 183.563 272.92 183.189 273.268 182.842C273.428 182.682 273.588 182.495 273.775 182.309L274.31 181.802C275.032 181.161 275.78 180.548 276.609 180.014C278.213 178.946 279.977 178.093 281.795 177.425C282.704 177.105 283.639 176.812 284.575 176.572C285.51 176.331 286.446 176.118 287.408 175.984C289.306 175.691 291.231 175.531 293.155 175.611Z" fill="#292160"/>
<path d="M158.621 158.826C157.471 157.946 156.376 157.038 155.226 156.211C154.077 155.357 152.901 154.557 151.698 153.809C150.495 153.062 149.238 152.369 147.982 151.728C146.699 151.088 145.416 150.474 144.133 149.833C145.496 150.26 146.859 150.767 148.169 151.355C149.479 151.942 150.762 152.609 151.992 153.356C153.221 154.103 154.397 154.957 155.493 155.864C156.589 156.798 157.632 157.785 158.621 158.826Z" fill="#292160"/>
<path d="M247.634 187.939C244.453 190.688 240.951 193.063 237.182 194.957C235.284 195.891 233.359 196.718 231.355 197.385C229.35 198.079 227.318 198.586 225.233 198.987C223.148 199.36 221.063 199.574 218.951 199.654C218.417 199.68 217.909 199.68 217.374 199.68C216.84 199.68 216.332 199.654 215.797 199.654C215.263 199.654 214.755 199.6 214.22 199.574C213.685 199.547 213.178 199.494 212.643 199.44C208.473 198.987 204.33 198.026 200.427 196.478C196.498 194.93 192.809 192.849 189.467 190.261C186.126 187.672 183.159 184.63 180.673 181.215C175.674 174.41 172.734 166.165 172.199 157.786H172.253C172.707 161.948 173.669 166.058 175.166 169.954C175.915 171.902 176.77 173.796 177.786 175.638C178.802 177.452 179.898 179.24 181.127 180.921C183.613 184.283 186.5 187.299 189.788 189.887C193.076 192.476 196.685 194.61 200.534 196.238C204.383 197.866 208.5 198.906 212.67 199.307C213.204 199.36 213.712 199.413 214.247 199.413C214.781 199.44 215.289 199.467 215.824 199.467C216.359 199.467 216.866 199.494 217.401 199.467C217.936 199.467 218.444 199.44 218.978 199.413C221.063 199.307 223.148 199.013 225.18 198.613C227.238 198.213 229.243 197.652 231.221 197.012C233.199 196.345 235.15 195.571 237.021 194.637C240.791 192.822 244.319 190.528 247.607 187.939H247.634Z" fill="#292160"/>
<path d="M313.23 176.598C312.161 178.146 311.198 179.747 310.29 181.375C309.381 183.002 308.525 184.657 307.75 186.365C306.975 188.072 306.226 189.78 305.558 191.515C304.89 193.249 304.302 195.037 303.767 196.825C303.206 198.613 302.751 200.427 302.351 202.242C301.95 204.057 301.656 205.898 301.361 207.739C301.121 209.58 300.907 211.448 300.827 213.316C300.747 214.25 300.747 215.184 300.693 216.118C300.666 216.598 300.693 217.052 300.693 217.532V218.946C300.56 217.079 300.506 215.211 300.56 213.343C300.586 211.475 300.773 209.607 300.961 207.739C301.415 204.003 302.19 200.321 303.259 196.718C304.355 193.116 305.719 189.62 307.376 186.258C309.033 182.816 310.904 179.56 313.23 176.598Z" fill="#292160"/>
<path d="M93.1836 201.922C96.0705 202.322 98.8773 203.416 101.363 204.991C103.849 206.565 105.988 208.673 107.645 211.128C108.447 212.356 109.142 213.663 109.703 215.024C109.837 215.371 109.971 215.718 110.104 216.065C110.238 216.412 110.372 216.758 110.452 217.105L110.772 218.173C110.879 218.52 110.933 218.893 111.04 219.24C111.708 222.095 111.922 225.031 111.815 227.966C111.708 225.057 111.361 222.149 110.639 219.347C110.291 217.933 109.81 216.572 109.249 215.237C108.687 213.903 107.992 212.649 107.191 211.448C105.587 209.047 103.528 206.965 101.149 205.337C99.9465 204.537 98.6901 203.816 97.3536 203.256C95.9903 202.696 94.6003 202.215 93.1836 201.922Z" fill="#292160"/>
<path d="M87.2227 188.072C89.1473 188.152 91.0719 188.526 92.9163 189.086C94.7608 189.647 96.5784 190.421 98.2358 191.435C99.8931 192.449 101.417 193.676 102.727 195.144C104.036 196.585 105.052 198.266 105.801 200.054C105.319 199.226 104.838 198.399 104.25 197.625C103.983 197.225 103.662 196.878 103.368 196.505L102.887 195.971L102.646 195.704L102.406 195.437C101.764 194.743 101.042 194.13 100.294 193.516C99.5456 192.929 98.7704 192.395 97.9417 191.888C97.1398 191.381 96.2844 190.954 95.429 190.554C94.5736 190.154 93.6915 189.807 92.7827 189.487C91.8738 189.166 90.965 188.899 90.0294 188.659C89.1205 188.392 88.185 188.206 87.2227 188.072Z" fill="#292160"/>
<path d="M89.172 256.865C88.9315 258.253 88.4236 259.587 87.8088 260.841C87.194 262.122 86.4188 263.296 85.5901 264.444C84.708 265.564 83.7991 266.632 82.7566 267.566L82.3824 267.939L81.9815 268.286L81.1795 268.953C80.6182 269.38 80.0568 269.781 79.4688 270.181C79.9766 269.7 80.5113 269.22 81.0191 268.74L81.7676 267.993L82.1418 267.619L82.4893 267.246C82.7299 266.979 82.9705 266.739 83.2111 266.498C83.4516 266.232 83.6655 265.965 83.9061 265.724C84.3872 265.217 84.7882 264.657 85.2159 264.123C86.0445 263.003 86.8197 261.855 87.5147 260.654C88.1028 259.454 88.7176 258.199 89.172 256.865Z" fill="#292160"/>
<path d="M301.204 187.192C300.108 189.327 299.092 191.515 298.076 193.703C297.568 194.797 297.06 195.891 296.606 196.985L295.884 198.64L295.189 200.294C293.318 204.724 291.5 209.18 289.843 213.69C289.415 214.81 289.014 215.931 288.587 217.079L287.972 218.76L287.384 220.467L286.208 223.883L285.085 227.299C283.561 231.862 282.171 236.478 280.781 241.068C281.075 239.894 281.369 238.746 281.69 237.572C282.011 236.398 282.278 235.251 282.626 234.077C283.294 231.755 283.935 229.46 284.684 227.165C285.031 226.018 285.406 224.87 285.78 223.723L286.956 220.307L287.544 218.6L288.159 216.892C288.56 215.771 288.961 214.624 289.389 213.503L290.698 210.141C291.126 209.02 291.607 207.899 292.035 206.778C292.489 205.658 292.944 204.564 293.425 203.443L294.12 201.788L294.868 200.134L295.617 198.479L296.392 196.852C296.9 195.758 297.408 194.664 297.942 193.596C298.931 191.435 300.001 189.273 301.204 187.192Z" fill="#292160"/>
<path d="M301.175 193.303C301.041 194.957 300.907 196.612 300.694 198.239C300.587 199.067 300.48 199.894 300.373 200.694C300.266 201.522 300.132 202.322 299.999 203.149L299.544 205.604C299.384 206.432 299.25 207.232 299.09 208.059C298.822 209.687 298.582 211.341 298.368 212.969C298.154 214.624 297.94 216.251 297.726 217.906L297.085 222.816C296.657 226.098 296.256 229.38 296.123 232.689H296.069C295.882 229.38 296.149 226.045 296.523 222.762C296.737 221.108 296.978 219.48 297.245 217.852C297.513 216.225 297.807 214.597 298.101 212.969C298.395 211.341 298.689 209.714 298.929 208.059C299.17 206.432 299.33 204.777 299.544 203.123C299.758 201.468 300.025 199.84 300.266 198.213C300.533 196.585 300.8 194.93 301.094 193.303H301.175Z" fill="#292160"/>
<path d="M313.232 178.092C312.937 179.133 312.697 180.174 312.51 181.241C312.323 182.308 312.189 183.349 312.082 184.417C311.895 186.551 311.895 188.686 312.082 190.821C312.269 192.956 312.67 195.064 313.258 197.118C313.873 199.173 314.648 201.174 315.611 203.096C314.461 201.281 313.526 199.306 312.857 197.252C312.51 196.211 312.242 195.17 312.029 194.103C311.815 193.036 311.654 191.968 311.547 190.874C311.467 189.78 311.414 188.713 311.441 187.619C311.467 186.525 311.547 185.457 311.681 184.39C311.948 182.228 312.43 180.094 313.232 178.092Z" fill="#292160"/>
<path d="M316.895 173.076C317.055 174.303 317.296 175.531 317.59 176.705C317.91 177.906 318.311 179.053 318.819 180.174C319.06 180.734 319.354 181.268 319.675 181.802C319.995 182.335 320.343 182.816 320.717 183.296C321.492 184.257 322.401 185.084 323.417 185.804C322.294 185.271 321.252 184.523 320.396 183.589C319.541 182.655 318.846 181.561 318.311 180.441C318.044 179.854 317.83 179.266 317.616 178.679C317.429 178.066 317.269 177.479 317.162 176.865C316.948 175.557 316.814 174.303 316.895 173.076Z" fill="#292160"/>
<path d="M358.913 149.994C358.111 152.155 356.774 154.103 355.197 155.784C353.62 157.465 351.722 158.88 349.664 159.92C348.621 160.427 347.552 160.908 346.456 161.255C345.36 161.601 344.237 161.895 343.088 162.082C340.816 162.482 338.49 162.562 336.191 162.375C338.49 162.349 340.762 162.135 343.008 161.681C345.226 161.228 347.392 160.481 349.423 159.467C351.428 158.426 353.299 157.092 354.903 155.491C355.705 154.69 356.453 153.836 357.122 152.929C357.817 151.995 358.405 151.008 358.913 149.994Z" fill="#292160"/>
<path d="M356.882 183.136C356.481 186.471 355.305 189.7 353.701 192.689C352.899 194.183 351.964 195.597 350.921 196.932C349.879 198.266 348.729 199.52 347.473 200.667C347.179 200.961 346.831 201.228 346.511 201.495C346.19 201.762 345.869 202.055 345.522 202.295L344.506 203.069L343.463 203.79C343.276 203.896 343.116 204.03 342.929 204.136L342.394 204.457C342.02 204.67 341.672 204.91 341.298 205.097C340.55 205.497 339.828 205.924 339.026 206.245L337.877 206.778L336.7 207.232C335.925 207.552 335.123 207.792 334.321 208.086C333.92 208.219 333.519 208.326 333.119 208.433L331.889 208.753C331.06 208.94 330.232 209.126 329.43 209.287L331.862 208.619L333.065 208.219C333.466 208.086 333.867 207.979 334.268 207.819C335.043 207.525 335.845 207.259 336.62 206.912L337.77 206.405L338.892 205.844C339.267 205.657 339.641 205.471 340.015 205.257L341.111 204.67C341.485 204.457 341.833 204.243 342.18 204.03L342.715 203.71C342.902 203.603 343.062 203.469 343.223 203.363L344.239 202.642L345.228 201.868C345.575 201.628 345.869 201.335 346.19 201.068C346.511 200.801 346.831 200.534 347.125 200.241C349.611 198.026 351.696 195.357 353.354 192.475C354.182 191.034 354.904 189.513 355.492 187.966C356.08 186.391 356.588 184.79 356.882 183.136Z" fill="#292160"/>
<path d="M355.626 203.576C355.545 204.43 355.358 205.257 355.171 206.085C354.984 206.912 354.743 207.712 354.476 208.539C353.941 210.141 353.3 211.715 352.578 213.263C351.135 216.331 349.264 219.187 347.205 221.882C345.067 224.524 342.741 227.005 340.175 229.22C339.854 229.487 339.534 229.78 339.213 230.047L338.224 230.848C337.582 231.381 336.887 231.888 336.192 232.395C335.497 232.902 334.802 233.356 334.107 233.836C333.412 234.29 332.69 234.744 331.969 235.197L334.027 233.73C334.695 233.223 335.39 232.716 336.032 232.182C336.7 231.648 337.368 231.141 338.01 230.581L338.972 229.754C339.293 229.487 339.587 229.193 339.908 228.9C340.549 228.339 341.137 227.752 341.752 227.165C342.073 226.872 342.34 226.578 342.634 226.285C342.928 225.991 343.222 225.698 343.516 225.377C344.666 224.15 345.762 222.869 346.804 221.562C347.847 220.227 348.836 218.866 349.745 217.452C350.654 216.038 351.482 214.57 352.257 213.076C353.033 211.582 353.701 210.034 354.262 208.459C354.824 206.858 355.305 205.257 355.626 203.576Z" fill="#292160"/>
<path d="M227.934 338.6C229.591 336.759 231.248 334.918 232.879 333.023C233.707 332.089 234.509 331.155 235.311 330.194L237.717 327.339C240.898 323.523 244.052 319.681 247.073 315.758C250.147 311.862 253.061 307.86 255.947 303.83L258.086 300.788C258.808 299.774 259.449 298.733 260.144 297.693L261.187 296.145C261.534 295.638 261.855 295.104 262.176 294.571L264.181 291.422C261.721 295.745 259.102 299.961 256.295 304.07C255.627 305.111 254.878 306.098 254.157 307.139C253.435 308.153 252.713 309.167 251.965 310.154L249.746 313.143L247.474 316.105C244.4 320.001 241.272 323.87 238.011 327.606L235.552 330.408C234.723 331.342 233.895 332.276 233.066 333.183C232.237 334.09 231.382 334.998 230.526 335.905C229.671 336.839 228.789 337.72 227.934 338.6Z" fill="#292160"/>
<path d="M289.414 242.135C289.147 244.27 288.719 246.378 288.264 248.459C288.024 249.5 287.81 250.567 287.543 251.608L286.767 254.73L285.912 257.826L285.484 259.373C285.351 259.88 285.19 260.414 285.03 260.921C284.415 262.976 283.8 265.03 283.105 267.058L282.09 270.1C281.769 271.114 281.395 272.128 281.02 273.142L278.855 279.2C278.107 281.201 277.385 283.229 276.663 285.257C275.941 287.285 275.166 289.287 274.418 291.288C272.974 295.317 271.344 299.293 269.767 303.296C268.163 307.272 266.479 311.221 264.821 315.171C263.084 319.093 261.346 323.016 259.555 326.912C257.738 330.808 255.893 334.677 254.022 338.546L253.969 338.519C255.68 334.597 257.417 330.648 259.155 326.752C260.01 324.777 260.865 322.802 261.721 320.854C262.576 318.88 263.431 316.932 264.287 314.957L266.773 309.033L268.029 306.071L268.671 304.603L269.286 303.109C270.889 299.133 272.573 295.184 274.124 291.181L275.3 288.193C275.701 287.205 276.102 286.191 276.449 285.177C277.198 283.176 277.92 281.148 278.641 279.12C279.363 277.092 280.005 275.064 280.7 273.009C281.395 270.981 281.983 268.926 282.651 266.872C283.319 264.844 283.907 262.762 284.522 260.734C284.682 260.227 284.843 259.72 284.977 259.186L285.431 257.639L286.313 254.543L287.142 251.448C287.436 250.407 287.676 249.367 287.944 248.326C288.077 247.819 288.184 247.285 288.318 246.751L288.692 245.177C288.906 244.136 289.147 243.069 289.334 242.028L289.414 242.135Z" fill="#292160"/>
<path d="M121.359 262.789C122.161 269.38 123.283 275.918 124.513 282.429L124.967 284.884L125.449 287.312L125.956 289.74C126.117 290.541 126.331 291.368 126.518 292.169C126.892 293.796 127.32 295.398 127.747 296.999C127.961 297.799 128.175 298.6 128.416 299.4L129.111 301.775C130.1 304.951 131.089 308.099 132.185 311.221C133.281 314.344 134.43 317.466 135.66 320.534C138.092 326.698 140.846 332.729 143.893 338.626L143.839 338.653C142.182 335.771 140.578 332.863 139.161 329.874L138.627 328.753L138.119 327.632L137.076 325.364C136.408 323.843 135.767 322.322 135.152 320.775C134.537 319.227 133.922 317.679 133.361 316.131C133.067 315.358 132.8 314.557 132.532 313.783C132.265 313.009 131.971 312.209 131.73 311.435L130.955 309.06L130.233 306.685C129.993 305.885 129.752 305.084 129.538 304.283C129.325 303.483 129.084 302.682 128.87 301.882C127.988 298.68 127.186 295.451 126.384 292.249L125.208 287.419L124.647 284.991L124.112 282.562C123.791 280.935 123.47 279.307 123.176 277.679C122.909 276.051 122.642 274.397 122.401 272.769C121.947 269.487 121.546 266.178 121.332 262.869L121.359 262.789Z" fill="#292160"/>
<path d="M114.62 292.916C114.193 294.784 113.819 296.679 113.498 298.546L113.257 299.961C113.177 300.441 113.097 300.895 113.017 301.375C112.883 302.336 112.723 303.27 112.589 304.23C112.295 306.125 112.054 308.019 111.867 309.941C111.787 310.901 111.76 311.862 111.707 312.823C111.68 313.303 111.68 313.783 111.68 314.264V315.705C111.68 316.185 111.68 316.665 111.68 317.146L111.734 318.587L111.787 320.028C111.814 320.508 111.814 320.988 111.84 321.468C111.974 323.39 112.054 325.284 112.268 327.206L112.402 328.647C112.455 329.127 112.482 329.607 112.562 330.088L112.91 332.943C112.99 333.423 113.017 333.903 113.097 334.357L113.337 335.771C113.498 336.705 113.631 337.666 113.792 338.627H113.738C113.525 337.693 113.284 336.759 113.07 335.825C112.856 334.891 112.642 333.957 112.509 332.996L112.054 330.141C112.028 329.901 111.974 329.661 111.947 329.42L111.867 328.7L111.707 327.259C111.306 323.416 111.226 319.574 111.386 315.731L111.52 312.849C111.573 311.889 111.653 310.928 111.707 309.967L111.894 307.086L111.947 306.365L112.028 305.645L112.161 304.204C112.616 300.388 113.364 296.572 114.567 292.916H114.62Z" fill="#292160"/>
<path d="M124.298 227.966C124.298 230.394 124.352 232.796 124.459 235.224C124.539 237.626 124.672 240.054 124.86 242.456C125.047 244.857 125.234 247.259 125.474 249.66C125.715 252.062 126.036 254.464 126.383 256.838C126.704 259.24 127.105 261.615 127.559 263.99C128.014 266.365 128.548 268.713 129.083 271.061C129.644 273.41 130.313 275.731 131.034 278.026C131.756 280.321 132.585 282.589 133.494 284.831C132.478 282.642 131.596 280.374 130.767 278.106C129.992 275.811 129.297 273.49 128.682 271.141C127.452 266.445 126.57 261.695 125.849 256.892C125.18 252.089 124.699 247.285 124.459 242.429C124.325 240.001 124.245 237.599 124.218 235.171C124.191 232.796 124.191 230.394 124.298 227.966Z" fill="#292160"/>
<path d="M249.211 186.445C250.04 185.671 250.842 184.897 251.59 184.043C252.365 183.216 253.087 182.362 253.809 181.481C255.225 179.72 256.508 177.879 257.658 175.958C258.807 174.036 259.796 172.008 260.625 169.927C261.026 168.886 261.4 167.819 261.721 166.751C262.068 165.684 262.282 164.563 262.55 163.469C262.309 165.711 261.801 167.952 261.026 170.087L260.732 170.888L260.411 171.688C260.304 171.955 260.197 172.222 260.064 172.462C259.957 172.729 259.823 172.996 259.716 173.236C259.235 174.25 258.674 175.264 258.112 176.251C256.936 178.199 255.6 180.04 254.129 181.775C252.632 183.483 251.002 185.084 249.211 186.445Z" fill="#292160"/>
<path d="M218.256 189.353L218.229 191.488C218.229 192.182 218.229 192.902 218.229 193.596C218.229 193.943 218.229 194.29 218.229 194.663V195.197C218.229 195.384 218.229 195.544 218.229 195.731C218.229 196.451 218.256 197.145 218.229 197.865C218.042 197.172 217.882 196.478 217.802 195.757C217.695 195.037 217.668 194.343 217.668 193.623C217.668 192.902 217.695 192.182 217.802 191.488C217.882 190.741 218.015 190.047 218.256 189.353Z" fill="#292160"/>
<path d="M234.109 186.792C234.403 187.379 234.617 187.992 234.831 188.633C235.045 189.246 235.205 189.887 235.366 190.527C235.526 191.168 235.66 191.808 235.767 192.449C235.874 193.089 235.954 193.756 235.981 194.397C235.74 193.783 235.553 193.169 235.366 192.529C235.179 191.915 235.018 191.275 234.858 190.634C234.697 189.994 234.564 189.38 234.43 188.739C234.296 188.099 234.19 187.459 234.109 186.792Z" fill="#292160"/>
<path d="M244.934 180.121C245.361 180.521 245.736 180.975 246.083 181.428C246.431 181.882 246.778 182.362 247.099 182.842C247.42 183.323 247.714 183.803 248.008 184.31C248.302 184.817 248.542 185.324 248.756 185.884C248.355 185.458 248.008 185.004 247.66 184.55C247.313 184.097 246.992 183.616 246.671 183.136C246.35 182.656 246.056 182.175 245.762 181.668C245.441 181.161 245.174 180.654 244.934 180.121Z" fill="#292160"/>
<path d="M252.176 170.914C252.684 171.208 253.138 171.581 253.566 171.981C253.993 172.355 254.421 172.782 254.822 173.209C255.223 173.636 255.597 174.063 255.945 174.543C256.292 174.997 256.613 175.477 256.907 175.984C256.453 175.611 256.025 175.21 255.624 174.81C255.223 174.41 254.822 173.983 254.421 173.556C253.646 172.702 252.871 171.848 252.176 170.914Z" fill="#292160"/>
<path d="M256.453 162.028C256.961 162.188 257.442 162.429 257.897 162.695C258.351 162.962 258.779 163.282 259.206 163.603C259.607 163.923 260.008 164.296 260.383 164.67C260.757 165.044 261.104 165.444 261.398 165.871C260.944 165.604 260.516 165.284 260.115 164.964C259.688 164.643 259.287 164.323 258.886 164.003C258.485 163.683 258.084 163.363 257.683 163.016C257.255 162.722 256.854 162.375 256.453 162.028Z" fill="#292160"/>
<path d="M204.652 187.458L204.17 189.54C204.01 190.234 203.85 190.927 203.716 191.595C203.636 191.941 203.556 192.288 203.502 192.635L203.395 193.142C203.368 193.329 203.342 193.489 203.288 193.649C203.155 194.343 203.021 195.037 202.834 195.731C202.78 195.01 202.807 194.29 202.861 193.596C202.914 192.875 203.048 192.182 203.181 191.461C203.342 190.767 203.529 190.074 203.769 189.38C203.983 188.739 204.277 188.072 204.652 187.458Z" fill="#292160"/>
<path d="M193.342 181.401L192.566 183.376C192.326 184.043 192.058 184.684 191.818 185.351C191.711 185.671 191.577 186.018 191.47 186.338L191.283 186.845C191.23 187.005 191.176 187.192 191.096 187.352C190.856 188.019 190.615 188.686 190.348 189.353C190.401 188.633 190.508 187.939 190.695 187.245C190.856 186.551 191.069 185.858 191.31 185.191C191.551 184.523 191.845 183.856 192.165 183.216C192.513 182.575 192.887 181.962 193.342 181.401Z" fill="#292160"/>
<path d="M184.333 172.675C183.611 173.449 182.943 174.196 182.302 174.997C181.981 175.397 181.633 175.771 181.313 176.171C180.992 176.571 180.671 176.971 180.297 177.345C180.457 176.838 180.698 176.358 180.965 175.931C181.232 175.477 181.553 175.05 181.874 174.65C182.222 174.25 182.596 173.876 182.997 173.529C183.398 173.182 183.852 172.889 184.333 172.675Z" fill="#292160"/>
<path d="M179.417 162.055C178.561 162.669 177.733 163.256 176.904 163.87C176.503 164.19 176.102 164.483 175.674 164.804C175.273 165.124 174.872 165.444 174.418 165.738C174.685 165.284 175.033 164.884 175.38 164.483C175.728 164.11 176.129 163.763 176.556 163.443C176.984 163.123 177.412 162.856 177.893 162.589C178.401 162.349 178.909 162.162 179.417 162.055Z" fill="#292160"/>
<path d="M81.9824 255.958C81.9824 255.958 103.18 243.203 86.3662 216.385C82.2764 209.847 77.1441 209.1 74.7116 199.814C72.2791 190.528 66.9329 182.229 63.2975 182.922C59.6354 183.643 56.5614 194.423 66.7725 209.527L69.9802 216.678C69.9802 216.678 67.3339 219.4 59.7958 219.293C52.2577 219.187 51.135 226.365 51.135 226.365L45.0938 229.941C43.6504 230.794 42.7148 232.289 42.5811 233.943L42.2604 237.679C42.2604 237.679 36.5667 242.322 37.3954 249.74C37.3954 249.74 34.5352 251.021 34.5352 254.357C34.5352 255.184 34.6421 255.985 34.8025 256.758C35.5777 260.201 37.8498 263.083 40.9238 264.791C43.8642 266.418 48.6758 269.22 52.819 272.209C53.7813 272.903 54.9575 273.196 56.1337 273.063C58.4592 272.769 62.5223 272.342 65.5162 272.342C67.0398 272.342 68.4833 271.595 69.3654 270.368C70.1941 269.193 71.1831 267.859 71.7445 267.326C71.7177 267.272 81.9022 262.362 81.9824 255.958Z" fill="#FFC89F"/>
<path d="M317.186 149.3C317.186 149.3 292.994 144.043 300.265 113.222C302.029 105.697 306.654 103.376 305.959 93.7958C305.264 84.2161 307.643 74.6364 311.332 74.156C315.021 73.649 321.409 82.8819 316.624 100.467L315.876 108.259C315.876 108.259 319.244 109.993 326.354 107.458C333.465 104.95 336.833 111.381 336.833 111.381L343.703 112.822C345.333 113.169 346.697 114.263 347.392 115.811L348.915 119.253C348.915 119.253 355.812 121.815 357.416 129.099C357.416 129.099 360.543 129.393 361.612 132.542C361.88 133.316 362.04 134.116 362.12 134.89C362.494 138.386 361.292 141.855 358.913 144.47C356.667 146.951 353.005 151.141 350.038 155.304C349.343 156.264 348.327 156.931 347.178 157.172C344.879 157.652 340.896 158.559 338.062 159.493C336.619 159.973 335.015 159.76 333.759 158.853C332.583 157.999 331.219 157.065 330.524 156.718C330.524 156.691 319.324 155.33 317.186 149.3Z" fill="#FFC89F"/>
<path d="M81.1282 237.786L78.9096 235.144C78.5353 234.717 78.1611 234.263 77.7869 233.836L77.2255 233.196L76.6374 232.556C76.4503 232.342 76.2365 232.129 76.0494 231.942C75.8623 231.728 75.6484 231.542 75.4613 231.328L74.8465 230.714C74.6326 230.528 74.4188 230.314 74.2317 230.127C73.3763 229.353 72.5209 228.633 71.5586 227.966C72.6278 228.419 73.5901 229.087 74.499 229.807C75.4078 230.528 76.2365 231.355 77.0384 232.182C77.8403 233.036 78.5621 233.916 79.2571 234.85C79.8986 235.838 80.5669 236.772 81.1282 237.786Z" fill="#FF9A6C"/>
<path d="M79.9258 249.367C80.3802 248.726 80.8614 248.139 81.396 247.579C81.9306 247.018 82.4919 246.485 83.1335 246.031C83.4542 245.791 83.775 245.577 84.0958 245.391C84.3898 245.177 84.6839 244.91 84.871 244.59C85.0581 244.27 85.165 243.896 85.1918 243.523C85.2185 243.336 85.1918 243.149 85.165 242.962L85.1383 242.375C85.1116 241.601 85.1116 240.828 85.1918 240.054C85.2185 239.867 85.2452 239.653 85.2719 239.467C85.2987 239.36 85.2987 239.253 85.3254 239.173C85.3254 239.093 85.3521 239.013 85.3521 238.933C85.3521 238.613 85.2719 238.293 85.0848 237.999C84.9244 237.732 84.6304 237.519 84.3364 237.385C84.176 237.305 84.0156 237.278 83.8552 237.278C83.6681 237.252 83.481 237.252 83.2939 237.252C82.5454 237.252 81.8237 237.439 81.1287 237.812L81.1019 237.759C81.69 237.252 82.4652 236.932 83.2671 236.825C83.4542 236.798 83.6681 236.798 83.8819 236.771C84.0958 236.771 84.3096 236.798 84.5235 236.878C84.9512 237.012 85.3254 237.305 85.566 237.652C85.6996 237.839 85.7798 238.026 85.86 238.239C85.9135 238.453 85.9402 238.666 85.9402 238.906C85.9402 239.013 85.9135 239.12 85.8868 239.226C85.86 239.333 85.8333 239.413 85.8333 239.52C85.8066 239.707 85.7531 239.894 85.7264 240.08C85.6194 240.828 85.5393 241.575 85.4591 242.349C85.4323 242.722 85.4323 243.096 85.3789 243.496C85.3254 243.896 85.2185 244.27 85.0314 244.617C84.8443 244.964 84.6037 245.284 84.3096 245.551C84.0156 245.818 83.7216 246.058 83.4543 246.298L81.7167 247.819C81.1554 248.326 80.5673 248.86 79.9792 249.34L79.9258 249.367Z" fill="#FF9A6C"/>
<path d="M59.6081 236.265C60.517 236.852 61.3991 237.492 62.2812 238.159C63.1366 238.826 63.992 239.52 64.7939 240.241C65.5959 240.988 66.371 241.762 67.173 242.482C67.5739 242.856 67.9749 243.203 68.3759 243.576L69.6055 244.644C70.4341 245.337 71.2628 246.058 72.038 246.805L73.2141 247.926C73.6151 248.299 73.9893 248.7 74.3636 249.073C74.5507 249.287 74.7378 249.447 74.9249 249.607C75.112 249.767 75.3259 249.9 75.5665 250.007C76.0209 250.247 76.5288 250.381 77.0366 250.407C78.0524 250.461 79.1216 250.087 79.9236 249.34L79.9503 249.367C79.282 250.247 78.1861 250.808 77.0366 250.834C76.4753 250.834 75.8872 250.728 75.3526 250.487C75.0853 250.381 74.8447 250.221 74.6041 250.034C74.3636 249.847 74.1497 249.66 73.9626 249.473L69.3916 244.83C68.6164 244.057 67.8412 243.309 67.0126 242.589C66.6116 242.242 66.1839 241.895 65.7562 241.548L64.4732 240.534C63.6178 239.84 62.8158 239.147 61.9872 238.426C61.1585 237.706 60.3566 236.985 59.5547 236.265H59.6081Z" fill="#FF9A6C"/>
<path d="M71.8789 261.775C72.6541 261.294 73.456 260.841 74.2579 260.441C75.0599 260.014 75.8885 259.613 76.7172 259.24C77.1181 259.053 77.5726 258.893 77.9735 258.706C78.3745 258.519 78.722 258.226 78.9893 257.879C79.123 257.692 79.2299 257.505 79.3368 257.318L79.6576 256.731C79.8714 256.331 80.0853 255.931 80.3258 255.531C80.7803 254.73 81.2614 253.956 81.8495 253.236C82.491 252.569 82.7583 251.821 82.8118 250.914C82.8653 250.461 82.9455 250.007 83.0524 249.553C83.1059 249.34 83.1593 249.1 83.2128 248.886C83.2662 248.699 83.2395 248.513 83.186 248.352C83.0524 248.006 82.7049 247.739 82.3039 247.739C82.1168 247.739 81.903 247.819 81.6891 247.899C81.4753 247.979 81.2882 248.112 81.101 248.219L81.0743 248.166C81.2347 248.006 81.4218 247.872 81.6089 247.739C81.7158 247.685 81.796 247.605 81.903 247.552C82.0099 247.499 82.1435 247.445 82.2772 247.445C82.7851 247.365 83.3464 247.659 83.587 248.166C83.6939 248.406 83.7474 248.699 83.6939 248.966C83.6405 249.206 83.6137 249.42 83.5603 249.633C83.4801 250.087 83.4266 250.514 83.3732 250.968L83.3464 251.314C83.3197 251.448 83.3197 251.555 83.293 251.688C83.2395 251.928 83.1593 252.168 83.0791 252.382C82.9722 252.595 82.8653 252.809 82.7049 253.022C82.6247 253.129 82.5445 253.209 82.4643 253.316L82.2505 253.556C81.6624 254.223 81.1278 254.944 80.5932 255.691C80.3258 256.064 80.0853 256.438 79.8447 256.838C79.711 257.025 79.6041 257.238 79.4972 257.425C79.3903 257.612 79.2833 257.825 79.1497 258.012C78.8824 258.386 78.5349 258.733 78.1339 259C77.9201 259.133 77.733 259.24 77.5191 259.346L76.931 259.667C76.1291 260.094 75.3005 260.467 74.4718 260.841C73.6431 261.214 72.7878 261.561 71.9324 261.855L71.8789 261.775Z" fill="#FF9A6C"/>
<path d="M52.8732 247.819C53.7018 248.433 54.5037 249.073 55.3057 249.767C56.0809 250.434 56.8561 251.128 57.5778 251.875C58.2995 252.622 58.9945 253.369 59.7162 254.116C60.438 254.837 61.2132 255.557 61.9616 256.251C62.7368 256.945 63.4853 257.665 64.207 258.386L65.303 259.48C65.6505 259.854 66.0247 260.227 66.3722 260.601C67.0405 261.321 67.9226 261.802 68.8849 262.015C69.8472 262.228 70.8897 262.148 71.852 261.775L71.8788 261.828C70.9699 262.362 69.874 262.575 68.8047 262.415C67.7355 262.282 66.7197 261.748 65.9445 260.974C65.2228 260.227 64.5545 259.453 63.8328 258.706C63.1378 257.959 62.4428 257.185 61.7478 256.438C61.0528 255.664 60.3311 254.917 59.5826 254.223C59.2084 253.876 58.8074 253.529 58.4332 253.209L57.257 252.195C56.4818 251.501 55.7334 250.808 54.9849 250.087C54.2364 249.367 53.5147 248.646 52.793 247.872L52.8732 247.819Z" fill="#FF9A6C"/>
<path d="M43.7305 255.344C44.9334 256.065 46.1095 256.839 47.2857 257.639C48.4351 258.44 49.5578 259.294 50.6537 260.174C51.1884 260.628 51.723 261.081 52.2576 261.535L53.8614 262.923L57.0959 265.644C59.3413 267.272 60.9718 270.154 63.832 269.914C64.1528 269.887 64.5003 269.861 64.8211 269.781C65.1419 269.7 65.4626 269.594 65.8101 269.46C66.4784 269.22 67.1199 268.98 67.7882 268.74L71.7444 267.246L71.7711 267.299C70.5147 267.939 69.2584 268.553 67.9753 269.14C67.3338 269.434 66.6922 269.701 66.024 269.967C65.7032 270.101 65.3557 270.234 65.0082 270.341C64.6607 270.448 64.2865 270.501 63.9122 270.501C63.1638 270.528 62.4153 270.394 61.747 270.101C61.052 269.807 60.4372 269.38 59.9561 268.847C59.4482 268.366 58.967 267.833 58.4859 267.352C57.978 266.872 57.4968 266.365 56.989 265.885C55.9732 264.897 54.9307 263.963 53.8347 263.083C52.7388 262.202 51.5893 261.375 50.4666 260.548C49.3439 259.72 48.2212 258.84 47.1253 257.986C46.0026 257.132 44.9066 256.278 43.8107 255.398L43.7305 255.344Z" fill="#FF9A6C"/>
<path d="M69.9805 216.651C70.4884 217.292 70.916 217.986 71.317 218.706C71.718 219.427 72.0655 220.147 72.3862 220.921C72.6803 221.668 72.9743 222.469 73.1614 223.242C73.3486 224.043 73.5089 224.844 73.5089 225.671C73.2684 224.897 73.0278 224.123 72.7605 223.376C72.4664 222.629 72.1991 221.882 71.8784 221.134C71.2903 219.64 70.622 218.172 69.9805 216.651Z" fill="#FF9A6C"/>
<path d="M81.1289 237.786C81.316 237.732 81.5299 237.786 81.6903 237.839C81.8774 237.919 82.011 238.026 82.1447 238.159C82.2783 238.293 82.3585 238.453 82.4387 238.613C82.4922 238.773 82.5456 238.96 82.5189 239.173C82.3318 239.067 82.2249 238.96 82.0912 238.853C81.9576 238.746 81.8506 238.64 81.7437 238.533C81.6368 238.426 81.5299 238.319 81.4229 238.186L81.1289 237.786Z" fill="#FF9A6C"/>
<path d="M312.297 132.889C312.457 131.741 312.725 130.621 313.045 129.5C313.366 128.379 313.74 127.285 314.168 126.218C314.622 125.15 315.104 124.083 315.692 123.096C316.28 122.108 316.975 121.148 317.803 120.347C317.135 121.308 316.574 122.295 316.066 123.309C315.932 123.576 315.825 123.816 315.692 124.083L315.344 124.857C315.211 125.124 315.104 125.391 314.997 125.631C314.89 125.898 314.756 126.164 314.676 126.431L314.355 127.232L314.061 128.032C313.847 128.566 313.66 129.1 313.473 129.633L312.297 132.889Z" fill="#FF9A6C"/>
<path d="M317.482 143.349C316.76 143.082 316.039 142.789 315.317 142.522L313.179 141.721C312.831 141.588 312.457 141.454 312.109 141.321C311.735 141.187 311.388 140.947 311.094 140.707C310.8 140.44 310.559 140.12 310.372 139.773C310.211 139.4 310.078 139.053 309.891 138.706C309.57 138.012 309.222 137.345 308.848 136.678C308.741 136.518 308.661 136.358 308.554 136.198C308.501 136.117 308.447 136.037 308.394 135.957C308.34 135.851 308.287 135.771 308.233 135.664C308.153 135.45 308.1 135.237 308.073 135.023C308.046 134.81 308.073 134.57 308.126 134.356C308.233 133.929 308.474 133.529 308.821 133.262C308.982 133.129 309.196 133.022 309.383 132.942C309.57 132.862 309.757 132.809 309.971 132.755C310.746 132.568 311.575 132.595 312.323 132.862V132.915C311.548 132.809 310.8 132.889 310.105 133.155C309.917 133.209 309.757 133.289 309.597 133.369C309.436 133.449 309.303 133.529 309.196 133.636C308.955 133.849 308.768 134.143 308.715 134.463C308.634 134.783 308.661 135.13 308.795 135.424C308.821 135.504 308.848 135.584 308.902 135.637C308.928 135.717 309.009 135.797 309.035 135.877C309.142 136.037 309.222 136.224 309.329 136.384C309.704 137.078 309.971 137.799 310.211 138.546L310.399 139.106C310.452 139.293 310.506 139.48 310.586 139.64C310.746 139.987 310.96 140.28 311.254 140.52C311.548 140.761 311.895 140.921 312.243 141.001C312.617 141.081 312.991 141.161 313.366 141.268C314.114 141.481 314.836 141.775 315.531 142.121C316.226 142.468 316.921 142.842 317.562 143.269L317.482 143.349Z" fill="#FF9A6C"/>
<path d="M331.942 123.923C331.461 124.884 330.953 125.871 330.446 126.805C329.938 127.766 329.403 128.7 328.868 129.66L328.04 131.048C327.746 131.501 327.478 131.982 327.211 132.462C326.676 133.423 326.222 134.383 325.794 135.397L323.148 141.348C323.041 141.588 322.907 141.855 322.747 142.095C322.587 142.335 322.4 142.575 322.212 142.762C321.811 143.163 321.304 143.483 320.769 143.67C319.7 144.043 318.443 143.936 317.508 143.323L317.535 143.269C318.524 143.696 319.673 143.67 320.609 143.269C321.09 143.056 321.491 142.762 321.838 142.389C321.999 142.202 322.159 141.988 322.293 141.775C322.426 141.561 322.506 141.321 322.64 141.081C322.854 140.574 323.095 140.094 323.308 139.587L324.03 138.119C324.511 137.132 325.019 136.171 325.554 135.237L326.329 133.796C326.596 133.316 326.837 132.836 327.077 132.355C327.559 131.395 328.013 130.381 328.494 129.42C329.002 128.459 329.537 127.499 330.098 126.591C330.659 125.657 331.274 124.75 331.916 123.87L331.942 123.923Z" fill="#FF9A6C"/>
<path d="M329.403 152.128C328.494 152.155 327.585 152.128 326.676 152.075C325.767 152.022 324.858 151.968 323.949 151.835L323.281 151.728C323.067 151.701 322.827 151.675 322.586 151.621C322.132 151.515 321.677 151.328 321.303 151.061C321.116 150.928 320.929 150.767 320.768 150.634C320.581 150.501 320.421 150.34 320.234 150.207C319.886 149.914 319.512 149.673 319.138 149.407C318.389 148.899 317.614 148.419 316.839 147.992L316.545 147.832C316.438 147.779 316.331 147.725 316.224 147.645C316.01 147.512 315.823 147.352 315.663 147.165C315.503 146.978 315.342 146.791 315.208 146.578C315.155 146.471 315.075 146.364 315.021 146.258L314.861 145.964C314.674 145.564 314.433 145.164 314.219 144.79C314.113 144.603 314.006 144.417 313.872 144.203C313.738 143.963 313.658 143.696 313.685 143.429C313.712 142.895 314.139 142.415 314.647 142.308C314.781 142.282 314.888 142.282 315.021 142.282C315.155 142.282 315.262 142.308 315.369 142.335C315.609 142.388 315.823 142.469 316.037 142.549L316.01 142.602C315.797 142.549 315.556 142.522 315.342 142.522C315.102 142.495 314.888 142.495 314.701 142.575C314.326 142.709 314.086 143.082 314.086 143.456C314.086 143.643 314.139 143.829 314.246 143.963C314.353 144.123 314.513 144.336 314.647 144.523C314.914 144.897 315.128 145.324 315.342 145.724C315.716 146.551 316.224 147.165 317.053 147.565C317.855 148.046 318.577 148.606 319.298 149.193C319.646 149.487 319.993 149.78 320.341 150.074L320.849 150.527C321.009 150.687 321.196 150.821 321.383 150.928C321.758 151.168 322.185 151.301 322.64 151.328C323.067 151.354 323.548 151.354 324.003 151.381C324.912 151.435 325.821 151.541 326.729 151.648C327.638 151.755 328.547 151.888 329.429 152.075L329.403 152.128Z" fill="#FF9A6C"/>
<path d="M342.341 132.355C341.94 133.316 341.512 134.25 341.084 135.184C340.63 136.118 340.202 137.052 339.721 137.959L338.973 139.32C338.732 139.773 338.465 140.227 338.251 140.681C337.796 141.615 337.395 142.549 336.994 143.509C336.62 144.47 336.219 145.431 335.845 146.364C335.444 147.325 335.097 148.259 334.669 149.22C334.241 150.207 333.466 151.061 332.504 151.568C331.568 152.075 330.445 152.262 329.43 152.102V152.048C330.472 152.048 331.461 151.755 332.29 151.221C333.119 150.687 333.787 149.914 334.134 149.006C334.321 148.553 334.535 148.046 334.722 147.592L335.364 146.178C335.792 145.244 336.246 144.31 336.727 143.376C337.208 142.442 337.663 141.535 338.09 140.601C338.518 139.667 338.892 138.706 339.32 137.745C339.748 136.811 340.229 135.877 340.71 134.97C341.191 134.063 341.726 133.182 342.287 132.302L342.341 132.355Z" fill="#FF9A6C"/>
<path d="M352.898 135.717C352.176 136.918 351.428 138.119 350.706 139.32C349.958 140.52 349.236 141.721 348.461 142.895C347.712 144.07 346.91 145.244 346.215 146.444C345.493 147.645 344.852 148.899 344.264 150.18C343.943 150.821 343.676 151.461 343.382 152.075C343.088 152.715 342.82 153.356 342.526 153.996C342.232 154.663 341.831 155.304 341.297 155.811C340.762 156.318 340.094 156.718 339.399 156.958C339.051 157.065 338.677 157.145 338.303 157.172C337.929 157.198 337.581 157.198 337.207 157.198C336.512 157.198 335.79 157.145 335.095 157.118C333.678 157.038 332.288 156.905 330.898 156.745V156.691H335.122C335.817 156.691 336.539 156.691 337.234 156.691C337.581 156.691 337.929 156.691 338.249 156.638C338.57 156.611 338.891 156.531 339.212 156.424C341.965 155.624 342.5 152.368 344.023 150.047L346.082 146.364L347.097 144.496C347.418 143.883 347.766 143.269 348.113 142.655C348.835 141.428 349.583 140.254 350.385 139.106C351.187 137.932 352.016 136.811 352.898 135.717Z" fill="#FF9A6C"/>
<path d="M315.876 108.259C315.823 109.887 315.716 111.514 315.662 113.115C315.636 113.916 315.636 114.716 315.636 115.517C315.662 116.318 315.689 117.118 315.743 117.945C315.475 117.171 315.315 116.371 315.235 115.544C315.155 114.716 315.128 113.916 315.155 113.089C315.181 112.261 315.261 111.461 315.368 110.634C315.475 109.86 315.636 109.059 315.876 108.259Z" fill="#FF9A6C"/>
<path d="M312.295 132.889L312.135 133.369C312.081 133.529 312.028 133.663 311.974 133.796C311.921 133.929 311.841 134.089 311.787 134.223C311.707 134.356 311.627 134.516 311.493 134.677C311.413 134.49 311.359 134.303 311.359 134.116C311.359 133.929 311.386 133.743 311.466 133.582C311.546 133.422 311.653 133.262 311.787 133.129C311.921 133.022 312.108 132.915 312.295 132.889Z" fill="#FF9A6C"/>
<path d="M65.8645 26.3109C80.513 14.7032 101.817 17.1581 113.445 31.7813C122.186 42.802 122.962 57.5585 116.573 69.1396L125.848 81.3344L107.966 79.2797C93.317 90.8874 72.0126 88.4325 60.3847 73.8094C48.7568 59.1862 51.216 37.9187 65.8645 26.3109Z" fill="white"/>
<path d="M125.873 81.3608C125.152 80.3201 124.403 79.2794 123.655 78.2387C122.906 77.1981 122.131 76.184 121.356 75.17C120.581 74.156 119.805 73.142 119.003 72.1547C118.202 71.1407 117.4 70.1533 116.598 69.166C117.319 70.2067 118.068 71.2474 118.816 72.2881C119.565 73.3288 120.34 74.3428 121.115 75.3568C121.89 76.3708 122.666 77.3848 123.467 78.3722C124.243 79.3862 125.045 80.3735 125.873 81.3608Z" fill="#1B1A2E"/>
<path d="M107.992 79.2798C109.489 79.5199 110.959 79.7334 112.456 79.9202C113.953 80.107 115.423 80.2938 116.92 80.4806C118.417 80.6407 119.914 80.8008 121.384 80.9609C122.881 81.121 124.378 81.2544 125.875 81.3612C124.378 81.121 122.908 80.9075 121.411 80.7207C119.914 80.534 118.444 80.3472 116.947 80.1604C115.45 80.0003 113.953 79.8135 112.483 79.6801C110.986 79.5466 109.489 79.4132 107.992 79.2798Z" fill="#1B1A2E"/>
<path d="M116.598 69.1661C117.614 67.3516 118.443 65.457 119.111 63.4823C119.753 61.5077 120.261 59.4796 120.555 57.4249C121.143 53.3155 120.956 49.0994 120.02 45.0433C119.084 40.9873 117.374 37.118 115.021 33.6757C112.669 30.2601 109.702 27.2181 106.254 24.8432C104.543 23.669 102.698 22.6283 100.801 21.7744C98.9026 20.9205 96.8978 20.2534 94.8663 19.7731C90.8032 18.7858 86.553 18.5723 82.4097 19.106C78.2664 19.6397 74.2301 20.9739 70.568 22.9752C68.7235 23.9893 66.986 25.1634 65.3822 26.4709C63.7516 27.7785 62.2547 29.2461 60.8914 30.8472C58.1916 34.0493 56.0799 37.7318 54.7166 41.6811C53.3533 45.6304 52.7118 49.8199 52.8454 53.9826C52.9791 58.1454 53.9147 62.3082 55.5453 66.1241C57.1758 69.9667 59.5549 73.489 62.4418 76.4777C65.3555 79.4664 68.8305 81.9213 72.6263 83.6558C76.422 85.3903 80.5386 86.431 84.6818 86.6978C88.8519 86.9647 93.0486 86.431 97.0048 85.1768C100.961 83.9227 104.703 81.9213 107.938 79.3329C104.677 81.8946 100.934 83.8426 96.978 85.0701C93.0219 86.2976 88.8251 86.7779 84.6818 86.4844C80.5386 86.1908 76.4755 85.1501 72.7332 83.4157C68.9909 81.6812 65.5693 79.2262 62.6824 76.2642C61.2389 74.7699 59.9558 73.1421 58.8064 71.4343C57.657 69.7265 56.6947 67.8853 55.866 65.9907C54.2622 62.2015 53.3266 58.0921 53.2197 53.9826C53.086 49.8732 53.7276 45.7104 55.0908 41.8412C56.4541 37.9453 58.5124 34.3162 61.1855 31.1674C62.522 29.593 63.9922 28.152 65.596 26.8445C67.1999 25.537 68.9107 24.3895 70.7284 23.4022C74.337 21.4009 78.3199 20.0933 82.4365 19.5596C86.5263 19.0259 90.723 19.2394 94.7326 20.2001C98.7423 21.1607 102.592 22.8418 106.013 25.1901C109.435 27.5116 112.375 30.5003 114.727 33.8892C117.08 37.2781 118.79 41.1207 119.753 45.1501C120.715 49.1794 120.929 53.3689 120.394 57.4783C120.127 59.533 119.646 61.561 119.031 63.5357C118.389 65.4303 117.561 67.3249 116.598 69.1661Z" fill="#1B1A2E"/>
<path d="M331.836 338.199H66.0781V339H331.836V338.199Z" fill="#1B1A2E"/>
<path d="M79.7378 49.0728H74.3114C73.7233 49.0728 73.2422 49.5531 73.2422 50.1401V63.349C73.2422 63.936 73.7233 64.4163 74.3114 64.4163H79.7378C80.3259 64.4163 80.807 63.936 80.807 63.349V50.1401C80.807 49.5531 80.3259 49.0728 79.7378 49.0728Z" fill="#1F4168"/>
<path d="M101.416 51.0209C101.416 49.9536 100.534 49.073 99.4649 49.073H94.3593H93.1297H91.5793L92.007 47.7654C92.5951 46.0042 92.8891 44.163 92.8891 42.3218C92.8891 41.6013 92.6752 40.8808 92.301 40.2938C91.7931 39.4932 90.9645 38.9062 90.0556 38.666C89.1468 38.4258 88.2379 39.1196 88.2379 40.0803C88.2379 41.8948 87.5964 43.6827 86.447 45.097L83.1591 49.0997C82.571 49.0997 82.0898 49.58 82.0898 50.167V63.3759C82.0898 63.9629 82.571 64.4432 83.1591 64.4432H92.2208C92.4079 64.5233 92.6218 64.5767 92.8624 64.5767H96.0433C96.9522 64.5767 97.7006 63.8295 97.7006 62.9222V62.3352C97.7006 61.4279 96.9522 60.6807 96.0433 60.6807H97.1126C98.1016 60.6807 98.9303 59.8802 98.9303 58.8662V58.5727C98.9303 57.7988 98.4491 57.1584 97.7808 56.8915H98.2353C99.3045 56.8915 100.187 56.0109 100.187 54.9436C100.187 53.8762 99.3045 52.9956 98.2353 52.9956H99.4649C100.561 52.9689 101.416 52.0883 101.416 51.0209Z" fill="#1F4168"/>
<path d="M63.2128 135.804C71.8871 127.145 71.8871 113.105 63.2128 104.446C54.5384 95.7872 40.4745 95.7872 31.8001 104.446C23.1257 113.105 23.1257 127.145 31.8001 135.804C40.4745 144.463 54.5384 144.463 63.2128 135.804Z" fill="#005023"/>
<path d="M92.3298 186.695C99.7326 186.695 105.734 180.705 105.734 173.315C105.734 165.925 99.7326 159.935 92.3298 159.935C84.927 159.935 78.9258 165.925 78.9258 173.315C78.9258 180.705 84.927 186.695 92.3298 186.695Z" stroke="#86A8FF" stroke-width="8" stroke-miterlimit="10"/>
<path d="M315.511 50.8589C325.135 50.8589 332.936 43.0711 332.936 33.4644C332.936 23.8576 325.135 16.0698 315.511 16.0698C305.887 16.0698 298.086 23.8576 298.086 33.4644C298.086 43.0711 305.887 50.8589 315.511 50.8589Z" stroke="#86A8FF" stroke-width="8" stroke-miterlimit="10"/>
<path d="M76.6708 300.948H71.5725V295.811C71.5725 295.142 71.0459 294.616 70.3757 294.616C69.7055 294.616 69.1789 295.142 69.1789 295.811V300.948H64.0327C63.3625 300.948 62.8359 301.474 62.8359 302.143C62.8359 302.812 63.3625 303.337 64.0327 303.337H69.1789V308.427C69.1789 309.096 69.7055 309.621 70.3757 309.621C71.0459 309.621 71.5725 309.096 71.5725 308.427V303.337H76.6708C77.341 303.337 77.8676 302.812 77.8676 302.143C77.8676 301.474 77.317 300.948 76.6708 300.948Z" fill="#86A8FF"/>
<path d="M360.96 69.0813H355.862V63.9442C355.862 63.2752 355.335 62.7495 354.665 62.7495C353.995 62.7495 353.468 63.2752 353.468 63.9442V69.0813H348.322C347.652 69.0813 347.125 69.607 347.125 70.276C347.125 70.945 347.652 71.4707 348.322 71.4707H353.468V76.56C353.468 77.229 353.995 77.7547 354.665 77.7547C355.335 77.7547 355.862 77.229 355.862 76.56V71.4707H360.96C361.63 71.4707 362.157 70.945 362.157 70.276C362.157 69.607 361.63 69.0813 360.96 69.0813Z" fill="#005023"/>
<path d="M323.942 294.412C328.28 290.082 328.28 283.062 323.942 278.733C319.605 274.403 312.573 274.403 308.236 278.733C303.899 283.062 303.899 290.082 308.236 294.412C312.573 298.741 319.605 298.741 323.942 294.412Z" fill="#86A8FF"/>
<defs>
<linearGradient id="paint0_linear_154_5765" x1="204.163" y1="122.605" x2="204.163" y2="338.573" gradientUnits="userSpaceOnUse">
<stop offset="0.208333" stop-color="#003399"/>
<stop offset="1" stop-color="#032872"/>
</linearGradient>
<linearGradient id="paint1_linear_154_5765" x1="213.932" y1="7.32471" x2="213.932" y2="136.786" gradientUnits="userSpaceOnUse">
<stop stop-color="#17161F"/>
<stop offset="1" stop-color="#413E8A"/>
</linearGradient>
</defs>
</svg>
