<svg width="61" height="61" viewBox="0 0 61 61" fill="none" xmlns="http://www.w3.org/2000/svg">
<mask id="mask0_39_4655" style="mask-type:luminance" maskUnits="userSpaceOnUse" x="10" y="11" width="41" height="41">
<path d="M51 11H10V52H51V11Z" fill="white"/>
</mask>
<g mask="url(#mask0_39_4655)">
<mask id="path-2-inside-1_39_4655" fill="white">
<path d="M48.1404 32.8144C49.3241 31.3847 50.9844 28.6176 50.9844 24.4361C50.9844 20.8388 49.6162 17.4721 47.1565 14.9509C44.6968 12.4451 41.407 11.0615 37.9019 11.0615C34.3968 11.0615 31.891 11.9839 30.077 13.1523C24.9578 9.73944 18.2705 10.4312 13.8123 14.9663C8.70841 20.1778 8.70841 28.6637 13.8123 33.8752C13.8123 33.8752 29.7696 50.1553 30.569 50.97C31.2146 51.6311 32.1062 51.9847 33.0747 51.9847C34.2431 51.9847 35.4115 51.462 36.3339 50.5088C37.041 49.7863 37.4715 48.8947 37.6559 48.003C38.5629 47.8339 39.4392 47.3574 40.1771 46.6041C40.8843 45.8815 41.3147 45.0053 41.4838 44.0983C42.3908 43.9292 43.2671 43.4526 44.005 42.6993C44.7122 41.9768 45.1426 41.1005 45.3117 40.1935C46.2188 40.0244 47.095 39.5478 47.8329 38.7946C49.4932 37.0881 49.6931 34.4286 48.2787 32.9682L48.125 32.7991L48.1404 32.8144ZM44.7737 17.3184C46.6184 19.1939 47.633 21.7304 47.633 24.4361C47.633 27.3724 46.5723 29.3247 45.7575 30.4009L41.6068 26.1425C41.9143 25.8965 42.2064 25.6352 42.5138 25.3277L40.1464 22.9449C36.8719 26.2501 33.5052 23.5906 33.1516 23.2831L31.9679 22.2531L28.1707 26.1579C27.0177 27.3416 25.957 27.895 24.9116 27.8643C23.9278 27.8336 22.8363 27.2494 21.6679 26.1579L29.954 17.6412C31.4913 16.0578 33.6436 14.4436 37.9173 14.4436C40.5153 14.4436 42.9443 15.4736 44.7891 17.3337M45.4808 36.4578C45.0043 36.9498 44.4816 37.0574 44.374 37.0113L37.4407 30.1088L35.4729 32.0612L42.1602 39.1328C42.2217 39.3172 42.0526 39.9629 41.6529 40.378C41.161 40.8699 40.5461 41.0851 40.4385 41.0237L33.5052 34.1211L31.6451 35.9659L38.3324 43.0375C38.3938 43.222 38.2248 43.8677 37.8251 44.2827C37.3331 44.7901 36.8104 44.8823 36.7182 44.8362C35.9803 44.0983 29.7695 37.949 29.7695 37.949L27.8018 39.9014C27.8018 39.9014 33.6128 46.0507 34.5045 46.9577C34.566 47.1421 34.3968 47.7878 33.9971 48.1875C33.5052 48.6948 33.0747 48.6948 32.9825 48.6333C32.1831 47.8186 16.2259 31.5385 16.2259 31.5385C12.398 27.6337 12.398 21.2846 16.2259 17.3645C19.2851 14.2438 23.7586 13.5673 27.4021 15.4736L17.0867 26.0657L18.086 27.234C20.3151 29.8474 22.5135 31.1541 24.8041 31.231C26.8179 31.2925 28.7549 30.3855 30.569 28.51L32.3061 26.7267C32.9056 27.0649 33.6897 27.4339 34.612 27.6798C35.6882 27.9565 37.2409 28.1103 38.7167 27.7413L46.0035 35.2126C46.065 35.3971 45.8959 36.0428 45.4962 36.4578"/>
</mask>
<path d="M48.1404 32.8144C49.3241 31.3847 50.9844 28.6176 50.9844 24.4361C50.9844 20.8388 49.6162 17.4721 47.1565 14.9509C44.6968 12.4451 41.407 11.0615 37.9019 11.0615C34.3968 11.0615 31.891 11.9839 30.077 13.1523C24.9578 9.73944 18.2705 10.4312 13.8123 14.9663C8.70841 20.1778 8.70841 28.6637 13.8123 33.8752C13.8123 33.8752 29.7696 50.1553 30.569 50.97C31.2146 51.6311 32.1062 51.9847 33.0747 51.9847C34.2431 51.9847 35.4115 51.462 36.3339 50.5088C37.041 49.7863 37.4715 48.8947 37.6559 48.003C38.5629 47.8339 39.4392 47.3574 40.1771 46.6041C40.8843 45.8815 41.3147 45.0053 41.4838 44.0983C42.3908 43.9292 43.2671 43.4526 44.005 42.6993C44.7122 41.9768 45.1426 41.1005 45.3117 40.1935C46.2188 40.0244 47.095 39.5478 47.8329 38.7946C49.4932 37.0881 49.6931 34.4286 48.2787 32.9682L48.125 32.7991L48.1404 32.8144ZM44.7737 17.3184C46.6184 19.1939 47.633 21.7304 47.633 24.4361C47.633 27.3724 46.5723 29.3247 45.7575 30.4009L41.6068 26.1425C41.9143 25.8965 42.2064 25.6352 42.5138 25.3277L40.1464 22.9449C36.8719 26.2501 33.5052 23.5906 33.1516 23.2831L31.9679 22.2531L28.1707 26.1579C27.0177 27.3416 25.957 27.895 24.9116 27.8643C23.9278 27.8336 22.8363 27.2494 21.6679 26.1579L29.954 17.6412C31.4913 16.0578 33.6436 14.4436 37.9173 14.4436C40.5153 14.4436 42.9443 15.4736 44.7891 17.3337M45.4808 36.4578C45.0043 36.9498 44.4816 37.0574 44.374 37.0113L37.4407 30.1088L35.4729 32.0612L42.1602 39.1328C42.2217 39.3172 42.0526 39.9629 41.6529 40.378C41.161 40.8699 40.5461 41.0851 40.4385 41.0237L33.5052 34.1211L31.6451 35.9659L38.3324 43.0375C38.3938 43.222 38.2248 43.8677 37.8251 44.2827C37.3331 44.7901 36.8104 44.8823 36.7182 44.8362C35.9803 44.0983 29.7695 37.949 29.7695 37.949L27.8018 39.9014C27.8018 39.9014 33.6128 46.0507 34.5045 46.9577C34.566 47.1421 34.3968 47.7878 33.9971 48.1875C33.5052 48.6948 33.0747 48.6948 32.9825 48.6333C32.1831 47.8186 16.2259 31.5385 16.2259 31.5385C12.398 27.6337 12.398 21.2846 16.2259 17.3645C19.2851 14.2438 23.7586 13.5673 27.4021 15.4736L17.0867 26.0657L18.086 27.234C20.3151 29.8474 22.5135 31.1541 24.8041 31.231C26.8179 31.2925 28.7549 30.3855 30.569 28.51L32.3061 26.7267C32.9056 27.0649 33.6897 27.4339 34.612 27.6798C35.6882 27.9565 37.2409 28.1103 38.7167 27.7413L46.0035 35.2126C46.065 35.3971 45.8959 36.0428 45.4962 36.4578" fill="#005023"/>
<path d="M48.1404 32.8144L47.999 32.9559L48.1544 33.1111L48.2944 32.942L48.1404 32.8144ZM47.1565 14.9509L47.2996 14.8112L47.2992 14.8108L47.1565 14.9509ZM30.077 13.1523L29.9661 13.3187L30.0751 13.3914L30.1853 13.3204L30.077 13.1523ZM13.8123 14.9663L13.6696 14.8261L13.6694 14.8263L13.8123 14.9663ZM13.8123 33.8752L13.6694 34.0151L13.6694 34.0152L13.8123 33.8752ZM30.569 50.97L30.712 50.8303L30.7117 50.83L30.569 50.97ZM36.3339 50.5088L36.1909 50.3689L36.1902 50.3698L36.3339 50.5088ZM37.6559 48.003L37.6193 47.8064L37.4873 47.831L37.4601 47.9625L37.6559 48.003ZM40.1771 46.6041L40.32 46.744L40.3201 46.744L40.1771 46.6041ZM41.4838 44.0983L41.4472 43.9017L41.3123 43.9268L41.2872 44.0616L41.4838 44.0983ZM44.005 42.6993L44.1479 42.8393L44.148 42.8392L44.005 42.6993ZM45.3117 40.1935L45.2751 39.9969L45.1403 40.022L45.1151 40.1569L45.3117 40.1935ZM47.8329 38.7946L47.9758 38.9345L47.9762 38.934L47.8329 38.7946ZM48.2787 32.9682L48.1307 33.1028L48.1351 33.1073L48.2787 32.9682ZM48.125 32.7991L48.2663 32.6576L47.977 32.9336L48.125 32.7991ZM45.7575 30.4009L45.6143 30.5405L45.7766 30.707L45.917 30.5216L45.7575 30.4009ZM41.6068 26.1425L41.4819 25.9863L41.3096 26.1241L41.4636 26.2821L41.6068 26.1425ZM42.5138 25.3277L42.6553 25.4692L42.7962 25.3282L42.6557 25.1868L42.5138 25.3277ZM40.1464 22.9449L40.2882 22.804L40.1462 22.6609L40.0043 22.8042L40.1464 22.9449ZM33.1516 23.2831L33.0203 23.434L33.0204 23.434L33.1516 23.2831ZM31.9679 22.2531L32.0992 22.1022L31.9564 21.978L31.8245 22.1137L31.9679 22.2531ZM28.1707 26.1579L28.314 26.2974L28.3141 26.2973L28.1707 26.1579ZM24.9116 27.8643L24.9054 28.0642L24.9058 28.0642L24.9116 27.8643ZM21.6679 26.1579L21.5246 26.0184L21.3823 26.1647L21.5314 26.304L21.6679 26.1579ZM29.954 17.6412L30.0974 17.7807L30.0975 17.7805L29.954 17.6412ZM44.374 37.0113L44.2329 37.153L44.26 37.18L44.2952 37.1951L44.374 37.0113ZM37.4407 30.1088L37.5818 29.967L37.441 29.8268L37.2999 29.9668L37.4407 30.1088ZM35.4729 32.0612L35.3321 31.9192L35.1935 32.0567L35.3276 32.1986L35.4729 32.0612ZM42.1602 39.1328L42.35 39.0695L42.336 39.0275L42.3055 38.9953L42.1602 39.1328ZM41.6529 40.378L41.7944 40.5194L41.797 40.5167L41.6529 40.378ZM40.4385 41.0237L40.2973 41.1654L40.3162 41.1841L40.3392 41.1973L40.4385 41.0237ZM33.5052 34.1211L33.6463 33.9794L33.5055 33.8392L33.3643 33.9791L33.5052 34.1211ZM31.6451 35.9659L31.5042 35.8239L31.3656 35.9614L31.4997 36.1033L31.6451 35.9659ZM38.3324 43.0375L38.5221 42.9743L38.5081 42.9323L38.4777 42.9001L38.3324 43.0375ZM37.8251 44.2827L37.9686 44.422L37.9691 44.4215L37.8251 44.2827ZM36.7182 44.8362L36.5768 44.9776L36.5997 45.0005L36.6288 45.0151L36.7182 44.8362ZM29.7695 37.949L29.9103 37.8069L29.7694 37.6674L29.6287 37.8071L29.7695 37.949ZM27.8018 39.9014L27.6609 39.7594L27.5224 39.8969L27.6564 40.0388L27.8018 39.9014ZM34.5045 46.9577L34.6942 46.8944L34.6796 46.8505L34.6471 46.8175L34.5045 46.9577ZM33.9971 48.1875L33.8557 48.0461L33.8536 48.0483L33.9971 48.1875ZM32.9825 48.6333L32.8397 48.7734L32.8543 48.7882L32.8716 48.7997L32.9825 48.6333ZM16.2259 31.5385L16.3687 31.3985L16.3687 31.3985L16.2259 31.5385ZM16.2259 17.3645L16.083 17.2245L16.0828 17.2248L16.2259 17.3645ZM27.4021 15.4736L27.5453 15.6131L27.7326 15.4208L27.4948 15.2964L27.4021 15.4736ZM17.0867 26.0657L16.9435 25.9261L16.8161 26.0569L16.9348 26.1956L17.0867 26.0657ZM18.086 27.234L18.2382 27.1042L18.238 27.104L18.086 27.234ZM24.8041 31.231L24.7974 31.4309L24.798 31.4309L24.8041 31.231ZM30.569 28.51L30.4257 28.3704L30.4252 28.3709L30.569 28.51ZM32.3061 26.7267L32.4043 26.5525L32.2703 26.4769L32.1628 26.5871L32.3061 26.7267ZM34.612 27.6798L34.5605 27.8731L34.5622 27.8735L34.612 27.6798ZM38.7167 27.7413L38.8599 27.6017L38.7796 27.5194L38.6682 27.5473L38.7167 27.7413ZM46.0035 35.2126L46.1932 35.1494L46.1787 35.1058L46.1467 35.073L46.0035 35.2126ZM48.2944 32.942C49.5006 31.4852 51.1844 28.6744 51.1844 24.4361H50.7844C50.7844 28.5607 49.1477 31.2843 47.9863 32.6869L48.2944 32.942ZM51.1844 24.4361C51.1844 20.7873 49.7962 17.3703 47.2996 14.8113L47.0133 15.0906C49.4361 17.5739 50.7844 20.8903 50.7844 24.4361H51.1844ZM47.2992 14.8108C44.802 12.2668 41.4608 10.8615 37.9019 10.8615V11.2615C41.3531 11.2615 44.5916 12.6234 47.0138 15.091L47.2992 14.8108ZM37.9019 10.8615C34.3591 10.8615 31.8156 11.7946 29.9687 12.9841L30.1853 13.3204C31.9665 12.1732 34.4346 11.2615 37.9019 11.2615V10.8615ZM30.188 12.9859C24.9872 9.51869 18.1937 10.224 13.6696 14.8261L13.9549 15.1065C18.3472 10.6385 24.9284 9.9602 29.9661 13.3187L30.188 12.9859ZM13.6694 14.8263C8.48937 20.1156 8.48937 28.7259 13.6694 34.0151L13.9552 33.7352C8.92745 28.6015 8.92745 20.2399 13.9552 15.1062L13.6694 14.8263ZM13.8123 33.8752C13.6694 34.0152 13.6695 34.0152 13.6696 34.0154C13.6697 34.0155 13.6699 34.0157 13.6702 34.0159C13.6707 34.0164 13.6714 34.0172 13.6723 34.0181C13.6743 34.0201 13.6772 34.0231 13.681 34.027C13.6887 34.0348 13.7001 34.0465 13.7152 34.0619C13.7455 34.0927 13.7903 34.1385 13.8488 34.1982C13.9659 34.3176 14.1377 34.4929 14.3567 34.7163C14.7946 35.163 15.421 35.8022 16.1753 36.5717C17.6837 38.1107 19.7034 40.1711 21.748 42.2571C25.8372 46.4289 30.0265 50.7027 30.4262 51.1101L30.7117 50.83C30.3121 50.4226 26.123 46.149 22.0337 41.9771C19.989 39.8911 17.9694 37.8307 16.4609 36.2917C15.7067 35.5222 15.0802 34.8831 14.6423 34.4363C14.4234 34.2129 14.2516 34.0376 14.1345 33.9182C14.076 33.8585 14.0311 33.8127 14.0009 33.7819C13.9858 33.7665 13.9743 33.7548 13.9667 33.747C13.9628 33.7431 13.9599 33.7401 13.958 33.7381C13.957 33.7372 13.9563 33.7364 13.9558 33.7359C13.9556 33.7357 13.9554 33.7355 13.9553 33.7354C13.9552 33.7352 13.9551 33.7352 13.8123 33.8752ZM30.4259 51.1098C31.1123 51.8126 32.057 52.1847 33.0747 52.1847V51.7847C32.1555 51.7847 31.317 51.4496 30.712 50.8303L30.4259 51.1098ZM33.0747 52.1847C34.3038 52.1847 35.5223 51.6351 36.4776 50.6479L36.1902 50.3698C35.3007 51.2889 34.1824 51.7847 33.0747 51.7847V52.1847ZM36.4768 50.6487C37.2132 49.8963 37.6603 48.9691 37.8518 48.0436L37.4601 47.9625C37.2826 48.8203 36.8688 49.6763 36.1909 50.369L36.4768 50.6487ZM37.6926 48.1996C38.6438 48.0223 39.5562 47.5237 40.32 46.744L40.0343 46.4641C39.3222 47.191 38.482 47.6456 37.6193 47.8064L37.6926 48.1996ZM40.3201 46.744C41.0559 45.9921 41.5043 45.0795 41.6804 44.1349L41.2872 44.0616C41.1251 44.931 40.7127 45.771 40.0342 46.4642L40.3201 46.744ZM41.5205 44.2949C42.4717 44.1175 43.3841 43.619 44.1479 42.8393L43.8622 42.5594C43.1501 43.2862 42.3099 43.7408 41.4472 43.9017L41.5205 44.2949ZM44.148 42.8392C44.8838 42.0874 45.3322 41.1748 45.5084 40.2302L45.1151 40.1569C44.953 41.0263 44.5406 41.8662 43.8621 42.5594L44.148 42.8392ZM45.3484 40.3901C46.2997 40.2128 47.212 39.7142 47.9758 38.9345L47.69 38.6546C46.978 39.3815 46.1378 39.836 45.2751 39.9969L45.3484 40.3901ZM47.9762 38.934C49.6918 37.1708 49.9305 34.3863 48.4224 32.829L48.1351 33.1073C49.4556 34.4709 49.2945 37.0055 47.6896 38.6551L47.9762 38.934ZM48.4267 32.8336L48.273 32.6645L47.977 32.9336L48.1308 33.1027L48.4267 32.8336ZM47.9837 32.9406L47.999 32.9559L48.2817 32.6729L48.2663 32.6576L47.9837 32.9406ZM44.6311 17.4586C46.4377 19.2953 47.433 21.7809 47.433 24.4361H47.833C47.833 21.68 46.7992 19.0925 44.9163 17.1781L44.6311 17.4586ZM47.433 24.4361C47.433 27.3204 46.3921 29.2315 45.5981 30.2801L45.917 30.5216C46.7525 29.418 47.833 27.4243 47.833 24.4361H47.433ZM45.9007 30.2613L41.75 26.0029L41.4636 26.2821L45.6143 30.5405L45.9007 30.2613ZM41.7318 26.2987C42.0453 26.0479 42.3428 25.7816 42.6553 25.4692L42.3724 25.1863C42.0699 25.4888 41.7833 25.7452 41.4819 25.9863L41.7318 26.2987ZM42.6557 25.1868L40.2882 22.804L40.0045 23.0859L42.372 25.4687L42.6557 25.1868ZM40.0043 22.8042C38.42 24.4033 36.8319 24.5502 35.5974 24.2736C34.348 23.9937 33.4476 23.2754 33.2829 23.1322L33.0204 23.434C33.2092 23.5983 34.1689 24.3635 35.5099 24.6639C36.8657 24.9677 38.5982 24.7918 40.2884 23.0857L40.0043 22.8042ZM33.2829 23.1322L32.0992 22.1022L31.8366 22.404L33.0203 23.434L33.2829 23.1322ZM31.8245 22.1137L28.0273 26.0185L28.3141 26.2973L32.1113 22.3926L31.8245 22.1137ZM28.0275 26.0183C26.8916 27.1845 25.8817 27.6927 24.9175 27.6644L24.9058 28.0642C26.0323 28.0973 27.1439 27.4987 28.314 26.2974L28.0275 26.0183ZM24.9179 27.6644C24.0061 27.6359 22.9595 27.0908 21.8045 26.0117L21.5314 26.304C22.713 27.4079 23.8494 28.0312 24.9054 28.0642L24.9179 27.6644ZM21.8113 26.2974L30.0974 17.7807L29.8107 17.5017L21.5246 26.0184L21.8113 26.2974ZM30.0975 17.7805C30.8568 16.9984 31.7602 16.2168 32.9954 15.6292C34.2301 15.0419 35.8067 14.6436 37.9173 14.6436V14.2436C35.7541 14.2436 34.1178 14.6524 32.8236 15.268C31.5299 15.8834 30.5885 16.7006 29.8105 17.5019L30.0975 17.7805ZM37.9173 14.6436C40.4608 14.6436 42.839 15.6515 44.6471 17.4746L44.9311 17.1929C43.0496 15.2957 40.5699 14.2436 37.9173 14.2436V14.6436ZM45.3372 36.3187C45.1192 36.5437 44.893 36.6783 44.7139 36.751C44.624 36.7875 44.5484 36.8073 44.4941 36.8159C44.4668 36.8202 44.4478 36.8212 44.4369 36.821C44.4221 36.8207 44.4318 36.8185 44.4527 36.8275L44.2952 37.1951C44.343 37.2156 44.3926 37.2202 44.4289 37.2209C44.4689 37.2217 44.5122 37.218 44.5564 37.211C44.6453 37.197 44.7504 37.1678 44.8642 37.1217C45.0925 37.0291 45.3659 36.8639 45.6245 36.597L45.3372 36.3187ZM44.5151 36.8695L37.5818 29.967L37.2996 30.2505L44.2329 37.153L44.5151 36.8695ZM37.2999 29.9668L35.3321 31.9192L35.6138 32.2031L37.5816 30.2507L37.2999 29.9668ZM35.3276 32.1986L42.0149 39.2702L42.3055 38.9953L35.6182 31.9237L35.3276 32.1986ZM41.9705 39.196C41.9692 39.1922 41.9722 39.1999 41.9725 39.2249C41.9728 39.2481 41.9708 39.2793 41.9652 39.3181C41.9539 39.3958 41.9298 39.4937 41.8912 39.6015C41.8136 39.8185 41.6844 40.057 41.5089 40.2393L41.797 40.5167C42.0212 40.2839 42.1764 39.992 42.2679 39.7363C42.3138 39.6077 42.3454 39.4837 42.3611 39.3754C42.3755 39.2754 42.3807 39.1617 42.35 39.0695L41.9705 39.196ZM41.5115 40.2366C41.2838 40.4643 41.0267 40.6284 40.8164 40.7274C40.711 40.777 40.6219 40.8081 40.558 40.8234C40.5257 40.8311 40.5049 40.8335 40.4945 40.8339C40.4768 40.8345 40.5017 40.8294 40.5377 40.85L40.3392 41.1973C40.4022 41.2333 40.4698 41.2349 40.5082 41.2336C40.554 41.2321 40.6027 41.2239 40.6509 41.2124C40.748 41.1892 40.8635 41.1473 40.9867 41.0893C41.2338 40.9731 41.5302 40.7836 41.7944 40.5194L41.5115 40.2366ZM40.5796 40.8819L33.6463 33.9794L33.3641 34.2629L40.2973 41.1654L40.5796 40.8819ZM33.3643 33.9791L31.5042 35.8239L31.7859 36.1079L33.646 34.2632L33.3643 33.9791ZM31.4997 36.1033L38.187 43.1749L38.4777 42.9001L31.7904 35.8285L31.4997 36.1033ZM38.1426 43.1008C38.1413 43.097 38.1443 43.1046 38.1446 43.1296C38.1449 43.1529 38.1429 43.1841 38.1373 43.2229C38.1261 43.3006 38.1019 43.3985 38.0633 43.5063C37.9857 43.7233 37.8565 43.9618 37.681 44.144L37.9691 44.4215C38.1933 44.1886 38.3485 43.8968 38.44 43.641C38.486 43.5125 38.5175 43.3884 38.5332 43.2802C38.5476 43.1802 38.5528 43.0665 38.5221 42.9743L38.1426 43.1008ZM37.6815 44.1435C37.456 44.3761 37.2264 44.5104 37.0481 44.5811C36.9585 44.6166 36.8843 44.635 36.8322 44.6426C36.806 44.6464 36.7886 44.6469 36.7795 44.6466C36.7652 44.646 36.781 44.644 36.8076 44.6573L36.6288 45.0151C36.6785 45.0399 36.7308 45.045 36.7646 45.0463C36.8037 45.0478 36.8461 45.0447 36.8895 45.0384C36.9768 45.0258 37.0813 44.9982 37.1954 44.9529C37.4245 44.8622 37.7022 44.6967 37.9686 44.422L37.6815 44.1435ZM36.8596 44.6948C36.4902 44.3254 34.7526 42.6031 33.1079 40.9738C32.2854 40.159 31.486 39.3673 30.8922 38.7793C30.5953 38.4853 30.3498 38.2422 30.1786 38.0726C30.0929 37.9878 30.0259 37.9214 29.9802 37.8762C29.9573 37.8535 29.9399 37.8362 29.9281 37.8246C29.9222 37.8188 29.9177 37.8143 29.9148 37.8114C29.9133 37.8099 29.9121 37.8088 29.9114 37.808C29.911 37.8077 29.9107 37.8074 29.9105 37.8072C29.9104 37.8071 29.9104 37.807 29.9103 37.807C29.9103 37.8069 29.9103 37.8069 29.7695 37.949C29.6288 38.0912 29.6288 38.0912 29.6289 38.0912C29.6289 38.0913 29.629 38.0914 29.6291 38.0914C29.6293 38.0916 29.6296 38.0919 29.63 38.0923C29.6307 38.093 29.6318 38.0941 29.6333 38.0956C29.6363 38.0986 29.6408 38.103 29.6467 38.1088C29.6584 38.1205 29.6759 38.1378 29.6987 38.1604C29.7444 38.2056 29.8115 38.272 29.8971 38.3568C30.0684 38.5264 30.3139 38.7695 30.6108 39.0635C31.2045 39.6515 32.0039 40.4432 32.8264 41.258C34.4716 42.8878 36.2083 44.6091 36.5768 44.9776L36.8596 44.6948ZM29.6287 37.8071L27.6609 39.7594L27.9426 40.0434L29.9104 38.091L29.6287 37.8071ZM27.8018 39.9014C27.6564 40.0388 27.6564 40.0388 27.6565 40.0389C27.6565 40.0389 27.6566 40.039 27.6567 40.0391C27.6569 40.0393 27.6571 40.0395 27.6575 40.0399C27.6582 40.0407 27.6592 40.0418 27.6606 40.0433C27.6634 40.0462 27.6676 40.0506 27.6731 40.0565C27.6841 40.0681 27.7005 40.0854 27.7219 40.1081C27.7647 40.1533 27.8276 40.2199 27.9079 40.3048C28.0685 40.4747 28.299 40.7185 28.5784 41.0138C29.1371 41.6045 29.8914 42.4016 30.6736 43.227C32.2369 44.8767 33.9144 46.6427 34.3618 47.0979L34.6471 46.8175C34.2029 46.3656 32.5291 44.6035 30.9639 42.9518C30.1819 42.1266 29.4277 41.3296 28.869 40.739C28.5896 40.4437 28.3592 40.1999 28.1986 40.03C28.1182 39.9451 28.0554 39.8786 28.0126 39.8333C27.9912 39.8107 27.9749 39.7934 27.9638 39.7817C27.9583 39.7759 27.9542 39.7715 27.9514 39.7685C27.95 39.767 27.9489 39.7659 27.9482 39.7652C27.9479 39.7648 27.9476 39.7645 27.9474 39.7643C27.9473 39.7642 27.9473 39.7642 27.9472 39.7641C27.9472 39.7641 27.9471 39.7641 27.8018 39.9014ZM34.3147 47.0209C34.3135 47.0171 34.3164 47.0248 34.3167 47.0497C34.317 47.0729 34.315 47.1041 34.3094 47.1427C34.2982 47.2201 34.2741 47.3174 34.2356 47.424C34.1581 47.6389 34.0295 47.8723 33.8557 48.0461L34.1386 48.3289C34.3645 48.103 34.5203 47.8138 34.6119 47.5597C34.658 47.4319 34.6896 47.3083 34.7053 47.2002C34.7198 47.1003 34.7249 46.9866 34.6942 46.8944L34.3147 47.0209ZM33.8536 48.0483C33.628 48.2809 33.4256 48.388 33.281 48.4326C33.2081 48.4551 33.151 48.4614 33.1131 48.461C33.0667 48.4604 33.0689 48.4505 33.0934 48.4669L32.8716 48.7997C32.9422 48.8469 33.0328 48.86 33.1084 48.8609C33.1926 48.8619 33.2912 48.8481 33.3989 48.8148C33.6155 48.748 33.8743 48.6014 34.1407 48.3267L33.8536 48.0483ZM33.1253 48.4933C32.7256 48.0859 28.5365 43.8123 24.4472 39.6404C22.4026 37.5544 20.383 35.494 18.8745 33.955C18.1203 33.1855 17.4938 32.5463 17.0559 32.0996C16.837 31.8762 16.6652 31.7009 16.5481 31.5815C16.4896 31.5218 16.4447 31.476 16.4145 31.4452C16.3994 31.4298 16.3879 31.4181 16.3803 31.4103C16.3764 31.4064 16.3735 31.4034 16.3716 31.4014C16.3706 31.4004 16.3699 31.3997 16.3694 31.3992C16.3692 31.399 16.369 31.3988 16.3689 31.3987C16.3687 31.3985 16.3687 31.3985 16.2259 31.5385C16.083 31.6785 16.0831 31.6785 16.0832 31.6787C16.0833 31.6788 16.0835 31.679 16.0838 31.6792C16.0842 31.6797 16.085 31.6804 16.0859 31.6814C16.0879 31.6834 16.0908 31.6864 16.0946 31.6903C16.1023 31.6981 16.1137 31.7098 16.1288 31.7252C16.159 31.756 16.2039 31.8018 16.2624 31.8615C16.3795 31.9809 16.5513 32.1562 16.7703 32.3796C17.2081 32.8263 17.8346 33.4655 18.5888 34.235C20.0973 35.7739 22.117 37.8344 24.1616 39.9204C28.2508 44.0922 32.44 48.366 32.8397 48.7734L33.1253 48.4933ZM16.3687 31.3985C12.6172 27.5716 12.6168 21.3468 16.369 17.5042L16.0828 17.2248C12.1791 21.2224 12.1788 27.6958 16.083 31.6785L16.3687 31.3985ZM16.3687 17.5045C19.3676 14.4453 23.7458 13.7863 27.3094 15.6508L27.4948 15.2964C23.7715 13.3483 19.2026 14.0422 16.083 17.2245L16.3687 17.5045ZM27.2588 15.3341L16.9435 25.9261L17.23 26.2052L27.5453 15.6131L27.2588 15.3341ZM16.9348 26.1956L17.934 27.364L18.238 27.104L17.2387 25.9357L16.9348 26.1956ZM17.9338 27.3638C20.1812 29.9987 22.4276 31.3514 24.7974 31.4309L24.8108 31.0311C22.5993 30.9569 20.4489 29.6962 18.2382 27.1042L17.9338 27.3638ZM24.798 31.4309C26.883 31.4946 28.8713 30.5529 30.7127 28.649L30.4252 28.3709C28.6386 30.2181 26.7529 31.0904 24.8102 31.0311L24.798 31.4309ZM30.7122 28.6495L32.4493 26.8662L32.1628 26.5871L30.4257 28.3704L30.7122 28.6495ZM32.2078 26.9009C32.8178 27.245 33.6176 27.6216 34.5605 27.8731L34.6636 27.4866C33.7617 27.2461 32.9935 26.8848 32.4043 26.5525L32.2078 26.9009ZM34.5622 27.8735C35.6607 28.156 37.2485 28.3145 38.7652 27.9353L38.6682 27.5473C37.2333 27.906 35.7156 27.7571 34.6619 27.4861L34.5622 27.8735ZM38.5735 27.881L45.8603 35.3523L46.1467 35.073L38.8599 27.6017L38.5735 27.881ZM45.8138 35.2759C45.8125 35.2721 45.8154 35.2797 45.8158 35.3047C45.8161 35.328 45.8141 35.3592 45.8085 35.398C45.7972 35.4757 45.773 35.5736 45.7345 35.6814C45.6569 35.8984 45.5276 36.1369 45.3521 36.3191L45.6403 36.5966C45.8645 36.3638 46.0196 36.0719 46.1111 35.8161C46.1571 35.6876 46.1887 35.5635 46.2043 35.4553C46.2188 35.3553 46.224 35.2416 46.1932 35.1494L45.8138 35.2759Z" fill="white" mask="url(#path-2-inside-1_39_4655)"/>
</g>
</svg>
