<svg width="30" height="30" viewBox="0 0 30 30" fill="none" xmlns="http://www.w3.org/2000/svg">
<path fill-rule="evenodd" clip-rule="evenodd" d="M0.164062 14.5823C0.164062 6.52871 6.69277 0 14.7463 0C22.7999 0 29.3286 6.52871 29.3286 14.5823C29.3286 22.6358 22.7999 29.1646 14.7463 29.1646C6.69277 29.1646 0.164062 22.6358 0.164062 14.5823Z" fill="white"/>
<g clip-path="url(#clip0_519_9500)">
<path d="M14.6641 7.53184C16.9338 7.53184 17.2024 7.54061 18.0989 7.58143C18.9276 7.61922 19.3777 7.75756 19.6773 7.87397C20.0741 8.02816 20.3572 8.21239 20.6548 8.50965C20.9523 8.80724 21.1366 9.09033 21.2904 9.48712C21.4068 9.78674 21.5452 10.2368 21.583 11.0655C21.6238 11.9617 21.6326 12.2306 21.6326 14.5003C21.6326 16.7701 21.6238 17.0387 21.583 17.9352C21.5452 18.7638 21.4068 19.2139 21.2904 19.5136C21.1362 19.9104 20.952 20.1934 20.6548 20.491C20.3572 20.7886 20.0741 20.9729 19.6773 21.1267C19.3777 21.2431 18.9276 21.3815 18.0989 21.4192C17.2027 21.4601 16.9338 21.4688 14.6641 21.4688C12.3943 21.4688 12.1254 21.4601 11.2292 21.4192C10.4006 21.3815 9.95046 21.2431 9.65084 21.1267C9.25405 20.9725 8.97097 20.7883 8.67337 20.491C8.37578 20.1934 8.19155 19.9104 8.03769 19.5136C7.92129 19.2139 7.78295 18.7638 7.74516 17.9352C7.70433 17.039 7.69556 16.7701 7.69556 14.5003C7.69556 12.2306 7.70433 11.962 7.74516 11.0655C7.78295 10.2368 7.92129 9.78674 8.03769 9.48712C8.19189 9.09033 8.37611 8.80724 8.67337 8.50965C8.97063 8.21205 9.25405 8.02783 9.65084 7.87397C9.95046 7.75756 10.4006 7.61922 11.2292 7.58143C12.1254 7.54061 12.3943 7.53184 14.6641 7.53184ZM14.6641 6.00034C12.3555 6.00034 12.066 6.01012 11.1594 6.05162C10.2548 6.09279 9.63667 6.23652 9.09614 6.44673C8.53706 6.66402 8.063 6.95453 7.59063 7.42724C7.11792 7.89995 6.82741 8.37367 6.61012 8.93276C6.40025 9.47329 6.25651 10.0911 6.21535 10.9957C6.17385 11.9023 6.16406 12.1918 6.16406 14.5003C6.16406 16.8089 6.17385 17.0984 6.21535 18.005C6.25651 18.9096 6.40025 19.5277 6.61045 20.0683C6.82775 20.6273 7.11825 21.1014 7.59096 21.5738C8.06367 22.0465 8.5374 22.337 9.09648 22.5543C9.63701 22.7645 10.2551 22.9082 11.1597 22.9494C12.0664 22.9909 12.3558 23.0007 14.6644 23.0007C16.9729 23.0007 17.2624 22.9909 18.1691 22.9494C19.0737 22.9082 19.6918 22.7645 20.2323 22.5543C20.7914 22.337 21.2655 22.0465 21.7378 21.5738C22.2105 21.1011 22.5011 20.6273 22.7183 20.0683C22.9286 19.5277 23.0723 18.9096 23.1135 18.005C23.155 17.0984 23.1647 16.8089 23.1647 14.5003C23.1647 12.1918 23.155 11.9023 23.1135 10.9957C23.0723 10.0911 22.9286 9.47295 22.7183 8.93242C22.5011 8.37333 22.2105 7.89927 21.7378 7.4269C21.2651 6.95419 20.7914 6.66368 20.2323 6.44639C19.6918 6.23619 19.0737 6.09245 18.1691 6.05129C17.2624 6.00978 16.9729 6 14.6644 6L14.6641 6.00034Z" fill="#003399"/>
<path d="M14.6655 10.1348C12.2547 10.1348 10.3008 12.089 10.3008 14.4995C10.3008 16.9099 12.2551 18.8642 14.6655 18.8642C17.0759 18.8642 19.0302 16.9099 19.0302 14.4995C19.0302 12.089 17.0759 10.1348 14.6655 10.1348ZM14.6655 17.333C13.1006 17.333 11.8323 16.0644 11.8323 14.4998C11.8323 12.9353 13.1009 11.6666 14.6655 11.6666C16.2301 11.6666 17.4987 12.9353 17.4987 14.4998C17.4987 16.0644 16.2301 17.333 14.6655 17.333Z" fill="#003399"/>
<path d="M19.2016 10.9833C19.7649 10.9833 20.2216 10.5267 20.2216 9.96335C20.2216 9.40002 19.7649 8.94336 19.2016 8.94336C18.6383 8.94336 18.1816 9.40002 18.1816 9.96335C18.1816 10.5267 18.6383 10.9833 19.2016 10.9833Z" fill="#003399"/>
</g>
<defs>
<clipPath id="clip0_519_9500">
<rect width="17" height="17" fill="white" transform="translate(6.16406 6)"/>
</clipPath>
</defs>
</svg>
