<svg width="60" height="60" viewBox="0 0 60 60" fill="none" xmlns="http://www.w3.org/2000/svg">
<path d="M18.7002 45.8742L26.4502 51.8742C27.4502 52.8742 29.7002 53.3742 31.2002 53.3742H40.7002C43.7002 53.3742 46.9502 51.1242 47.7002 48.1242L53.7002 29.8742C54.9502 26.3742 52.7002 23.3742 48.9502 23.3742H38.9502C37.4502 23.3742 36.2002 22.1242 36.4502 20.3742L37.7002 12.3742C38.2002 10.1242 36.7002 7.62419 34.4502 6.87419C32.4502 6.12419 29.9502 7.12419 28.9502 8.62419L18.7002 23.8742" stroke="#005023" stroke-width="4" stroke-miterlimit="10"/>
<path d="M5.9502 45.875V21.375C5.9502 17.875 7.4502 16.625 10.9502 16.625H13.4502C16.9502 16.625 18.4502 17.875 18.4502 21.375V45.875C18.4502 49.375 16.9502 50.625 13.4502 50.625H10.9502C7.4502 50.625 5.9502 49.375 5.9502 45.875Z" stroke="#005023" stroke-width="4" stroke-linecap="round" stroke-linejoin="round"/>
</svg>
