<svg width="30" height="30" viewBox="0 0 30 30" fill="none" xmlns="http://www.w3.org/2000/svg">
<path fill-rule="evenodd" clip-rule="evenodd" d="M0.291016 14.5823C0.291016 6.52871 6.81972 0 14.8733 0C22.9269 0 29.4556 6.52871 29.4556 14.5823C29.4556 22.6358 22.9269 29.1646 14.8733 29.1646C6.81972 29.1646 0.291016 22.6358 0.291016 14.5823Z" fill="white"/>
<path d="M11.2736 12.5303H8.43689C8.311 12.5303 8.20898 12.6323 8.20898 12.7582V21.8713C8.20898 21.9972 8.311 22.0992 8.43689 22.0992H11.2736C11.3995 22.0992 11.5015 21.9972 11.5015 21.8713V12.7582C11.5015 12.6323 11.3995 12.5303 11.2736 12.5303Z" fill="#003399"/>
<path d="M9.85624 8C8.82408 8 7.98438 8.8388 7.98438 9.86981C7.98438 10.9013 8.82408 11.7404 9.85624 11.7404C10.8876 11.7404 11.7266 10.9012 11.7266 9.86981C11.7266 8.8388 10.8876 8 9.85624 8Z" fill="#003399"/>
<path d="M18.489 12.3037C17.3497 12.3037 16.5075 12.7935 15.9967 13.35V12.7581C15.9967 12.6323 15.8947 12.5302 15.7688 12.5302H13.0521C12.9262 12.5302 12.8242 12.6323 12.8242 12.7581V21.8712C12.8242 21.9971 12.9262 22.0991 13.0521 22.0991H15.8826C16.0085 22.0991 16.1105 21.9971 16.1105 21.8712V17.3623C16.1105 15.843 16.5232 15.251 17.5824 15.251C18.7359 15.251 18.8275 16.2 18.8275 17.4405V21.8712C18.8275 21.9971 18.9295 22.0992 19.0554 22.0992H21.887C22.0129 22.0992 22.1149 21.9971 22.1149 21.8712V16.8726C22.1149 14.6133 21.6841 12.3037 18.489 12.3037Z" fill="#003399"/>
</svg>
