<svg width="30" height="26" viewBox="0 0 30 26" fill="none" xmlns="http://www.w3.org/2000/svg">
<path d="M9.96176 23.7201C8.45457 23.979 6.84982 23.7385 5.4242 22.9154C2.1871 21.0465 1.05738 16.8642 2.93251 13.6163L6.02679 8.25688C7.89574 5.01977 12.0888 3.89625 15.3259 5.76519C18.563 7.63413 19.6927 11.8165 17.8176 15.0643L17.7704 15.1459" stroke="#003399" stroke-width="3" stroke-linecap="round" stroke-linejoin="round"/>
<path d="M20.031 2.2769C21.5382 2.01802 23.143 2.25852 24.5686 3.0816C27.8057 4.95054 28.9354 9.13287 27.0603 12.3807L23.966 17.7401C22.097 20.9773 17.904 22.1008 14.6669 20.2318C11.4298 18.3629 10.3001 14.1806 12.1752 10.9327L12.2223 10.8511" stroke="#003399" stroke-width="3" stroke-linecap="round" stroke-linejoin="round"/>
</svg>
