<svg width="60" height="60" viewBox="0 0 60 60" fill="none" xmlns="http://www.w3.org/2000/svg">
<path d="M43.2251 10.3505L43.0501 19.8254C43.0251 21.1254 43.8502 22.8505 44.9002 23.6255L51.1002 28.3254C55.0752 31.3254 54.4252 35.0005 49.6752 36.5005L41.6002 39.0254C40.2502 39.4504 38.8252 40.9255 38.4752 42.3005L36.5502 49.6504C35.0252 55.4504 31.2251 56.0254 28.0751 50.9254L23.6751 43.8004C22.8751 42.5004 20.9751 41.5255 19.4751 41.6005L11.1252 42.0254C5.1502 42.3254 3.45018 38.8755 7.35018 34.3255L12.3001 28.5754C13.2251 27.5004 13.6501 25.5004 13.2251 24.1504L10.7002 16.0754C9.22525 11.3254 11.8752 8.70045 16.6002 10.2505L23.9752 12.6755C25.2252 13.0755 27.1002 12.8004 28.1502 12.0254L35.8502 6.47543C40.0002 3.47543 43.3251 5.22547 43.2251 10.3505Z" stroke="#005023" stroke-width="4" stroke-linecap="round" stroke-linejoin="round"/>
<path d="M54.7751 55.0008L47.2002 47.4258" stroke="#005023" stroke-width="4" stroke-linecap="round" stroke-linejoin="round"/>
</svg>
