<svg width="524" height="354" viewBox="0 0 524 354" fill="none" xmlns="http://www.w3.org/2000/svg">
<path d="M61.4903 139.934C72.8104 128.618 72.8104 110.272 61.4903 98.9566C50.1703 87.641 31.8168 87.641 20.4968 98.9566C9.17672 110.272 9.17671 128.618 20.4968 139.934C31.8168 151.25 50.1702 151.25 61.4903 139.934Z" fill="#005023"/>
<path d="M443.787 320.137C442.163 326.538 439.913 332.315 435.915 337.592C428.137 347.895 414.893 354.234 401.899 352.735C322.466 342.837 242.47 342.837 163.037 352.735C149.949 354.671 136.83 347.708 129.021 337.592C124.929 332.346 122.774 326.538 121.149 320.137C109.404 257.409 101.72 194.087 98.2844 130.359C221.042 135.293 343.925 135.293 466.683 130.359C463.216 194.087 455.532 257.409 443.787 320.137Z" fill="url(#paint0_linear_185_29683)"/>
<path d="M466.652 130.359C466.652 130.359 466.62 130.391 466.558 130.422L466.527 130.453C447.316 142.63 427.825 154.37 408.24 165.923C397.651 172.168 387.031 178.319 376.379 184.501C373.724 186.031 371.038 187.593 368.383 189.123C354.327 197.241 340.239 205.328 326.214 213.508C311.564 222.032 296.977 230.619 282.484 239.393C267.99 230.619 253.403 222.032 238.753 213.508C232.037 209.605 225.29 205.702 218.543 201.799C218.169 201.581 217.794 201.362 217.419 201.144C210.484 197.147 203.519 193.119 196.553 189.123C193.117 187.124 189.65 185.126 186.214 183.159C176.375 177.445 166.504 171.731 156.696 165.954C137.048 154.402 117.526 142.63 98.2844 130.391C102.126 130.547 105.968 130.703 109.779 130.828C113.247 130.953 116.714 131.078 120.181 131.202C121.087 131.234 121.961 131.265 122.867 131.296C125.023 131.39 127.209 131.452 129.364 131.515C131.176 131.577 132.988 131.64 134.799 131.702C135.268 131.733 135.768 131.733 136.236 131.733C138.829 131.827 141.39 131.889 143.983 131.983C146.575 132.077 149.199 132.139 151.792 132.202C153.447 132.264 155.072 132.295 156.727 132.326C159.351 132.389 161.975 132.483 164.599 132.545C167.222 132.607 169.846 132.67 172.47 132.732C175.094 132.795 177.718 132.857 180.342 132.92C180.404 132.92 180.435 132.92 180.467 132.92C183.621 132.982 186.807 133.045 189.962 133.107C194.242 133.201 198.521 133.263 202.8 133.357C205.799 133.419 208.766 133.451 211.765 133.513C211.859 133.513 211.984 133.513 212.077 133.513C213.577 133.544 215.076 133.544 216.575 133.575C218.512 133.607 220.449 133.638 222.385 133.669C223.76 133.7 225.165 133.7 226.54 133.732C229.476 133.763 232.412 133.794 235.38 133.825C237.066 133.856 238.753 133.856 240.471 133.888C242.095 133.919 243.72 133.919 245.375 133.919C246.874 133.919 248.374 133.95 249.873 133.95C254.121 133.981 258.401 134.013 262.649 134.013C264.617 134.013 266.616 134.044 268.584 134.044C270.583 134.044 272.582 134.044 274.55 134.044C279.922 134.044 285.295 134.044 290.667 134.044C292.573 134.044 294.478 134.044 296.384 134.044C298.57 134.044 300.725 134.044 302.912 134.013C308.347 133.981 313.751 133.95 319.186 133.919C321.279 133.919 323.34 133.888 325.433 133.856C326.87 133.856 328.307 133.825 329.744 133.825C333.773 133.794 337.803 133.732 341.863 133.7C344.394 133.669 346.924 133.638 349.454 133.607C350.734 133.575 352.046 133.575 353.327 133.544C356.419 133.482 359.543 133.451 362.667 133.388C363.354 133.388 364.072 133.357 364.759 133.357C368.07 133.294 371.382 133.232 374.693 133.17C378.066 133.107 381.44 133.045 384.813 132.951C384.938 132.951 385.032 132.951 385.157 132.951C387.656 132.888 390.186 132.826 392.685 132.764C395.277 132.701 397.901 132.639 400.525 132.576C404.461 132.483 408.427 132.358 412.363 132.264C414.237 132.202 416.143 132.17 418.017 132.108C419.673 132.045 421.359 132.014 423.015 131.952C425.451 131.889 427.888 131.796 430.324 131.733C431.948 131.671 433.573 131.64 435.228 131.577C437.696 131.483 440.132 131.421 442.6 131.327C443.381 131.296 444.162 131.265 444.943 131.234C448.41 131.109 451.877 130.984 455.344 130.859C458.968 130.672 462.81 130.515 466.652 130.359Z" fill="#032B7B"/>
<path d="M466.652 130.359C462.81 130.515 458.968 130.671 455.157 130.796C451.69 130.921 448.222 131.046 444.755 131.171C443.974 131.202 443.193 131.234 442.413 131.265C439.945 131.358 437.508 131.421 435.041 131.515C433.417 131.577 431.761 131.608 430.137 131.671C427.7 131.764 425.264 131.827 422.828 131.889C421.172 131.952 419.485 131.983 417.83 132.045C415.956 132.108 414.05 132.17 412.176 132.201C408.24 132.326 404.273 132.42 400.338 132.514C397.745 132.576 395.121 132.639 392.497 132.701C389.998 132.763 387.468 132.826 384.969 132.888C384.844 132.888 384.751 132.888 384.626 132.888C381.252 132.982 377.879 133.044 374.505 133.107C371.194 133.169 367.883 133.232 364.572 133.294C363.885 133.294 363.167 133.326 362.479 133.326C359.356 133.388 356.263 133.419 353.14 133.482C351.859 133.513 350.547 133.513 349.267 133.544C346.736 133.575 344.206 133.607 341.676 133.638C337.647 133.7 333.617 133.731 329.557 133.763C328.12 133.794 326.683 133.794 325.246 133.794C323.153 133.825 321.092 133.825 318.999 133.856C313.564 133.888 308.16 133.95 302.725 133.95C300.538 133.95 298.383 133.981 296.196 133.981C294.291 133.981 292.386 133.981 290.48 133.981C285.108 133.981 279.735 133.981 274.362 133.981C272.363 133.981 270.364 133.981 268.396 133.981C266.428 133.981 264.429 133.981 262.461 133.95C258.213 133.919 253.934 133.919 249.686 133.888C248.187 133.888 246.687 133.856 245.188 133.856C243.564 133.856 241.939 133.825 240.284 133.825C238.597 133.825 236.91 133.794 235.192 133.763C232.256 133.731 229.32 133.7 226.353 133.669C224.978 133.669 223.573 133.638 222.198 133.607C220.262 133.575 218.325 133.544 216.388 133.513C214.889 133.482 213.39 133.482 211.89 133.45C211.797 133.45 211.672 133.45 211.578 133.45C208.579 133.419 205.612 133.357 202.613 133.294C198.334 133.232 194.054 133.138 189.775 133.045C186.62 132.982 183.434 132.92 180.279 132.857C180.217 132.857 180.186 132.857 180.154 132.857C177.531 132.795 174.907 132.732 172.283 132.67C169.659 132.607 167.035 132.545 164.411 132.482C161.788 132.42 159.164 132.358 156.54 132.264C154.884 132.233 153.26 132.17 151.605 132.139C149.012 132.077 146.388 131.983 143.796 131.92C141.234 131.827 138.642 131.764 136.049 131.671C135.58 131.671 135.081 131.639 134.612 131.639C132.8 131.577 130.989 131.515 129.177 131.452C127.022 131.39 124.835 131.296 122.68 131.234C121.774 131.202 120.868 131.171 119.994 131.14C116.526 131.015 113.059 130.89 109.592 130.765C105.75 130.609 101.908 130.484 98.0972 130.328C157.696 84.2105 221.511 44.088 282.453 0C339.864 41.5276 399.775 79.527 456.25 122.366C459.717 125.02 463.185 127.674 466.652 130.359Z" fill="#003399"/>
<path d="M408.241 46.7422V165.892C366.416 190.528 323.997 214.227 282.453 239.33C267.959 230.557 253.372 221.97 238.722 213.446C232.007 209.543 225.26 205.64 218.513 201.737C218.138 201.518 217.763 201.3 217.388 201.081C197.116 189.372 176.844 177.726 156.665 165.861V46.7422C156.665 39.0611 162.944 32.7852 170.628 32.7852H394.247C401.931 32.7852 408.241 39.0611 408.241 46.7422Z" fill="#F3F5FF"/>
<path d="M263.336 32.7852C246.656 33.4096 229.944 33.7531 213.264 33.9717C204.924 34.1278 196.584 34.1278 188.244 34.2214L175.719 34.2839H172.595H171.033H170.658L170.315 34.3151L169.628 34.3463C167.785 34.5025 165.973 35.0957 164.38 36.0324C162.787 36.9691 161.381 38.2805 160.319 39.8105C159.288 41.3405 158.601 43.1202 158.32 44.9624C158.226 45.4308 158.226 45.8991 158.195 46.3363L158.164 46.6797C158.164 46.8046 158.164 46.9295 158.164 47.0544V47.835V50.9574L158.133 57.2021C158.039 65.5389 158.008 73.8756 157.883 82.2124C157.664 98.8859 157.321 115.591 156.696 132.264V46.7422C156.696 39.0611 162.974 32.7852 170.658 32.7852H263.336Z" fill="#C9D7F3"/>
<path d="M435.915 337.591C429.512 346.24 419.36 351.923 408.709 352.829C406.428 353.016 404.148 352.985 401.868 352.735C322.435 342.837 242.439 342.837 163.006 352.735C160.788 353.047 158.601 353.141 156.415 352.985C145.67 352.235 135.549 345.991 128.99 337.591C130.145 335.843 131.332 334.094 132.519 332.346C163.068 287.696 200.364 248.76 240.034 212.228C253.559 210.292 267.771 209.262 282.421 209.262C297.102 209.262 311.315 210.292 324.84 212.228C364.51 248.729 401.837 287.665 432.354 332.346C433.573 334.094 434.728 335.843 435.915 337.591Z" fill="url(#paint1_linear_185_29683)"/>
<path opacity="0.1" d="M226.696 206.512C170.908 258.031 128.99 337.589 128.99 337.589C130.145 335.841 131.332 334.092 132.519 332.344C162.724 288.162 199.521 249.601 238.691 213.443C234.692 211.164 230.694 208.854 226.696 206.512Z" fill="#686868"/>
<path opacity="0.1" d="M338.209 206.512C393.997 258.031 435.915 337.589 435.915 337.589C434.76 335.841 433.573 334.092 432.386 332.344C402.181 288.162 365.384 249.601 326.214 213.443C330.181 211.164 334.18 208.854 338.209 206.512Z" fill="#686868"/>
<path d="M326.371 84.8953H236.224C230.07 84.8953 225.041 79.8683 225.041 73.7172C225.041 67.5661 230.07 62.5391 236.224 62.5391H326.402C332.556 62.5391 337.585 67.5661 337.585 73.7172C337.553 79.8683 332.524 84.8953 326.371 84.8953Z" fill="#B9CAEC"/>
<path d="M370.975 130.362H191.617C188.619 130.362 186.151 127.895 186.151 124.898C186.151 121.9 188.619 119.434 191.617 119.434H370.975C373.974 119.434 376.441 121.9 376.441 124.898C376.441 127.926 373.974 130.362 370.975 130.362Z" fill="#B9CAEC"/>
<path d="M370.975 159.741H191.617C188.619 159.741 186.151 157.274 186.151 154.277C186.151 151.279 188.619 148.812 191.617 148.812H370.975C373.974 148.812 376.441 151.279 376.441 154.277C376.441 157.274 373.974 159.741 370.975 159.741Z" fill="#B9CAEC"/>
<path d="M376.442 183.629C376.442 183.91 376.411 184.191 376.38 184.472C373.725 186.002 371.039 187.563 368.383 189.093H196.523C193.087 187.094 189.619 185.096 186.183 183.129C186.308 181.818 186.902 180.662 187.745 179.788C188.745 178.789 190.119 178.196 191.618 178.196H371.007C373.975 178.164 376.442 180.631 376.442 183.629Z" fill="#B9CAEC"/>
<path opacity="0.1" d="M466.652 130.361C466.652 130.361 466.621 130.392 466.558 130.423L466.527 130.454C447.317 142.631 427.825 154.372 408.24 165.924C397.651 172.169 387.031 178.32 376.38 184.503C373.724 186.033 371.038 187.594 368.383 189.124C354.327 197.242 340.239 205.329 326.214 213.509C326.87 213.041 393.247 163.583 442.413 131.297C447.223 128.144 451.846 125.146 456.25 122.398C459.717 125.021 463.185 127.675 466.652 130.361Z" fill="#003399"/>
<path opacity="0.1" d="M98.2539 130.361C98.2539 130.361 98.2851 130.392 98.3476 130.423L98.3788 130.454C117.589 142.631 137.08 154.372 156.665 165.924C167.254 172.169 177.875 178.32 188.526 184.503C191.181 186.033 193.868 187.594 196.523 189.124C210.579 197.242 224.666 205.329 238.691 213.509C238.035 213.041 171.659 163.583 122.493 131.297C117.683 128.144 113.06 125.146 108.656 122.398C105.188 125.021 101.721 127.675 98.2539 130.361Z" fill="#003399"/>
<path d="M98.2542 213.131C107.915 213.131 115.746 205.302 115.746 195.645C115.746 185.989 107.915 178.16 98.2542 178.16C88.5935 178.16 80.762 185.989 80.762 195.645C80.762 205.302 88.5935 213.131 98.2542 213.131Z" stroke="#86A8FF" stroke-width="8" stroke-miterlimit="10"/>
<path d="M453.816 87.0204C466.374 87.0204 476.555 76.8434 476.555 64.2895C476.555 51.7356 466.374 41.5586 453.816 41.5586C441.257 41.5586 431.076 51.7356 431.076 64.2895C431.076 76.8434 441.257 87.0204 453.816 87.0204Z" stroke="#86A8FF" stroke-width="8" stroke-miterlimit="10"/>
<path d="M123.993 57.8251H117.339V51.112C117.339 50.2377 116.652 49.5508 115.778 49.5508C114.903 49.5508 114.216 50.2377 114.216 51.112V57.8251H107.5C106.625 57.8251 105.938 58.512 105.938 59.3863C105.938 60.2605 106.625 60.9475 107.5 60.9475H114.216V67.5981C114.216 68.4724 114.903 69.1593 115.778 69.1593C116.652 69.1593 117.339 68.4724 117.339 67.5981V60.9475H123.993C124.867 60.9475 125.554 60.2605 125.554 59.3863C125.554 58.512 124.836 57.8251 123.993 57.8251Z" fill="#86A8FF"/>
<path d="M522.192 108.532H515.538V101.819C515.538 100.945 514.851 100.258 513.977 100.258C513.102 100.258 512.415 100.945 512.415 101.819V108.532H505.699C504.824 108.532 504.137 109.219 504.137 110.093C504.137 110.968 504.824 111.654 505.699 111.654H512.415V118.305C512.415 119.179 513.102 119.866 513.977 119.866C514.851 119.866 515.538 119.179 515.538 118.305V111.654H522.192C523.066 111.654 523.753 110.968 523.753 110.093C523.753 109.219 523.066 108.532 522.192 108.532Z" fill="#005023"/>
<path d="M476.902 184.471C482.562 178.813 482.562 169.64 476.902 163.982C471.242 158.324 462.065 158.324 456.405 163.982C450.745 169.64 450.745 178.813 456.405 184.471C462.065 190.129 471.242 190.129 476.902 184.471Z" fill="#86A8FF"/>
<defs>
<linearGradient id="paint0_linear_185_29683" x1="282.484" y1="130.359" x2="282.484" y2="353.059" gradientUnits="userSpaceOnUse">
<stop stop-color="#003399"/>
<stop offset="1" stop-color="#1855CF"/>
</linearGradient>
<linearGradient id="paint1_linear_185_29683" x1="282.452" y1="348.13" x2="282.452" y2="209.574" gradientUnits="userSpaceOnUse">
<stop stop-color="#003399"/>
<stop offset="1" stop-color="#3F72D7"/>
</linearGradient>
</defs>
</svg>
