<svg width="50" height="50" viewBox="0 0 50 50" fill="none" xmlns="http://www.w3.org/2000/svg">
<path d="M2.97226 9.21059C2 10.3608 2 12.3328 2 16.2768V38.0327C2 40.8259 2 42.2226 2.70111 43.2741C3.4022 44.3254 4.62796 44.7671 7.07945 45.6504L9.96365 46.6894C11.5257 47.2525 12.7277 47.6854 13.7364 47.9642C14.3944 48.1463 15 47.6094 15 46.9018V11.8122C15 11.2356 14.5906 10.7491 14.0529 10.6073C13.1855 10.3787 12.1428 10.003 10.7138 9.48807C7.25221 8.24086 5.52146 7.61727 4.20455 8.25054C3.73697 8.47537 3.31744 8.80222 2.97226 9.21059Z" fill="#005023"/>
<path d="M26.489 5.05145L22.8026 7.54518C21.4689 8.44732 20.4916 9.10847 19.657 9.57984C19.2615 9.80325 19 10.2074 19 10.6533V45.8861C19 46.7538 19.9216 47.2954 20.6709 46.8278C21.4749 46.326 22.3958 45.7032 23.511 44.9485L27.1974 42.4548C28.5309 41.5528 29.5084 40.8916 30.3429 40.4202C30.7386 40.1969 31 39.7927 31 39.3469V4.11407C31 3.24633 30.0784 2.70455 29.3291 3.17215C28.5251 3.67405 27.6042 4.29697 26.489 5.05145Z" fill="#005023"/>
<path d="M42.9206 4.34967L40.0364 3.3105C38.4741 2.74761 37.2723 2.31461 36.2636 2.03573C35.6055 1.85382 35 2.39063 35 3.09829V38.1878C35 38.7643 35.4094 39.2509 35.9469 39.3926C36.8145 39.6212 37.8573 39.9969 39.2862 40.5118C42.7477 41.759 44.4786 42.3827 45.7955 41.7495C46.263 41.5246 46.6825 41.1978 47.0277 40.7893C48 39.6393 48 37.6671 48 33.7233V11.9673C48 9.17406 48 7.77747 47.2989 6.72605C46.5978 5.6746 45.3721 5.23296 42.9206 4.34967Z" fill="#005023"/>
</svg>
