<svg width="400" height="339" viewBox="0 0 400 339" fill="none" xmlns="http://www.w3.org/2000/svg">
<g clip-path="url(#clip0_180_6888)">
<path d="M202.263 100.465H163.035V137.321H202.263V100.465Z" fill="#F7B6A0"/>
<path d="M202.263 122.998V100.465H163.035V122.998C163.035 122.998 180.902 139.714 202.263 122.998Z" fill="#F39A82"/>
<path d="M211.227 102.227C217.05 95.5136 216.218 88.7838 216.218 88.7838C215.037 76.5538 213.806 67.2816 213.523 60.9839C212.309 33.915 189.118 15.6864 170.22 19.0264C151.421 22.9313 136.648 48.4381 145.565 74.0281C147.645 79.9935 149.94 89.0497 153.384 100.848C153.384 100.848 156.046 109.571 163.016 111.482C163.016 111.482 173.78 114.789 184.66 116.567C184.66 116.567 186.423 116.833 188.952 116.401C191.464 115.869 192.994 114.972 192.994 114.972C192.994 114.972 207.102 108.94 211.227 102.227Z" fill="#F7B6A0"/>
<path d="M120.644 284.63H244.649L267.723 187.322C271.699 165.786 253.532 156.015 253.532 156.015L196.804 131.306H168.472L111.744 156.015C111.744 156.015 93.5773 165.786 97.5533 187.322L120.644 284.63Z" fill="#F7B6A0"/>
<path d="M223.887 70.9872C224.303 76.1717 221.475 80.625 217.549 80.9407C213.64 81.2565 210.113 77.3183 209.697 72.1338C209.281 66.9494 212.109 62.496 216.035 62.1803C219.945 61.8646 223.455 65.8028 223.887 70.9872Z" fill="#F7B6A0"/>
<path d="M216.284 67.6307C216.534 67.6972 216.767 67.8301 216.999 68.0461C217.349 68.3785 217.665 68.9268 217.898 69.6247C218.114 70.306 218.247 71.1202 218.247 71.9178C218.247 72.5991 218.164 73.2638 217.998 73.8288C217.831 74.3937 217.598 74.859 217.349 75.1581C216.933 75.64 216.983 76.3545 217.465 76.77C217.948 77.1854 218.663 77.1355 219.079 76.6536C219.611 76.0222 219.961 75.2744 220.194 74.4768C220.426 73.6626 220.526 72.7985 220.526 71.9345C220.526 70.5885 220.277 69.2093 219.711 68.0295C219.428 67.4313 219.062 66.8996 218.596 66.4343C218.131 65.9856 217.548 65.6201 216.866 65.4539C216.251 65.3043 215.635 65.6699 215.486 66.2681C215.319 66.8663 215.685 67.4811 216.284 67.6307Z" fill="#F2937C"/>
<path d="M215.653 71.7847C216.185 71.5687 216.95 71.3859 217.566 71.3859C217.998 71.3859 218.331 71.4856 218.481 71.5853C218.996 71.9342 219.712 71.8013 220.061 71.2862C220.41 70.7711 220.277 70.0565 219.762 69.7076C219.063 69.2423 218.281 69.1094 217.566 69.1094C216.551 69.1094 215.586 69.3586 214.837 69.6577C214.255 69.8904 213.956 70.5384 214.189 71.1366C214.405 71.7182 215.07 72.0173 215.653 71.7847Z" fill="#F2937C"/>
<path d="M140.425 86.9891C141.955 91.9575 146.247 95.0316 150.007 93.8851C153.767 92.7219 155.564 87.7701 154.033 82.8016C152.503 77.8332 148.21 74.7425 144.451 75.9056C140.691 77.0688 138.894 82.0372 140.425 86.9891Z" fill="#F7B6A0"/>
<path d="M144.884 79.2459C144.252 79.7112 143.82 80.3426 143.553 81.0073C143.287 81.6886 143.188 82.4031 143.188 83.1508C143.188 84.5799 143.587 86.0588 144.219 87.3715C144.868 88.6676 145.766 89.8308 146.997 90.4789C147.563 90.7614 148.245 90.5453 148.528 89.997C148.81 89.432 148.594 88.7507 148.045 88.4682C147.463 88.1858 146.748 87.3881 146.265 86.3745C145.766 85.3609 145.467 84.1645 145.467 83.1675C145.467 82.6523 145.55 82.2037 145.683 81.8547C145.816 81.5058 145.999 81.2731 146.232 81.0904C146.731 80.7248 146.847 80.0103 146.481 79.4951C146.115 78.98 145.4 78.8803 144.884 79.2459Z" fill="#F2937C"/>
<path d="M148.343 82.4194C147.644 82.4361 146.829 82.5191 146.014 82.785C145.215 83.0509 144.367 83.4663 143.785 84.2971C143.435 84.8123 143.568 85.5268 144.084 85.8757C144.6 86.2247 145.315 86.0918 145.664 85.5766C145.781 85.3772 146.164 85.1114 146.696 84.9452C147.228 84.779 147.877 84.6959 148.359 84.6959C148.992 84.6959 149.491 84.1808 149.491 83.5494C149.491 82.9179 148.975 82.4194 148.343 82.4194Z" fill="#F2937C"/>
<path d="M298.599 284.63C288.518 232.868 282.296 212.878 273.845 186.009C266.758 157.577 247.926 154.237 247.926 154.237C223.222 161.731 227.53 205.666 227.53 205.666C238.527 234.63 242.32 253.639 255.828 284.613C255.828 284.613 264.229 303.606 286.172 300.183C286.172 300.2 301.461 298.92 298.599 284.63Z" fill="#F7B6A0"/>
<path d="M216.5 139.864L210.678 137.321C210.012 157.976 183.228 157.478 183.228 157.478C155.496 157.295 154.132 137.537 154.132 137.537L148.941 139.797C156.544 173.729 208.315 172.865 216.5 139.864Z" fill="#D45559"/>
<path d="M154.666 146.86C157.411 150.183 161.37 153.357 166.178 155.716C170.985 158.076 176.625 159.621 182.714 159.621C188.703 159.621 195.108 158.126 201.496 154.487C202.045 154.171 202.228 153.49 201.928 152.941C201.612 152.393 200.93 152.21 200.381 152.509C194.326 155.966 188.32 157.345 182.73 157.345C177.024 157.345 171.717 155.899 167.192 153.672C162.668 151.446 158.941 148.455 156.429 145.397C156.03 144.915 155.314 144.849 154.832 145.248C154.333 145.663 154.266 146.378 154.666 146.86Z" fill="#18294F"/>
<path d="M103.459 248.737C103.659 250.898 104.341 256.73 105.273 264.507C106.67 276.172 108.6 292.14 110.264 306.331C111.095 313.427 111.861 320.057 112.443 325.474C113.025 330.891 113.441 335.112 113.591 337.288C113.624 337.92 114.173 338.385 114.789 338.352C115.421 338.319 115.887 337.77 115.853 337.156C115.654 334.115 114.988 327.634 114.057 319.425C112.676 307.112 110.729 290.977 109.066 277.119C108.234 270.19 107.469 263.825 106.87 258.807C106.271 253.789 105.855 250.1 105.705 248.538C105.655 247.906 105.09 247.458 104.474 247.508C103.859 247.574 103.393 248.123 103.459 248.737Z" fill="#18294F"/>
<path fill-rule="evenodd" clip-rule="evenodd" d="M152.205 7.2554C151.37 7.89637 150.335 8.69195 148.875 9.73763C145.115 6.54907 140.86 9.66787 140.21 10.1441C140.155 10.1841 140.126 10.2055 140.125 10.2029C133.304 15.9191 139.093 22.1836 139.093 22.1836C136.605 23.8715 136.723 27.8421 137.944 31.4318C137.816 31.6016 137.746 31.7051 137.746 31.7051C129.678 45.9623 140.924 78.9966 140.924 78.9966C142.87 76.1883 146.314 76.2049 146.314 76.2049L148.044 81.9211L151.105 81.8879L148.626 68.5944C147.112 60.2195 150.789 53.2072 150.789 53.2072C153.445 48.9207 153.619 45.196 152.791 42.2088C153.005 42.348 153.258 42.4716 153.567 42.5725C154.898 43.0045 156.96 43.1541 158.291 43.1208C161.203 43.0378 164.53 42.2734 166.742 40.5286C167.408 40.0062 167.887 39.546 168.278 39.1693C169.481 38.0123 169.864 37.6437 172.349 38.6841C177.872 41.0105 183.478 41.4758 189.467 40.9939C191.736 40.8115 193.627 39.8735 195.525 38.9323C196.048 38.6729 196.571 38.4132 197.103 38.169C197.337 38.0601 197.623 37.912 197.938 37.7495C198.917 37.2425 200.169 36.5949 200.963 36.5572C201.586 36.5256 202.27 36.7674 202.982 37.039C202.778 39.4616 202.817 44.5783 206.022 48.671C206.022 48.671 209.465 51.1469 209.831 59.8874L210.863 68.0296C211.977 68.013 213.109 67.9964 214.223 68.013L213.741 62.9117C213.741 62.9117 217.866 61.7319 219.48 63.0446L219.48 63.04C219.497 62.7503 220.289 48.8191 215.56 35.0329C216.815 34.1332 217.91 32.9971 218.763 31.6054C221.724 26.7699 221.624 21.0537 218.63 16.2348C215.087 10.5352 210.279 9.40529 204.024 10.153C201.179 4.65287 196.371 1.13011 190.399 0.216181C183.911 -0.780829 179.968 1.69508 175.01 5.33416C168.223 1.77816 163.997 1.36274 156.994 4.32054C154.86 5.21606 153.996 5.87958 152.205 7.2554Z" fill="url(#paint0_linear_180_6888)"/>
<path d="M206.554 68.694C206.97 70.8542 203.859 73.247 199.583 74.0778C195.324 74.892 191.531 73.812 191.115 71.6684C190.7 69.5082 193.81 67.1154 198.069 66.2845C202.361 65.4537 206.154 66.5338 206.554 68.694Z" fill="#F2928F"/>
<path d="M171.088 75.4904C171.503 77.6506 168.376 80.0434 164.134 80.8742C159.875 81.6885 156.082 80.6084 155.666 78.4648C155.25 76.3046 158.378 73.9118 162.62 73.0809C166.879 72.2667 170.672 73.3468 171.088 75.4904Z" fill="#F2928F"/>
<path d="M177.107 69.7572C177.141 70.0896 177.141 70.4385 177.141 70.7875C177.141 71.6017 177.074 72.4658 177.074 73.3631C177.074 74.061 177.107 74.7921 177.274 75.5565C177.424 76.3043 177.69 77.0853 178.139 77.8496C178.455 78.4146 178.954 78.83 179.486 79.0627C180.019 79.2953 180.568 79.3784 181.1 79.3784C182.165 79.3784 183.196 79.0959 184.095 78.7968C184.544 78.6472 184.96 78.4977 185.309 78.3648C185.658 78.2318 185.941 78.1321 186.108 78.0823C186.706 77.8995 187.056 77.268 186.873 76.6698C186.69 76.0716 186.058 75.7227 185.459 75.9055C185.176 75.9885 184.876 76.1049 184.527 76.2378C184.011 76.4372 183.396 76.6532 182.797 76.8194C182.198 76.9856 181.583 77.1019 181.117 77.1019C180.801 77.1019 180.568 77.052 180.435 76.9856C180.285 76.9191 180.218 76.8526 180.135 76.7197C179.819 76.1879 179.636 75.6562 179.536 75.1079C179.42 74.5595 179.387 73.9945 179.387 73.3631C179.387 72.5821 179.453 71.718 179.453 70.7875C179.453 70.3887 179.437 69.9899 179.403 69.5744C179.353 68.943 178.804 68.4777 178.172 68.5276C177.523 68.5774 177.058 69.1424 177.107 69.7572Z" fill="#F2937C"/>
<path d="M181.435 90.6447C181.551 90.4453 181.85 90.0797 182.283 89.7142C182.932 89.1658 183.847 88.5676 184.862 88.1356C185.893 87.7035 187.024 87.421 188.089 87.421C188.971 87.421 189.802 87.6038 190.568 88.0192C191.117 88.3183 191.815 88.1189 192.115 87.554C192.414 87.0056 192.215 86.3077 191.649 86.0086C190.501 85.3938 189.27 85.1445 188.089 85.1445C186.143 85.1445 184.296 85.7926 182.782 86.6234C182.033 87.0388 181.351 87.5041 180.802 87.986C180.237 88.4679 179.788 88.9498 179.472 89.4815C179.155 90.0133 179.322 90.7112 179.871 91.0435C180.42 91.3592 181.118 91.1764 181.435 90.6447Z" fill="#F2937C"/>
<path d="M162.085 52.1103C162.085 52.0936 162.068 52.1435 162.035 52.2764C161.785 53.0906 160.588 56.6134 155.73 60.186C154.965 60.7344 154.815 61.8145 155.364 62.5622C155.913 63.3266 156.994 63.4762 157.743 62.9278C161.003 60.535 162.917 58.0757 164.015 56.1648C165.113 54.2538 165.395 52.9245 165.429 52.7583C165.612 51.8278 164.996 50.9471 164.081 50.7643C163.166 50.5815 162.268 51.1797 162.085 52.1103Z" fill="#361F0E"/>
<path d="M187.371 49.3687C187.471 49.485 188.369 50.5153 190.249 51.6618C192.129 52.7918 195.007 54.0214 199.016 54.5199C199.948 54.6362 200.796 53.9716 200.913 53.041C201.029 52.1105 200.364 51.263 199.432 51.1467C195.906 50.698 193.493 49.6512 191.996 48.7373C191.247 48.2886 190.715 47.8732 190.382 47.5741C190.216 47.4245 190.1 47.3082 190.033 47.2417L189.966 47.1753L189.95 47.1587C189.351 46.4441 188.27 46.3444 187.554 46.9426C186.872 47.5741 186.772 48.6376 187.371 49.3687Z" fill="#361F0E"/>
<path d="M167.011 66.5502C167.277 67.9626 166.362 69.3418 164.931 69.6077C163.501 69.8735 162.136 68.943 161.87 67.5306C161.604 66.1181 162.519 64.7389 163.95 64.4731C165.364 64.2072 166.745 65.1378 167.011 66.5502Z" fill="#18294F"/>
<path d="M168.075 63.2271C168.042 63.2271 167.643 63.1772 166.994 63.1772C165.996 63.1772 164.415 63.2936 162.802 63.925C161.188 64.5398 159.524 65.7196 158.526 67.7967C158.327 68.2121 158.51 68.7273 158.926 68.9267C159.358 69.1261 159.857 68.9433 160.057 68.5279C160.839 66.916 162.086 66.0353 163.401 65.5036C164.732 64.9885 166.112 64.8722 166.977 64.8722C167.26 64.8722 167.476 64.8888 167.626 64.8888C167.709 64.8888 167.759 64.9054 167.793 64.9054H167.826C168.292 64.9552 168.724 64.6395 168.774 64.1576C168.874 63.709 168.541 63.2769 168.075 63.2271Z" fill="#18294F"/>
<path d="M196.307 60.934C196.573 62.3464 195.642 63.7256 194.228 63.9915C192.813 64.2573 191.433 63.3268 191.166 61.9144C190.9 60.5019 191.832 59.1227 193.246 58.8569C194.66 58.591 196.041 59.5215 196.307 60.934Z" fill="#18294F"/>
<path d="M189.47 60.7677C189.536 60.7179 191.599 59.6544 193.895 59.671C195.309 59.671 196.756 60.0366 198.054 61.233C198.403 61.5487 198.936 61.5321 199.252 61.1831C199.568 60.8342 199.551 60.3024 199.202 59.9867C197.538 58.458 195.592 57.9761 193.878 57.9761C191 57.9927 188.704 59.2556 188.638 59.2888C188.222 59.5214 188.072 60.0366 188.305 60.4354C188.538 60.8342 189.054 60.9837 189.47 60.7677Z" fill="#18294F"/>
<path d="M104.077 339C104.144 338.851 104.21 338.684 104.26 338.535C122.56 295.614 126.603 217.697 121.678 203.307C121.795 200.133 106.04 179.462 91.5505 202.925C85.3453 213.975 74.482 314.208 69.957 339H104.077Z" fill="#F7B6A0"/>
<path fill-rule="evenodd" clip-rule="evenodd" d="M114.941 339H250.308L257.202 278.959C289.47 273.287 299.4 251.945 299.4 251.945L275.244 182.42C270.021 164.224 258.109 157.993 258.109 157.993C258.109 157.993 242.322 149.618 238.196 149.319L238.166 149.317L210.681 137.338C210.015 157.993 183.231 157.494 183.231 157.494C155.499 157.311 154.135 137.554 154.135 137.554L111.763 156.015C111.763 156.015 110.068 156.927 107.827 158.807C101.973 161.231 100.1 165.636 100.1 165.636L64 281.09C64 281.09 80.9907 299.992 110.497 300.195L114.941 339Z" fill="url(#paint1_linear_180_6888)"/>
<path d="M130.793 290.911C130.111 293.138 129.446 295.497 128.797 297.99C88.1222 307.927 64 281.09 64 281.09L65.6802 275.723C80.636 292.822 109.3 293.686 130.793 290.911Z" fill="#D45559"/>
<path d="M229.443 251.197C231.257 257.162 236.73 275.125 238.577 281.107C238.71 281.556 239.092 281.855 239.558 281.905C241.222 282.054 242.885 282.121 244.565 282.121C252.434 282.121 260.453 280.559 267.773 277.917C275.092 275.275 281.747 271.519 286.887 267.116C287.37 266.7 287.42 265.986 287.004 265.521C286.588 265.039 285.873 264.989 285.407 265.404C280.532 269.592 274.111 273.231 267.007 275.79C259.904 278.365 252.135 279.861 244.565 279.861C242.952 279.861 241.338 279.794 239.758 279.645L239.658 280.775L240.739 280.442C238.893 274.46 233.403 256.514 231.606 250.549C231.423 249.951 230.791 249.618 230.192 249.784C229.61 249.967 229.26 250.599 229.443 251.197Z" fill="#18294F"/>
<path d="M296.138 242.522C283.129 262.13 261.419 273.247 237.68 272.499L239.975 280.342C286.074 280.675 299.416 251.961 299.416 251.961L296.138 242.522Z" fill="#D45559"/>
<path d="M272.6 210.037C272.883 222.267 273.864 253.506 270.953 254.869C266.078 237.637 252.354 229.478 252.903 237.089C253.618 247.059 256.945 253.29 258.476 261.167C262.402 281.389 261.42 295.929 279.021 301.08C296.007 306.049 305.406 291.841 314.156 269.325C316.569 263.127 338.711 245.098 334.486 241.243C329.644 237.105 308.484 257.411 307.219 258.425C309.332 252.493 331.558 223.646 326.783 219.791C321.593 215.603 312.143 227.351 298.352 247.807C299.899 242.356 311.395 202.193 306.238 201.014C296.572 195.846 289.136 242.739 285.592 250.748L281.616 209.405C281.616 209.405 281.45 199.585 276.642 199.684C276.642 199.684 272.334 198.77 272.6 210.037Z" fill="#F7B7A9"/>
<path d="M270.754 256.663C271.868 259.488 273.881 261.516 275.861 263.427C277.857 265.321 279.837 267.115 281.085 269.359C282.449 271.801 283.081 274.709 283.081 277.684C283.081 280.891 282.332 284.131 280.985 286.823C280.785 287.222 280.952 287.704 281.351 287.903C281.75 288.103 282.233 287.936 282.432 287.538C283.896 284.613 284.695 281.14 284.695 277.684C284.695 274.493 284.013 271.32 282.499 268.594C281.068 266.035 278.939 264.174 276.976 262.297C275.012 260.419 273.199 258.558 272.251 256.115C272.085 255.7 271.619 255.5 271.219 255.666C270.787 255.799 270.587 256.265 270.754 256.663Z" fill="#21263D"/>
<path d="M81.119 135.804C89.7934 127.145 89.7934 113.105 81.119 104.446C72.4446 95.7872 58.3807 95.7872 49.7063 104.446C41.032 113.105 41.032 127.145 49.7063 135.804C58.3807 144.463 72.4446 144.463 81.119 135.804Z" fill="#005023"/>
<path d="M103.404 175.761C110.807 175.761 116.808 169.77 116.808 162.38C116.808 154.991 110.807 149 103.404 149C96.0012 149 90 154.991 90 162.38C90 169.77 96.0012 175.761 103.404 175.761Z" stroke="#86A8FF" stroke-width="8" stroke-miterlimit="10"/>
<path d="M333.417 50.8594C343.041 50.8594 350.843 43.0716 350.843 33.4648C350.843 23.8581 343.041 16.0703 333.417 16.0703C323.794 16.0703 315.992 23.8581 315.992 33.4648C315.992 43.0716 323.794 50.8594 333.417 50.8594Z" stroke="#86A8FF" stroke-width="8" stroke-miterlimit="10"/>
<path d="M64.8348 218.332H59.7365V213.195C59.7365 212.526 59.2099 212 58.5397 212C57.8695 212 57.343 212.526 57.343 213.195V218.332H52.1968C51.5266 218.332 51 218.857 51 219.526C51 220.196 51.5266 220.721 52.1968 220.721H57.343V225.81C57.343 226.48 57.8695 227.005 58.5397 227.005C59.2099 227.005 59.7365 226.48 59.7365 225.81V220.721H64.8348C65.505 220.721 66.0316 220.196 66.0316 219.526C66.0316 218.857 65.4811 218.332 64.8348 218.332Z" fill="#86A8FF"/>
<path d="M378.866 69.0808H373.768V63.9437C373.768 63.2747 373.241 62.749 372.571 62.749C371.901 62.749 371.374 63.2747 371.374 63.9437V69.0808H366.228C365.558 69.0808 365.031 69.6065 365.031 70.2755C365.031 70.9445 365.558 71.4702 366.228 71.4702H371.374V76.5595C371.374 77.2285 371.901 77.7542 372.571 77.7542C373.241 77.7542 373.768 77.2285 373.768 76.5595V71.4702H378.866C379.536 71.4702 380.063 70.9445 380.063 70.2755C380.063 69.6065 379.536 69.0808 378.866 69.0808Z" fill="#005023"/>
<path d="M341.849 294.412C346.186 290.082 346.186 283.062 341.849 278.733C337.511 274.403 330.479 274.403 326.142 278.733C321.805 283.062 321.805 290.082 326.142 294.412C330.479 298.741 337.511 298.741 341.849 294.412Z" fill="#86A8FF"/>
<path d="M302.151 51.504C285.516 38.3221 261.322 41.11 248.118 57.7162C238.191 70.2315 237.311 86.9892 244.566 100.141L234.032 113.989L254.341 111.656C270.976 124.838 295.169 122.05 308.374 105.444C321.579 88.8377 318.786 64.686 302.151 51.504Z" fill="white"/>
<path d="M234.002 114.02C234.821 112.838 235.671 111.656 236.521 110.474C237.371 109.292 238.251 108.141 239.132 106.989C240.012 105.838 240.892 104.686 241.803 103.565C242.714 102.413 243.624 101.292 244.535 100.171C243.716 101.353 242.866 102.535 242.016 103.716C241.166 104.898 240.285 106.05 239.405 107.201C238.525 108.353 237.644 109.504 236.734 110.626C235.853 111.777 234.943 112.898 234.002 114.02Z" fill="#1B1A2E"/>
<path d="M254.309 111.657C252.609 111.929 250.939 112.172 249.239 112.384C247.539 112.596 245.87 112.808 244.17 113.02C242.47 113.202 240.77 113.384 239.1 113.566C237.4 113.748 235.7 113.899 234 114.02C235.7 113.748 237.37 113.505 239.07 113.293C240.77 113.081 242.439 112.869 244.139 112.657C245.839 112.475 247.539 112.263 249.209 112.111C250.909 111.96 252.609 111.808 254.309 111.657Z" fill="#1B1A2E"/>
<path d="M244.535 100.172C243.381 98.1117 242.44 95.9602 241.681 93.7177C240.953 91.4753 240.376 89.1722 240.042 86.8389C239.374 82.1722 239.587 77.3842 240.649 72.7781C241.711 68.172 243.654 63.7781 246.326 59.8689C248.997 55.9901 252.366 52.5355 256.282 49.8385C258.225 48.5052 260.32 47.3233 262.475 46.3536C264.63 45.3839 266.907 44.6264 269.214 44.0809C273.828 42.9597 278.655 42.7172 283.36 43.3233C288.065 43.9294 292.649 45.4445 296.807 47.7173C298.902 48.8688 300.875 50.2022 302.697 51.687C304.548 53.1719 306.248 54.8386 307.796 56.6568C310.862 60.2932 313.26 64.475 314.809 68.9599C316.357 73.4448 317.085 78.2024 316.933 82.9298C316.782 87.6571 315.719 92.3844 313.868 96.7178C312.016 101.081 309.314 105.081 306.036 108.475C302.727 111.869 298.781 114.657 294.47 116.627C290.16 118.597 285.485 119.779 280.78 120.082C276.044 120.385 271.278 119.779 266.785 118.354C262.293 116.93 258.043 114.657 254.37 111.718C258.073 114.627 262.323 116.839 266.816 118.233C271.309 119.627 276.074 120.173 280.78 119.839C285.485 119.506 290.099 118.324 294.349 116.354C298.598 114.385 302.484 111.597 305.762 108.233C307.402 106.536 308.859 104.688 310.164 102.748C311.469 100.809 312.562 98.7178 313.503 96.5663C315.325 92.2632 316.387 87.5965 316.508 82.9298C316.66 78.263 315.932 73.5357 314.384 69.1417C312.835 64.7175 310.498 60.5962 307.462 57.0204C305.945 55.2325 304.275 53.5961 302.454 52.1113C300.632 50.6264 298.69 49.3234 296.625 48.2021C292.527 45.9294 288.004 44.4445 283.329 43.8385C278.685 43.2324 273.919 43.4748 269.366 44.5657C264.812 45.6567 260.441 47.5658 256.556 50.2325C252.67 52.8689 249.331 56.2628 246.66 60.1114C243.988 63.9599 242.045 68.3236 240.953 72.8994C239.86 77.4752 239.617 82.2328 240.224 86.8995C240.528 89.2328 241.074 91.5359 241.772 93.7783C242.501 95.9299 243.442 98.0814 244.535 100.172Z" fill="#1B1A2E"/>
<path d="M269.032 85.854H262.782C262.105 85.854 261.551 85.3008 261.551 84.6247V69.4121C261.551 68.736 262.105 68.1828 262.782 68.1828H269.032C269.709 68.1828 270.263 68.736 270.263 69.4121V84.6247C270.263 85.3008 269.709 85.854 269.032 85.854Z" fill="#1F4168"/>
<path d="M293.996 83.6122C293.996 84.8415 292.981 85.8557 291.749 85.8557H285.869H284.453H282.667L283.16 87.3616C283.837 89.3899 284.176 91.5105 284.176 93.631C284.176 94.4608 283.929 95.2906 283.498 95.9667C282.914 96.8887 281.959 97.5648 280.912 97.8414C279.866 98.118 278.819 97.3189 278.819 96.2126C278.819 94.1228 278.08 92.0637 276.756 90.4349L272.97 85.825C272.292 85.825 271.738 85.2718 271.738 84.5957V69.3831C271.738 68.707 272.292 68.1538 272.97 68.1538H283.406C283.622 68.0616 283.868 68.0001 284.145 68.0001H287.808C288.855 68.0001 289.717 68.8606 289.717 69.9056V70.5817C289.717 71.6266 288.855 72.4871 287.808 72.4871H289.04C290.179 72.4871 291.133 73.4091 291.133 74.5769V74.9149C291.133 75.8062 290.579 76.5438 289.81 76.8511H290.333C291.564 76.8511 292.58 77.8653 292.58 79.0946C292.58 80.3239 291.564 81.338 290.333 81.338H291.749C293.011 81.3688 293.996 82.3829 293.996 83.6122Z" fill="#1F4168"/>
</g>
<defs>
<linearGradient id="paint0_linear_180_6888" x1="171.5" y1="-49.5" x2="186" y2="98" gradientUnits="userSpaceOnUse">
<stop offset="0.4375"/>
<stop offset="1" stop-color="#003399"/>
</linearGradient>
<linearGradient id="paint1_linear_180_6888" x1="181.7" y1="137.338" x2="181.7" y2="339" gradientUnits="userSpaceOnUse">
<stop stop-color="#003399"/>
<stop offset="1" stop-color="#00246C"/>
</linearGradient>
<clipPath id="clip0_180_6888">
<rect width="400" height="339" fill="white"/>
</clipPath>
</defs>
</svg>
