<svg width="60" height="60" viewBox="0 0 60 60" fill="none" xmlns="http://www.w3.org/2000/svg">
<path d="M55 18.5752V33.5752C55 37.3252 53.75 40.4502 51.55 42.6502C49.375 44.8252 46.25 46.0752 42.5 46.0752V51.4002C42.5 53.4002 40.275 54.6003 38.625 53.5003L27.5 46.0752H22.2C22.4 45.3252 22.5 44.5502 22.5 43.7502C22.5 41.2002 21.525 38.8503 19.925 37.0753C18.125 35.0253 15.45 33.7502 12.5 33.7502C9.7 33.7502 7.15001 34.9003 5.32501 36.7753C5.10001 35.7753 5 34.7002 5 33.5752V18.5752C5 11.0752 10 6.0752 17.5 6.0752H42.5C50 6.0752 55 11.0752 55 18.5752Z" stroke="#003399" stroke-width="4" stroke-miterlimit="10" stroke-linecap="round" stroke-linejoin="round"/>
<path d="M22.5 43.75C22.5 45.625 21.975 47.4 21.05 48.9C20.525 49.8 19.85 50.6 19.075 51.25C17.325 52.825 15.025 53.75 12.5 53.75C8.85 53.75 5.67497 51.8 3.94997 48.9C3.02497 47.4 2.5 45.625 2.5 43.75C2.5 40.6 3.95 37.775 6.25 35.95C7.975 34.575 10.15 33.75 12.5 33.75C18.025 33.75 22.5 38.225 22.5 43.75Z" stroke="#003399" stroke-width="4" stroke-miterlimit="10" stroke-linecap="round" stroke-linejoin="round"/>
<path d="M8.59961 43.7498L11.0746 46.2247L16.3996 41.2998" stroke="#003399" stroke-width="4" stroke-linecap="round" stroke-linejoin="round"/>
<path d="M21.25 26.25H38.75" stroke="#003399" stroke-width="4" stroke-miterlimit="10" stroke-linecap="round" stroke-linejoin="round"/>
</svg>
