<svg width="55" height="55" viewBox="0 0 55 55" fill="none" xmlns="http://www.w3.org/2000/svg">
<path d="M32.1402 16.5L31.6246 15.4688H27.4996H23.3746L23.0308 16.6719C21.9996 19.5937 19.9371 22.1719 17.1871 24.0625C6.70271 31.1094 8.59333 45.5469 20.6246 50.1875C25.0933 51.9062 30.0777 51.9062 34.3746 50.1875C46.4058 45.5469 48.2965 30.9375 37.984 23.8906C35.234 22 33.1715 19.5938 32.1402 16.5Z" stroke="#005023" stroke-width="2.6" stroke-miterlimit="10" stroke-linecap="round" stroke-linejoin="round"/>
<path d="M17.875 6.01562L23.7188 15.4688" stroke="#005023" stroke-width="2.6" stroke-miterlimit="10" stroke-linecap="round" stroke-linejoin="round"/>
<path d="M19.9375 7.90625L21.8281 6.01563C22.8594 4.98437 24.5781 4.98437 25.6094 6.01563C26.6406 7.04688 28.3594 7.04688 29.3906 6.01563C30.4219 4.98437 32.1406 4.98437 33.1719 6.01563L35.0625 7.90625" stroke="#005023" stroke-width="2.6" stroke-miterlimit="10" stroke-linecap="round" stroke-linejoin="round"/>
<path d="M37.125 15.4688H31.2812L37.125 6.01562" stroke="#005023" stroke-width="2.6" stroke-miterlimit="10" stroke-linecap="round" stroke-linejoin="round"/>
<path d="M29.5547 43.4211C28.4563 43.4211 27.4385 43.2291 26.5013 42.8453C25.564 42.4615 24.7512 41.9153 24.063 41.2067C23.3893 40.4981 22.8621 39.6567 22.4813 38.6824C22.1152 37.7081 21.9322 36.6231 21.9322 35.4273C21.9322 34.2759 22.1152 33.2277 22.4813 32.283C22.8621 31.3234 23.3966 30.482 24.0849 29.7586C24.7879 29.0353 25.6006 28.4817 26.5232 28.0979C27.4605 27.6993 28.471 27.5 29.5547 27.5C30.0086 27.5 30.448 27.5443 30.8727 27.6329C31.312 27.7067 31.7294 27.8248 32.1248 27.9872C32.5348 28.1495 32.9229 28.3488 33.289 28.585L31.971 30.8215C31.5756 30.541 31.1656 30.3417 30.7409 30.2236C30.3308 30.1055 29.9061 30.0465 29.4668 30.0465C28.7638 30.0465 28.1122 30.1793 27.5117 30.4451C26.926 30.7108 26.4134 31.0872 25.9741 31.5744C25.5347 32.0468 25.1979 32.6151 24.9636 33.2794C24.7293 33.9289 24.6121 34.6449 24.6121 35.4273C24.6121 36.254 24.7293 36.9995 24.9636 37.6638C25.1979 38.3281 25.5274 38.9038 25.9521 39.391C26.3768 39.8634 26.882 40.2324 27.4678 40.4981C28.0682 40.7491 28.7346 40.8746 29.4668 40.8746C29.7743 40.8746 30.0672 40.845 30.3455 40.786C30.6383 40.7269 30.9166 40.6384 31.1802 40.5203C31.4438 40.4022 31.7074 40.2546 31.971 40.0774L33.289 42.3582C32.8936 42.5944 32.4909 42.7937 32.0808 42.956C31.6708 43.1037 31.2534 43.2144 30.8287 43.2882C30.404 43.3768 29.9793 43.4211 29.5547 43.4211ZM20.2627 38.0624V36.1359L29.5107 36.1802V38.0845L20.2627 38.0624ZM20.2627 34.9844V33.0801L29.5107 33.1023V35.0066L20.2627 34.9844Z" fill="#005023"/>
</svg>
