<svg width="50" height="50" viewBox="0 0 50 50" fill="none" xmlns="http://www.w3.org/2000/svg">
<path d="M33.3337 8.85449C33.3337 11.4378 31.2295 13.542 28.6462 13.542H21.3545C20.0628 13.542 18.8962 13.0212 18.042 12.167C17.1878 11.3128 16.667 10.1462 16.667 8.85449C16.667 6.27116 18.7712 4.16699 21.3545 4.16699H28.6462C29.9378 4.16699 31.1045 4.68783 31.9587 5.54199C32.8128 6.39616 33.3337 7.56283 33.3337 8.85449Z" fill="#005023"/>
<path d="M39.2288 10.4792C38.7497 10.0833 38.208 9.77082 37.6247 9.54165C37.0205 9.31248 36.4163 9.79165 36.2913 10.4167C35.583 13.9792 32.4372 16.6667 28.6455 16.6667H21.3538C19.2705 16.6667 17.3122 15.8542 15.833 14.375C14.7497 13.2917 13.9997 11.9167 13.708 10.4375C13.583 9.81248 12.958 9.31248 12.3538 9.56248C9.93717 10.5417 8.33301 12.75 8.33301 17.1875V37.5C8.33301 43.75 12.0622 45.8333 16.6663 45.8333H33.333C37.9372 45.8333 41.6663 43.75 41.6663 37.5V17.1875C41.6663 13.7917 40.7288 11.7083 39.2288 10.4792ZM16.6663 25.5208H24.9997C25.8538 25.5208 26.5622 26.2292 26.5622 27.0833C26.5622 27.9375 25.8538 28.6458 24.9997 28.6458H16.6663C15.8122 28.6458 15.1038 27.9375 15.1038 27.0833C15.1038 26.2292 15.8122 25.5208 16.6663 25.5208ZM33.333 36.9792H16.6663C15.8122 36.9792 15.1038 36.2708 15.1038 35.4167C15.1038 34.5625 15.8122 33.8542 16.6663 33.8542H33.333C34.1872 33.8542 34.8955 34.5625 34.8955 35.4167C34.8955 36.2708 34.1872 36.9792 33.333 36.9792Z" fill="#005023"/>
</svg>
