<svg width="60" height="60" viewBox="0 0 60 60" fill="none" xmlns="http://www.w3.org/2000/svg">
<path d="M30.0505 7.2749C21.7755 7.2749 15.0505 13.9999 15.0505 22.2749V29.4999C15.0505 31.0249 14.4005 33.3499 13.6255 34.6499L10.7505 39.4249C8.97546 42.3749 10.2005 45.6499 13.4505 46.7499C24.2255 50.3499 35.8505 50.3499 46.6255 46.7499C49.6505 45.7499 50.9755 42.1749 49.3255 39.4249L46.4505 34.6499C45.7005 33.3499 45.0505 31.0249 45.0505 29.4999V22.2749C45.0505 14.0249 38.3005 7.2749 30.0505 7.2749Z" stroke="#003399" stroke-width="4" stroke-miterlimit="10" stroke-linecap="round"/>
<path d="M34.6758 6.99961C33.9008 6.77461 33.1008 6.59961 32.2758 6.49961C29.8758 6.19961 27.5758 6.37461 25.4258 6.99961C26.1508 5.14961 27.9508 3.84961 30.0508 3.84961C32.1508 3.84961 33.9508 5.14961 34.6758 6.99961Z" stroke="#003399" stroke-width="4" stroke-miterlimit="10" stroke-linecap="round" stroke-linejoin="round"/>
<path d="M37.5508 48.6504C37.5508 52.7754 34.1758 56.1504 30.0508 56.1504C28.0008 56.1504 26.1008 55.3004 24.7508 53.9504C23.4008 52.6004 22.5508 50.7004 22.5508 48.6504" stroke="#003399" stroke-width="4" stroke-miterlimit="10"/>
</svg>
