<svg width="48" height="48" viewBox="0 0 48 48" fill="none" xmlns="http://www.w3.org/2000/svg">
<path fill-rule="evenodd" clip-rule="evenodd" d="M2.49908 32C2.49908 28.9716 4.97066 26.5 7.99908 26.5H17.3391C18.1675 26.5 18.8391 27.1716 18.8391 28V44C18.8391 44.8284 18.1675 45.5 17.3391 45.5H3.99908C3.17066 45.5 2.49908 44.8284 2.49908 44V32ZM7.99908 29.5C6.62751 29.5 5.49908 30.6284 5.49908 32V42.5H15.8391V29.5H7.99908Z" fill="#003399"/>
<path fill-rule="evenodd" clip-rule="evenodd" d="M15.8191 24C15.8191 20.9716 18.2907 18.5 21.3191 18.5H26.6591C29.7124 18.5 32.1591 20.9765 32.1591 24V44C32.1591 44.8284 31.4875 45.5 30.6591 45.5H17.3191C16.4907 45.5 15.8191 44.8284 15.8191 44V24ZM21.3191 21.5C19.9475 21.5 18.8191 22.6284 18.8191 24V42.5H29.1591V24C29.1591 22.6235 28.0458 21.5 26.6591 21.5H21.3191Z" fill="#003399"/>
<path fill-rule="evenodd" clip-rule="evenodd" d="M29.1591 34C29.1591 33.1716 29.8307 32.5 30.6591 32.5H39.9991C43.0275 32.5 45.4991 34.9716 45.4991 38V44C45.4991 44.8284 44.8275 45.5 43.9991 45.5H30.6591C29.8307 45.5 29.1591 44.8284 29.1591 44V34ZM32.1591 35.5V42.5H42.4991V38C42.4991 36.6284 41.3707 35.5 39.9991 35.5H32.1591Z" fill="#003399"/>
<path fill-rule="evenodd" clip-rule="evenodd" d="M24.0041 5.42374L23.2407 6.95047L23.2407 6.95049C23.0336 7.36479 22.7147 7.67443 22.437 7.87926C22.1559 8.08664 21.7747 8.29162 21.3355 8.37397L21.3056 8.37926L20.0322 8.59146L21.0244 9.58359C21.3952 9.93793 21.6013 10.3804 21.7068 10.7428C21.8151 11.1149 21.8731 11.5931 21.7606 12.077L21.5163 13.1477L22.6253 12.4945C23.0774 12.2189 23.5785 12.1297 23.9891 12.1297C24.3997 12.1297 24.9007 12.2189 25.3528 12.4945L26.4619 13.1477L26.2175 12.077C26.105 11.5927 26.1629 11.1181 26.2728 10.7454C26.3843 10.3672 26.5933 9.94407 26.9384 9.59895L27.9659 8.57147L26.7142 8.36286C26.2475 8.29607 25.8489 8.08652 25.5611 7.87424C25.2687 7.65852 24.9534 7.33879 24.7508 6.91721L24.0041 5.42374ZM23.9891 1.78716C25.2054 1.77909 25.9817 2.6844 26.376 3.45947L26.3807 3.46881L26.3807 3.46883L27.3609 5.42926L29.1017 5.71941C29.1025 5.71953 29.1032 5.71965 29.1039 5.71977C29.9821 5.86425 31.0253 6.34944 31.3916 7.46376C31.7614 8.589 31.1948 9.59652 30.5545 10.2255L29.1847 11.5953L29.5608 13.2431C29.7601 14.1018 29.8192 15.4615 28.7294 16.2548C27.6433 17.0455 26.3694 16.5778 25.6157 16.1309C25.6149 16.1304 25.6141 16.1299 25.6133 16.1294L23.9891 15.173L22.3649 16.1294C22.3641 16.1299 22.3633 16.1304 22.3625 16.1309C21.6088 16.5777 20.3348 17.0455 19.2487 16.2548C18.1588 15.4614 18.2181 14.1016 18.4173 13.2429C18.4176 13.2418 18.4179 13.2406 18.4182 13.2394L18.7934 11.5953L17.4384 10.2403L17.4384 10.2403C16.82 9.62187 16.2298 8.61627 16.5971 7.48236C16.9638 6.35025 18.0292 5.88022 18.8959 5.73944L20.6372 5.44927L21.6174 3.4888L21.6174 3.48879C22.0084 2.70686 22.7761 1.79522 23.9891 1.78716ZM24.1941 15.0517C24.1883 15.0553 24.1827 15.0587 24.1772 15.0619L24.1941 15.0517ZM23.801 15.0619C23.7954 15.0587 23.7898 15.0553 23.7841 15.0517L23.801 15.0619ZM27.4583 5.62532L27.4494 5.60671C27.4523 5.61268 27.4553 5.61888 27.4583 5.62532Z" fill="#003399"/>
</svg>
