<svg width="48" height="48" viewBox="0 0 48 48" fill="none" xmlns="http://www.w3.org/2000/svg">
<path fill-rule="evenodd" clip-rule="evenodd" d="M36.0327 5.50001C34.6343 5.50349 33.4991 6.64021 33.4991 8.02V20.5H38.8391C40.098 20.5 40.9797 20.1081 41.5434 19.5443C42.1072 18.9806 42.4991 18.0989 42.4991 16.84V12C42.4991 10.2193 41.7726 8.59302 40.5948 7.39705C39.4307 6.23483 37.8095 5.51823 36.0327 5.50001ZM30.4991 8.02C30.4991 4.9619 33.0004 2.5 36.0391 2.5H36.0528L36.0528 2.50006C38.6313 2.52372 41.0057 3.56527 42.7197 5.27934L42.7271 5.28665L42.727 5.28668C44.4271 7.01036 45.4991 9.3825 45.4991 12V16.84C45.4991 18.7411 44.891 20.4394 43.6647 21.6657C42.4385 22.8919 40.7402 23.5 38.8391 23.5H31.9991C31.1707 23.5 30.4991 22.8284 30.4991 22V8.02Z" fill="#003399"/>
<path fill-rule="evenodd" clip-rule="evenodd" d="M4.61381 5.36212C6.22338 3.49824 8.69201 2.5 11.9991 2.5H35.9991C36.8275 2.5 37.4991 3.17157 37.4991 4C37.4991 4.82843 36.8275 5.5 35.9991 5.5C34.6275 5.5 33.4991 6.62843 33.4991 8V42C33.4991 44.8835 30.206 46.5127 27.9049 44.8044L27.9002 44.8008L24.4644 42.229C24.292 42.0964 24.0163 42.1041 23.8397 42.2807L20.4797 45.6407C19.114 47.0064 16.8842 47.0064 15.5184 45.6407L15.5152 45.6375L12.1984 42.3007C12.1981 42.3003 12.1988 42.301 12.1984 42.3007C12 42.1032 11.7144 42.0935 11.5191 42.24L8.10487 44.7956C8.1035 44.7967 8.10214 44.7977 8.10077 44.7987C5.78441 46.5487 2.49908 44.8868 2.49908 42V12C2.49908 9.59427 3.03975 7.18488 4.61381 5.36212ZM31.1026 5.5H11.9991C9.30616 5.5 7.77479 6.29176 6.88436 7.32288C5.95842 8.39512 5.49908 9.98573 5.49908 12V42C5.49908 42.4315 5.96987 42.6494 6.2933 42.4044L6.30021 42.3992L9.71908 39.84C11.1234 38.7867 13.0783 38.9379 14.3197 40.1793L14.3229 40.1825L17.6397 43.5193C17.6394 43.519 17.6401 43.5197 17.6397 43.5193C17.8341 43.7125 18.1646 43.7132 18.3584 43.5193L21.7184 40.1593C22.9392 38.9385 24.8976 38.7844 26.2847 39.8442L29.6932 42.3956C29.6938 42.396 29.6943 42.3964 29.6949 42.3968C30.0337 42.6465 30.4991 42.3958 30.4991 42V8C30.4991 7.10088 30.7169 6.25084 31.1026 5.5Z" fill="#003399"/>
<path fill-rule="evenodd" clip-rule="evenodd" d="M16.4991 26.0195C16.4991 25.1911 17.1707 24.5195 17.9991 24.5195H23.9991C24.8275 24.5195 25.4991 25.1911 25.4991 26.0195C25.4991 26.848 24.8275 27.5195 23.9991 27.5195H17.9991C17.1707 27.5195 16.4991 26.848 16.4991 26.0195Z" fill="#003399"/>
<path fill-rule="evenodd" clip-rule="evenodd" d="M16.4991 18.0195C16.4991 17.1911 17.1707 16.5195 17.9991 16.5195H23.9991C24.8275 16.5195 25.4991 17.1911 25.4991 18.0195C25.4991 18.848 24.8275 19.5195 23.9991 19.5195H17.9991C17.1707 19.5195 16.4991 18.848 16.4991 18.0195Z" fill="#003399"/>
<path fill-rule="evenodd" clip-rule="evenodd" d="M9.9903 26C9.9903 24.8954 10.8857 24 11.9903 24H12.0083C13.1128 24 14.0083 24.8954 14.0083 26C14.0083 27.1046 13.1128 28 12.0083 28H11.9903C10.8857 28 9.9903 27.1046 9.9903 26Z" fill="#003399"/>
<path fill-rule="evenodd" clip-rule="evenodd" d="M9.9903 18C9.9903 16.8954 10.8857 16 11.9903 16H12.0083C13.1128 16 14.0083 16.8954 14.0083 18C14.0083 19.1046 13.1128 20 12.0083 20H11.9903C10.8857 20 9.9903 19.1046 9.9903 18Z" fill="#003399"/>
</svg>
