<svg width="48" height="48" viewBox="0 0 48 48" fill="none" xmlns="http://www.w3.org/2000/svg">
<path fill-rule="evenodd" clip-rule="evenodd" d="M7.78871 4.99273C9.68098 2.97008 12.6561 2.5 16.4391 2.5H31.5591C35.3414 2.5 38.3178 2.96981 40.2079 4.9937C42.0647 6.98201 42.4889 10.076 42.4791 14.0822C42.4791 14.0817 42.4791 14.0827 42.4791 14.0822V36.62C42.4791 38.0698 42.2838 39.3537 41.8602 40.3973C41.4347 41.4456 40.7314 42.3527 39.6785 42.8072C38.6147 43.2663 37.4755 43.1424 36.4364 42.6943C35.4117 42.2524 34.3995 41.4664 33.4244 40.4255L33.4217 40.4226C32.8837 39.8452 32.2716 39.6386 31.7356 39.6678C31.199 39.697 30.6119 39.9696 30.1391 40.6L28.1202 43.2986L28.115 43.3054C27.0644 44.6932 25.5857 45.505 23.9891 45.505C22.3925 45.505 20.9137 44.6932 19.8631 43.3054L19.858 43.2986L17.8391 40.6C17.3663 39.9696 16.7791 39.697 16.2425 39.6678C15.7066 39.6386 15.0945 39.8452 14.5565 40.4226L14.5539 40.4253C13.5831 41.4619 12.573 42.2456 11.549 42.6861C10.5105 43.1327 9.37182 43.2557 8.30822 42.7977C7.25498 42.344 6.54915 41.438 6.1214 40.3876C5.69576 39.3423 5.49908 38.0552 5.49908 36.6V14.08C5.49908 10.0729 5.92972 6.97981 7.78871 4.99273ZM9.97946 7.04227C9.00845 8.08019 8.49908 10.0271 8.49908 14.08V36.6C8.49908 37.8148 8.66741 38.6852 8.89989 39.2562C9.13027 39.822 9.37569 39.991 9.49494 40.0423C9.60385 40.0893 9.85889 40.1473 10.3636 39.9302C10.8826 39.7069 11.565 39.2281 12.3642 38.3747L13.4591 39.4L12.3617 38.3774C13.4637 37.1948 14.9216 36.5914 16.4056 36.6722C17.889 36.753 19.2719 37.5104 20.2391 38.8L22.255 41.4946C22.2558 41.4956 22.2566 41.4966 22.2573 41.4976C22.8261 42.2475 23.4664 42.505 23.9891 42.505C24.5118 42.505 25.1521 42.2474 25.7209 41.4975C25.7217 41.4966 25.7224 41.4956 25.7231 41.4946L27.738 38.8014C28.7052 37.5118 30.0891 36.753 31.5725 36.6722C33.0558 36.5915 34.5129 37.1941 35.6147 38.3755C36.4192 39.234 37.1042 39.7152 37.6243 39.9395C38.1302 40.1576 38.3834 40.0987 38.4897 40.0528C38.6068 40.0023 38.851 39.8344 39.0805 39.269C39.3119 38.6988 39.4791 37.8302 39.4791 36.62V14.08L39.4791 14.0763C39.4891 10.0232 38.9832 8.07773 38.0153 7.0413C37.0804 6.04019 35.3368 5.5 31.5591 5.5H16.4391C12.6621 5.5 10.9172 6.03992 9.97946 7.04227Z" fill="#003399"/>
<path fill-rule="evenodd" clip-rule="evenodd" d="M14.4991 14C14.4991 13.1716 15.1707 12.5 15.9991 12.5H31.9991C32.8275 12.5 33.4991 13.1716 33.4991 14C33.4991 14.8284 32.8275 15.5 31.9991 15.5H15.9991C15.1707 15.5 14.4991 14.8284 14.4991 14Z" fill="#003399"/>
<path fill-rule="evenodd" clip-rule="evenodd" d="M16.4991 22C16.4991 21.1716 17.1707 20.5 17.9991 20.5H29.9991C30.8275 20.5 31.4991 21.1716 31.4991 22C31.4991 22.8284 30.8275 23.5 29.9991 23.5H17.9991C17.1707 23.5 16.4991 22.8284 16.4991 22Z" fill="#003399"/>
</svg>
