<svg width="48" height="48" viewBox="0 0 48 48" fill="none" xmlns="http://www.w3.org/2000/svg">
<path fill-rule="evenodd" clip-rule="evenodd" d="M23.3784 4.43934C24.7589 3.05882 26.7079 2.5 28.9391 2.5H36.9391C39.1703 2.5 41.1192 3.05882 42.4997 4.43934C43.8803 5.81986 44.4391 7.76878 44.4391 10V38C44.4391 40.2312 43.8803 42.1801 42.4997 43.5607C41.1192 44.9412 39.1703 45.5 36.9391 45.5H28.9391C26.7079 45.5 24.7589 44.9412 23.3784 43.5607C21.9979 42.1801 21.4391 40.2312 21.4391 38V10C21.4391 7.76878 21.9979 5.81986 23.3784 4.43934ZM25.4997 6.56066C24.8803 7.18014 24.4391 8.23122 24.4391 10V38C24.4391 39.7688 24.8803 40.8199 25.4997 41.4393C26.1192 42.0588 27.1703 42.5 28.9391 42.5H36.9391C38.7079 42.5 39.7589 42.0588 40.3784 41.4393C40.9979 40.8199 41.4391 39.7688 41.4391 38V10C41.4391 8.23122 40.9979 7.18014 40.3784 6.56066C39.7589 5.94118 38.7079 5.5 36.9391 5.5H28.9391C27.1703 5.5 26.1192 5.94118 25.4997 6.56066Z" fill="#003399"/>
<path fill-rule="evenodd" clip-rule="evenodd" d="M21.4391 12C21.4391 11.1716 22.1107 10.5 22.9391 10.5H32.9391C33.7675 10.5 34.4391 11.1716 34.4391 12C34.4391 12.8284 33.7675 13.5 32.9391 13.5H22.9391C22.1107 13.5 21.4391 12.8284 21.4391 12Z" fill="#003399"/>
<path fill-rule="evenodd" clip-rule="evenodd" d="M21.4391 36C21.4391 35.1716 22.1107 34.5 22.9391 34.5H30.9391C31.7675 34.5 32.4391 35.1716 32.4391 36C32.4391 36.8284 31.7675 37.5 30.9391 37.5H22.9391C22.1107 37.5 21.4391 36.8284 21.4391 36Z" fill="#003399"/>
<path fill-rule="evenodd" clip-rule="evenodd" d="M21.4392 27.8854C21.4474 27.057 22.1257 26.3922 22.9541 26.4005L32.9541 26.5005C33.7825 26.5088 34.4473 27.187 34.439 28.0154C34.4307 28.8438 33.7525 29.5086 32.9241 29.5003L22.9241 29.4003C22.0957 29.392 21.4309 28.7138 21.4392 27.8854Z" fill="#003399"/>
<path fill-rule="evenodd" clip-rule="evenodd" d="M21.4391 20C21.4391 19.1716 22.1107 18.5 22.9391 18.5H28.9391C29.7675 18.5 30.4391 19.1716 30.4391 20C30.4391 20.8284 29.7675 21.5 28.9391 21.5H22.9391C22.1107 21.5 21.4391 20.8284 21.4391 20Z" fill="#003399"/>
<path fill-rule="evenodd" clip-rule="evenodd" d="M3.55908 9.9C3.55908 5.82827 6.89396 2.5 10.9791 2.5C15.0475 2.5 18.3791 5.83157 18.3791 9.9V35.82C18.3791 36.4499 18.2515 37.1565 18.077 37.7858C17.9022 38.4165 17.6484 39.0841 17.3311 39.622L17.3237 39.6346L15.686 42.3505C15.6856 42.3512 15.6852 42.3519 15.6848 42.3526C14.5693 44.2146 12.9032 45.435 10.9691 45.435C9.03502 45.435 7.36895 44.2146 6.25344 42.3527C6.253 42.352 6.25256 42.3513 6.25212 42.3505L4.60697 39.622C4.28975 39.0841 4.036 38.4165 3.86112 37.7858C3.68663 37.1565 3.55908 36.4499 3.55908 35.82V9.9ZM10.9791 5.5C8.54421 5.5 6.55908 7.49172 6.55908 9.9V35.82C6.55908 36.0901 6.62153 36.5135 6.75205 36.9842C6.8812 37.45 7.04589 37.8499 7.18795 38.0926L8.82605 40.8095C9.59053 42.0863 10.4139 42.435 10.9691 42.435C11.5243 42.435 12.3476 42.0863 13.1121 40.8095L13.1145 40.8055L14.7502 38.0926C14.8923 37.8499 15.057 37.45 15.1861 36.9842C15.3166 36.5135 15.3791 36.0901 15.3791 35.82V9.9C15.3791 7.48843 13.3907 5.5 10.9791 5.5Z" fill="#003399"/>
<path fill-rule="evenodd" clip-rule="evenodd" d="M3.55908 14C3.55908 13.1716 4.23065 12.5 5.05908 12.5H16.8791C17.7075 12.5 18.3791 13.1716 18.3791 14C18.3791 14.8284 17.7075 15.5 16.8791 15.5H5.05908C4.23065 15.5 3.55908 14.8284 3.55908 14Z" fill="#003399"/>
</svg>
