<svg width="61" height="61" viewBox="0 0 61 61" fill="none" xmlns="http://www.w3.org/2000/svg">
<mask id="mask0_39_4632" style="mask-type:luminance" maskUnits="userSpaceOnUse" x="10" y="11" width="41" height="41">
<path d="M50.4284 11.5713H10.5713V51.4284H50.4284V11.5713Z" fill="white"/>
</mask>
<g mask="url(#mask0_39_4632)">
<path d="M26.0255 24.9876C26.0255 23.6835 27.134 22.5424 28.4708 22.5424H32.5298C33.9318 22.5424 34.9751 23.6998 34.9751 24.9876V30.7583H38.2354V24.9876C38.2354 22.0696 35.4641 19.2983 32.5461 19.2983H28.4871C25.5528 19.2983 22.7979 22.0696 22.7979 24.9876V30.7583H26.0581V24.9876H26.0255Z" fill="#005023"/>
<path d="M30.5083 18.0758C32.3015 18.0758 33.7686 16.6249 33.7686 14.8155C33.7686 13.006 32.3178 11.5552 30.5083 11.5552C28.6989 11.5552 27.248 13.006 27.248 14.8155C27.248 16.6249 28.6989 18.0758 30.5083 18.0758Z" fill="#005023"/>
<path d="M27.248 35.5018C27.248 37.295 28.6989 38.7458 30.4921 38.7458C32.2852 38.7458 33.736 37.295 33.736 35.5018C33.736 33.7086 32.2852 32.2578 30.4921 32.2578C28.6989 32.2578 27.248 33.7086 27.248 35.5018Z" fill="#005023"/>
<path d="M18.2987 38.7458C20.0918 38.7458 21.5427 37.295 21.5427 35.5018C21.5427 33.7086 20.0918 32.2578 18.2987 32.2578C16.5055 32.2578 15.0547 33.7086 15.0547 35.5018C15.0547 37.295 16.5055 38.7458 18.2987 38.7458Z" fill="#005023"/>
<path d="M44.7232 39.9688H40.6641C39.1481 39.9688 37.6647 40.7186 36.6051 41.8434C35.5292 40.7186 34.062 39.9688 32.5297 39.9688H28.4706C26.9546 39.9688 25.4711 40.7186 24.4115 41.8434C23.3356 40.7186 21.8685 39.9688 20.3362 39.9688H16.2771C13.3592 39.9688 10.5879 42.74 10.5879 45.658V51.4124H13.8319V45.658C13.8319 44.3538 14.9404 43.2127 16.2771 43.2127H20.3362C21.7381 43.2127 22.7814 44.3701 22.7814 45.658V51.4124H26.0254V45.658C26.0254 44.3538 27.1339 43.2127 28.4706 43.2127H32.5297C33.9316 43.2127 34.9749 44.3701 34.9749 45.658V51.4124H38.2189V45.658C38.2189 44.3538 39.3274 43.2127 40.6641 43.2127H44.7232C46.1251 43.2127 47.1684 44.3701 47.1684 45.658V51.4124H50.4124V45.658C50.4124 42.74 47.6412 39.9688 44.7232 39.9688Z" fill="#005023"/>
<path d="M42.702 38.7458C44.4951 38.7458 45.946 37.295 45.946 35.5018C45.946 33.7086 44.4951 32.2578 42.702 32.2578C40.9088 32.2578 39.458 33.7086 39.458 35.5018C39.458 37.295 40.9088 38.7458 42.702 38.7458Z" fill="#005023"/>
</g>
</svg>
