<svg width="48" height="48" viewBox="0 0 48 48" fill="none" xmlns="http://www.w3.org/2000/svg">
<path fill-rule="evenodd" clip-rule="evenodd" d="M6.89974 10.0608C6.03 10.9306 5.49908 12.5022 5.49908 15.5802V32.4202C5.49908 34.3086 5.9719 36.0293 6.99127 37.2522C7.9705 38.4269 9.61828 39.3402 12.4191 39.3402H25.0591C28.1256 39.3402 29.699 38.8098 30.5719 37.9385C31.4442 37.0678 31.9791 35.4952 31.9791 32.4202V15.5802C31.9791 12.5022 31.4482 10.9306 30.5784 10.0608C29.7087 9.19107 28.1371 8.66016 25.0591 8.66016H12.4191C9.34109 8.66016 7.76949 9.19107 6.89974 10.0608ZM4.77842 7.9395C6.53868 6.17924 9.17708 5.66016 12.4191 5.66016H25.0591C28.3011 5.66016 30.9395 6.17924 32.6997 7.9395C34.46 9.69975 34.9791 12.3382 34.9791 15.5802V32.4202C34.9791 35.6651 34.4539 38.3025 32.6912 40.0618C30.9292 41.8205 28.2925 42.3402 25.0591 42.3402H12.4191C8.89989 42.3402 6.33767 41.1534 4.6869 39.1731C3.07627 37.241 2.49908 34.7517 2.49908 32.4202V15.5802C2.49908 12.3382 3.01817 9.69975 4.77842 7.9395Z" fill="#003399"/>
<path fill-rule="evenodd" clip-rule="evenodd" d="M39.8981 15.0106C39.8977 15.0109 39.8984 15.0103 39.8981 15.0106L34.9791 18.461V29.5208L39.9005 32.9729L39.9041 32.9755C41.0444 33.7804 41.66 33.6497 41.8476 33.5523C42.0362 33.4544 42.4991 33.0233 42.4991 31.6209V16.3809C42.4991 14.9798 42.0368 14.5458 41.8447 14.4455C41.6531 14.3454 41.0356 14.2164 39.8981 15.0106ZM43.2334 11.7863C44.8414 12.626 45.4991 14.442 45.4991 16.3809V31.6209C45.4991 33.5585 44.842 35.3775 43.2305 36.2145C41.6188 37.0517 39.7553 36.5419 38.176 35.4278C38.1754 35.4273 38.1747 35.4268 38.1741 35.4264L32.6177 31.5289C32.2174 31.2481 31.9791 30.7899 31.9791 30.3009V17.6809C31.9791 17.1919 32.2174 16.7337 32.6177 16.4529L38.1801 12.5512C39.7619 11.4463 41.6252 10.9464 43.2334 11.7863Z" fill="#003399"/>
<path fill-rule="evenodd" clip-rule="evenodd" d="M22.9991 17.5C22.1707 17.5 21.4991 18.1716 21.4991 19C21.4991 19.8284 22.1707 20.5 22.9991 20.5C23.8275 20.5 24.4991 19.8284 24.4991 19C24.4991 18.1716 23.8275 17.5 22.9991 17.5ZM18.4991 19C18.4991 16.5147 20.5138 14.5 22.9991 14.5C25.4844 14.5 27.4991 16.5147 27.4991 19C27.4991 21.4853 25.4844 23.5 22.9991 23.5C20.5138 23.5 18.4991 21.4853 18.4991 19Z" fill="#003399"/>
</svg>
