<svg width="60" height="60" viewBox="0 0 60 60" fill="none" xmlns="http://www.w3.org/2000/svg">
<path d="M55 30V42.5C55 50 50 55 42.5 55H17.5C10 55 5 50 5 42.5V30C5 23.2 9.1 18.45 15.475 17.65C16.125 17.55 16.8 17.5 17.5 17.5H42.5C43.15 17.5 43.775 17.525 44.375 17.625C50.825 18.375 55 23.15 55 30Z" stroke="#003399" stroke-width="4" stroke-linecap="round" stroke-linejoin="round"/>
<path d="M44.3785 17.625C43.7785 17.525 43.1535 17.5 42.5035 17.5H17.5035C16.8035 17.5 16.1285 17.55 15.4785 17.65C15.8285 16.95 16.3285 16.3 16.9285 15.7L25.0535 7.55C28.4785 4.15 34.0285 4.15 37.4535 7.55L41.8285 11.975C43.4285 13.55 44.2785 15.55 44.3785 17.625Z" stroke="#003399" stroke-width="4" stroke-linecap="round" stroke-linejoin="round"/>
<path d="M55 31.25H47.5C44.75 31.25 42.5 33.5 42.5 36.25C42.5 39 44.75 41.25 47.5 41.25H55" stroke="#003399" stroke-width="4" stroke-linecap="round" stroke-linejoin="round"/>
</svg>
