<svg width="30" height="30" viewBox="0 0 30 30" fill="none" xmlns="http://www.w3.org/2000/svg">
<path fill-rule="evenodd" clip-rule="evenodd" d="M0 14.5823C0 6.52871 6.52871 0 14.5823 0C22.6358 0 29.1646 6.52871 29.1646 14.5823C29.1646 22.6358 22.6358 29.1646 14.5823 29.1646C6.52871 29.1646 0 22.6358 0 14.5823ZM22.0344 10.9812C21.8556 10.294 21.3285 9.75287 20.6592 9.56921C19.4463 9.23544 14.5823 9.23544 14.5823 9.23544C14.5823 9.23544 9.71825 9.23544 8.50527 9.56921C7.83599 9.75287 7.3089 10.294 7.13003 10.9812C6.80506 12.2267 6.80506 14.8253 6.80506 14.8253C6.80506 14.8253 6.80506 17.4239 7.13003 18.6694C7.3089 19.3566 7.83599 19.8978 8.50527 20.0815C9.71825 20.4152 14.5823 20.4152 14.5823 20.4152C14.5823 20.4152 19.4463 20.4152 20.6592 20.0815C21.3285 19.8978 21.8556 19.3566 22.0344 18.6694C22.3595 17.4239 22.3595 14.8253 22.3595 14.8253C22.3595 14.8253 22.3595 12.2267 22.0344 10.9812Z" fill="white"/>
<path fill-rule="evenodd" clip-rule="evenodd" d="M13.125 17.4975V12.6367L17.0136 15.0672L13.125 17.4975Z" fill="white"/>
</svg>
